SplineFontDB: 3.0
FontName: Experiment-Sinhala-Bold
FullName: Experiment-Sinhala
FamilyName: Experiment-Sinhala
Weight: Bold
Copyright: Copyright (c) 2015, Pathum Egodawatta
UComments: "2015-9-29: Created with FontForge (http://fontforge.org)"
Version: 0.001
ItalicAngle: 0
UnderlinePosition: -99
UnderlineWidth: 49
Ascent: 750
Descent: 250
InvalidEm: 0
LayerCount: 2
Layer: 0 0 "Back" 1
Layer: 1 0 "Fore" 0
PreferredKerning: 4
XUID: [1021 779 -1439063335 14876943]
FSType: 0
OS2Version: 0
OS2_WeightWidthSlopeOnly: 0
OS2_UseTypoMetrics: 1
CreationTime: 1443542790
ModificationTime: 1468250196
PfmFamily: 17
TTFWeight: 400
TTFWidth: 5
LineGap: 122
VLineGap: 0
OS2TypoAscent: 879
OS2TypoAOffset: 0
OS2TypoDescent: -250
OS2TypoDOffset: 0
OS2TypoLinegap: 122
OS2WinAscent: 879
OS2WinAOffset: 0
OS2WinDescent: 49
OS2WinDOffset: 0
HheadAscent: 779
HheadAOffset: 0
HheadDescent: -27
HheadDOffset: 0
OS2Vendor: 'PfEd'
Lookup: 4 0 0 "'abvs' Above Base Substitutions in Sinhala lookup 0" { "'abvs' Above Base Substitutions in Sinhala lookup 0-1"  "'abvs' Above Base Substitutions in Sinhala lookup 0-2"  } ['abvs' ('DFLT' <'dflt' > 'sinh' <'dflt' > ) ]
Lookup: 4 0 0 "si_akhands" { "si_akhands subtable"  } ['akhn' ('sinh' <'dflt' > ) ]
Lookup: 4 0 0 "si_reph" { "si_reph subtable"  } ['rphf' ('sinh' <'dflt' > ) ]
Lookup: 4 0 0 "si_halant_1" { "si_halant_1 subtable"  } ['abvs' ('sinh' <'dflt' > ) ]
Lookup: 4 0 0 "si_halant_2" { "si_halant_2 subtable"  } ['abvs' ('sinh' <'dflt' > ) ]
Lookup: 4 0 0 "si_halant_3" { "si_halant_3 subtable"  } ['abvs' ('sinh' <'dflt' > ) ]
Lookup: 4 0 0 "si_abvs_1" { "si_abvs_1 subtable"  } ['abvs' ('sinh' <'dflt' > ) ]
Lookup: 4 0 0 "si_abvs_2" { "si_abvs_2 subtable"  } ['abvs' ('sinh' <'dflt' > ) ]
Lookup: 4 0 0 "si_abvs_3" { "si_abvs_3 subtable"  } ['abvs' ('sinh' <'dflt' > ) ]
Lookup: 4 0 0 "si_abvs_4" { "si_abvs_4 subtable"  } ['abvs' ('sinh' <'dflt' > ) ]
Lookup: 4 0 0 "si_abvs_5" { "si_abvs_5 subtable"  } ['abvs' ('sinh' <'dflt' > ) ]

StartChar: si_Tta
Encoding: 34 3495 0
GlifName: si_T_ta
Width: 831
VWidth: -14
Flags: HMW
LayerCount: 2
Back
SplineSet
55 220 m 0
 55 370 175 447 290 447 c 0
 347 447 384 428 384 428 c 1
 386 412 375 389 370 383 c 1
 347 393 319 399 290 399 c 0
 206 399 126 340 126 244 c 0
 126 142 231 67 395 67 c 0
 604 67 686 215 692 372 c 0
 699 558 597 702 371 702 c 4
 238 702 160 634 157 634 c 1
 145 642 133 669 142 699 c 1
 193 736 282 764 375 764 c 0
 602 764 763 605 757 365 c 0
 751 129 617 -35 388 -35 c 0
 176 -35 55 74 55 220 c 0
EndSplineSet
Fore
SplineSet
45 215 m 0
 45 387 174 464 288 464 c 0
 351 464 391 445 391 445 c 1
 394 424.534246575 380 369.95890411 374 362 c 1
 348 372 315.939579838 379.965512605 284 378 c 0
 229.07751938 375.333333333 175 352.666666667 175 298 c 0
 175 246.823899371 267.175536962 218.484396221 416 219 c 0
 588.471630541 219.86196635 668.770758926 317.412488328 671 423 c 0
 673.893617021 587.410774411 539.816721758 677.915748697 399 680 c 0
 278 682 175 611 172 611 c 1
 148 634.876712329 140 651.931506849 142 694 c 1
 194 737 302 768 397 768 c 0
 634 768 792.17273567 601.995794633 786 352 c 0
 779.937336815 109 647.569190601 -53 399 -53 c 0
 191.346368715 -53 45 61 45 215 c 0
EndSplineSet
EndChar

StartChar: si_Pa
Encoding: 46 3508 1
GlifName: si_P_a
Width: 884
VWidth: 6
Flags: HMW
LayerCount: 2
Back
SplineSet
224 625 m 4
 317.922935512 625 397.169921875 572.178006806 397.169921875 479.569335938 c 4
 397.169921875 418.884765625 388.341796875 395.891601562 380 368 c 5
 340 415 l 5
 341 428.608398438 344.666992188 440.215820312 344.666992188 450.888671875 c 4
 344.666992188 503.204959433 287.993743913 525.65625 234.43359375 525.65625 c 5
 180 440 l 5
 132.77734375 444.2109375 95 468.0703125 95 520 c 4
 95 596.467773438 169.3046875 625 224 625 c 4
59 207 m 0
 59 365 208.737304688 427 320 427 c 0
 329 427 337 427 345 426 c 1
 321 387 l 1
 327 404 338 423 338 446 c 0
 338 503 289 536 234 536 c 0
 223 536 211 535 200 532 c 1
 233 553 l 1
 178 451 l 1
 138 453 112 476 112 510 c 0
 112 562 171 599 231 599 c 0
 305 599 375 557 375 473 c 0
 375 439 369 409 361 375 c 1
 347 377 333 378 320 378 c 0
 212.301757812 378 131 315 131 238 c 0
 131 152.03515625 215.970703125 64.0234375 417 63 c 0
 633.850585938 61.9775390625 729 156 729 249 c 0
 729 342 630.708007812 379 538 379 c 0
 522 379 506 378 491 375 c 1
 511 415 l 1
 533 420 554 422 574 422 c 0
 699.34375 422 795 351 795 230 c 0
 795 57.375 609.467773438 -33 412 -33 c 0
 213.373046875 -33 59 59.5419921875 59 207 c 0
476 468 m 0
 477 554 552 599 619 598 c 0
 698 597 754 552 754 476 c 0
 754 387.463867188 660 357 660 357 c 1
 644 374 l 1
 675.91796875 393.615234375 690 428.17578125 690 459 c 0
 690 505 656 536 597 536 c 0
 548 536 511 504 511 460 c 0
 511 408 536 393 536 393 c 1
 491 375 l 1
 483 400 476 426 476 468 c 0
EndSplineSet
Fore
SplineSet
49 212 m 0
 49 364.972727273 214.12371134 425 330 425 c 0
 339 425 347 425 355 424 c 1
 326 413 l 1
 329.154033288 501.386851257 259.446778037 520.684210526 181 512 c 1
 233 529 l 1
 161 425 l 1
 146.505882353 425.9375 84 439.4375 84 500 c 0
 84 577.866666667 157.279069767 612 221 612 c 0
 309.277456647 612 387 555.681818182 387 465 c 0
 387 439.396551724 382 383.448275862 371 355 c 1
 357 357 343 358 330 358 c 0
 240.037735849 358 181 332 181 293 c 0
 181 256.2 261.3828125 221.173828125 427 221 c 4
 564.369140625 220.873046875 709 243.0070609 709 297 c 0
 709 341.449541284 626 354 548 354 c 0
 527 354 506 352 487 346 c 1
 523 416 l 1
 544.301587302 422 564.634920635 424 584 424 c 0
 718.142259414 424 813 355.673469388 813 238 c 0
 813 81.7722007722 669.766917293 -31 432 -31 c 0
 172.355844156 -31 49 83.4346837536 49 212 c 0
472 450 m 0
 472.983240223 551.724767081 565.40769886 605.976068922 648 605 c 0
 730.777777778 604.02173913 797 554.130434783 797 470 c 0
 797 371.555327167 686 350 686 350 c 1
 663 368 l 1
 690.906976744 384.093333333 703 413.44 703 439 c 0
 703 483.559139785 658.82 513 609 513 c 0
 563.285714286 513 529 483.759493671 529 443 c 0
 529 393.432098765 543 370 543 370 c 1
 487 348 l 1
 479 373.052631579 471.633276204 407.935231455 472 450 c 0
EndSplineSet
EndChar

StartChar: si_Va
Encoding: 55 3520 2
GlifName: si_V_a
Width: 858
VWidth: 16
Flags: HMW
LayerCount: 2
Back
SplineSet
50 163 m 0
 50 310 202 367 317 367 c 0
 326 367 335 367 343 366 c 1
 343 436 283 472 211 472 c 1
 155 391 l 1
 130 391 98 409 97 448 c 0
 96 504 153 537 212 537 c 0
 290 537 383 488 383 379 c 0
 383 345 375 319 375 319 c 1
 357 321 339 322 321 322 c 0
 210 322 117 272 117 193 c 0
 117 116 204 61 374 62 c 0
 567 63 674 202 674 370 c 0
 674 579 572 709 353 709 c 0
 230 709 148 645 146 645 c 1
 135 653 123 680 127 709 c 1
 169 737 238 767 360 767 c 0
 562 767 733 619 733 364 c 0
 733 136 605 -41 372 -41 c 0
 191 -41 50 36 50 163 c 0
EndSplineSet
Fore
SplineSet
53 173 m 0
 53 307.632124352 193.625 376 323 376 c 0
 362 376 380 373 388 370 c 1
 388 440 336 472 264 472 c 1
 209 372 l 1
 165.084337349 372 128.436919923 408.989748212 128 448 c 0
 127.014388489 536 206.848920863 567 265 567 c 0
 351.137566138 567 450 508 450 379 c 0
 450 339.943820225 440 300 440 300 c 1
 307.107356515 321.974609375 195 297.22265625 195 239 c 0
 195 184.961914062 324.825588263 173.994332631 424 180 c 0
 616.392220174 191.650622963 682.331121397 312.446468418 685 446 c 0
 688.449023994 618.592838961 555.428710938 713 392 713 c 4
 259 713 160 620 158 620 c 1
 147 626.202148438 136 696.516853933 140 719 c 1
 182 747 281 795 403 795 c 0
 645.280273438 795 806 625.25 806 364 c 0
 806 136 673.959079284 -47 405 -51 c 0
 218.43583575 -53.7746103942 53 16 53 173 c 0
EndSplineSet
EndChar

StartChar: si_Ra
Encoding: 53 3515 4
GlifName: si_R_a
Width: 741
VWidth: 25
Flags: HMW
LayerCount: 2
Back
SplineSet
59 243 m 4
 59 523 407 629 507 763 c 5
 547 861 l 5
 548 861 549 861 550 861 c 4
 599.5 861 616 838 616 812 c 4
 616 744 549.981147693 685.366990356 441 621 c 4
 308.936507937 543 116 437 116 267 c 4
 116 148.342465753 206.44 54 354 54 c 4
 517.225806452 54 607 159.386666667 607 282 c 4
 607 419.523404255 508.27796155 507.231197432 375 508 c 4
 211.755186722 509 139.966804979 367 138 366 c 5
 162 426 l 5
 161.016666667 429 268.2 559 398 559 c 4
 558.241134752 559 684 442 684 267 c 4
 684 100 562.570977918 -47 355 -47 c 4
 155.103896104 -47 59 91 59 243 c 4
EndSplineSet
Fore
SplineSet
48.1494140625 244.995117188 m 0
 41.2653087185 512.370117188 283.900199714 586.115234375 437.014648438 792.920898438 c 1
 465.267578125 825.903320312 477.883789062 861.296875 484.278320312 891.994140625 c 1
 485.27734375 892.022460938 486.277453209 892.046370194 487.276367188 892.077148438 c 0
 536.883545573 893.485624299 594.127142368 878.491446753 614.643554688 834.6796875 c 1
 573.228680835 706.600585938 392.579006618 616.693776425 238.80859375 492.642578125 c 0
 188.948773412 458.650149746 137.503191727 417.934676892 142.318359375 306.872070312 c 0
 145.58617882 225.095182887 242.649858224 171.455057807 360.413085938 173.927734375 c 0
 499.033070138 176.924861958 567.753560059 268.050634778 564.427734375 353.99609375 c 0
 561.062996278 453.419738971 459.187119245 505.881916687 362.489257812 501.223632812 c 0
 211.823304987 493.924107935 140.20607359 397.058879986 142.318359375 306.872070312 c 1
 139.949967511 348.534060153 132.377022213 373.872226102 152.619140625 426.223632812 c 1
 151.481063024 429.903290152 301.485111878 569.876824043 379.87890625 574.586914062 c 4
 515.503678816 582.372835713 686.756570592 486.923584681 690.926757812 284.030273438 c 0
 694.507900718 112.483398438 580.224572056 -46.3097782093 385.080078125 -52.0908203125 c 0
 184.902231666 -58.2275362177 52.2165634129 82.7165314734 48.1494140625 244.995117188 c 0
EndSplineSet
EndChar

StartChar: si_Ca
Encoding: 27 3488 5
GlifName: si_C_a
Width: 862
VWidth: 16
Flags: HMW
LayerCount: 2
Back
SplineSet
65 309 m 5
 60 331 59 350 65 366 c 5
 444 366 l 5
 446 324 l 5
 150 324 l 5
 65 309 l 5
EndSplineSet
Refer: 2 3520 N 1 0 0 1 75 0 2
Fore
SplineSet
58 173 m 0
 58 307.631835938 188.625 362 318 362 c 0
 357 362 375 369 383 366 c 1
 383 436 341 472 269 472 c 1
 214 388 l 1
 170.083984375 388 132.992673489 418.987792768 133 458 c 0
 133.014648438 536 211.848632812 567 270 567 c 0
 356.137695312 567 455 504 455 375 c 0
 455 335.943359375 445 296 445 296 c 1
 312.107421875 317.974609375 200 287.22265625 200 229 c 0
 200 184.961914062 339.825195312 173.994140625 429 180 c 0
 621.180664062 194.734375 697.331054688 332.446289062 690 446 c 0
 678.927734375 618.271484375 524.428710938 706 371 706 c 0
 258 706 165 650 163 650 c 1
 152 656.202148438 141 696.516601562 145 719 c 1
 187 747 276 782 398 782 c 0
 610.280273438 782 811 625.25 811 364 c 0
 811 136 678.958984375 -47 410 -51 c 0
 223.435546875 -53.7744140625 58 16 58 173 c 0
-3.4111328125 287 m 1
 -6.4111328125 317.876953125 -3.4111328125 348.75390625 2.5888671875 367 c 1
 382.588867188 367 l 1
 394.588867188 307 l 1
 87.5888671875 307 l 1
 -3.4111328125 287 l 1
EndSplineSet
EndChar

StartChar: si_Sa
Encoding: 58 3523 6
GlifName: si_S_a
Width: 949
VWidth: 6
Flags: HMW
LayerCount: 2
Back
SplineSet
36.5888671875 352 m 5
 33.5888671875 374 36.5888671875 396 42.5888671875 409 c 5
 421.588867188 409 l 5
 423.588867188 367 l 5
 127.588867188 367 l 5
 36.5888671875 352 l 5
96.5888671875 175 m 4
 96.5888671875 301.122070312 194.588867188 377 230.588867188 377 c 6
 326.588867188 377 l 5
 228.588867188 365.333007812 161.588867188 286.848632812 161.588867188 202 c 4
 161.588867188 131.331054688 206.66015625 63 312.588867188 63 c 4
 388.778320312 63 473.905273438 106.063476562 478.588867188 236 c 5
 491.588867188 241 504.588867188 242 517.588867188 240 c 5
 520.588867188 119.981445312 594.950195312 64 687.588867188 64 c 4
 780.840820312 64 834.588867188 128.294921875 834.588867188 225 c 4
 834.588867188 315 758.123046875 378 659.588867188 378 c 4
 632.713867188 378 595.151367188 373 565.588867188 359 c 5
 560.588867188 383 555.588867188 406 555.588867188 432 c 4
 555.588867188 533 623.408203125 596.786132812 712.588867188 598 c 4
 787.588867188 598.958984375 852.588867188 554.829101562 852.588867188 480 c 4
 852.588867188 379.7890625 771.588867188 361 771.588867188 361 c 5
 755.588867188 361 l 5
 755.588867188 361 787.588867188 385.502929688 787.588867188 434 c 4
 787.588867188 485.526367188 757.26953125 533 689.588867188 533 c 4
 648.731445312 533 595.588867188 500 595.588867188 430 c 4
 595.588867188 393 611.588867188 383 611.588867188 383 c 5
 570.588867188 403 l 5
 598.818359375 413.833984375 626.33203125 424 670.588867188 424 c 4
 775.946289062 424 898.588867188 355.416992188 898.588867188 216 c 4
 898.588867188 87.810546875 834.830078125 -31 683.588867188 -31 c 4
 564.681640625 -31 486.202148438 42.01171875 481.588867188 151 c 5
 481.588867188 150 482.588867188 150 484.588867188 150 c 4
 491.588867188 150 506.588867188 152 513.588867188 152 c 4
 515.588867188 152 516.756835938 151.985351562 516.588867188 151 c 4
 498.569335938 45.2763671875 430.618164062 -31 312.588867188 -31 c 4
 151.62109375 -31 96.5888671875 74.1005859375 96.5888671875 175 c 4
155.588867188 504 m 4
 155.588867188 567 217.588867188 598 280.588867188 598 c 4
 365.588867188 598 440.588867188 546 440.588867188 453 c 4
 440.588867188 420 431.588867188 387 423.588867188 367 c 5
 395.588867188 394 l 5
 396.588867188 405 400.588867188 415 400.588867188 424 c 4
 400.588867188 492 347.588867188 529 277.588867188 529 c 5
 223.588867188 439 l 5
 183.588867188 442 155.588867188 467 155.588867188 504 c 4
EndSplineSet
Fore
SplineSet
36.5888671875 335 m 1
 33.5888671875 365.877192982 36.5888671875 396.754385965 42.5888671875 415 c 1
 432.588867188 415 l 1
 434.588867188 355 l 1
 127.588867188 355 l 1
 36.5888671875 335 l 1
647.588867188 370 m 1
 622.969524319 370.558336212 597.390554968 365.764705882 567 352 c 1
 556.3125 375.991304348 546.8125 401.530434783 548 441 c 0
 551.36834594 556.248303206 645.066905257 617.051423275 730 616 c 0
 815.534894587 614.931199849 884 565.884057971 884 483 c 0
 884 387.410071942 780 354 780 354 c 1
 754 361 l 1
 777.023255814 378 787 409 787 436 c 0
 787 479.956989247 744.7 509 697 509 c 0
 642.714285714 509 602 476 602 430 c 0
 602 388.648351649 620 377 620 377 c 1
 576 406 l 1
 611.229428943 423 638.338399238 431 682.588867188 430 c 1
 807.02210115 430 908.588867188 346.56872663 908.588867188 206 c 0
 908.588867188 92.9200141279 844.533525617 -32 692.588867188 -32 c 0
 568.881306335 -32 496.90520311 41.4128820398 481.588867188 151 c 1
 481.588867188 150 482.588867188 150 484.588867188 150 c 0
 491.588867188 150 506.588867188 152 513.588867188 152 c 0
 515.588867188 152 516.756811183 151.985355782 516.588867188 151 c 0
 498.569335938 45.2763671875 430.618164062 -32 312.588867188 -32 c 0
 154.631835938 -32 86.5888671875 61.0394038228 86.5888671875 169 c 0
 86.5888671875 288.25403678 199.215732859 360 240.588867188 360 c 2
 356.588867188 360 l 1
 269.151330531 358.74618795 227.588867188 316.958492874 227.588867188 279 c 0
 227.588867188 241.896077031 271.548828125 221 336.588867188 221 c 4
 397.172851562 221 474.864563724 251.36846324 478.588867188 343 c 1
 491.588867188 348 504.588867188 349 517.588867188 347 c 1
 520.165337776 253.12339644 584.028596047 224 663.588867188 224 c 0
 705.142444748 224 757.588867188 245.299294794 757.588867188 301 c 0
 757.588867188 341.588235294 709.524637276 370 647.588867188 370 c 1
143.588867188 513 m 0
 143.588867188 584.042553191 209.060867187 619 275.588867188 619 c 0
 368.627450213 619 451.588867188 561.620689655 451.588867188 459 c 0
 451.588867188 419.093023256 442.588867188 379.186046512 434.588867188 355 c 1
 390.588867188 400 l 1
 391.588867188 411 395.588867188 421 395.588867188 430 c 0
 395.588867188 486.342857143 343.450655805 517 274.588867188 517 c 1
 230.588867188 439 l 1
 179.412396599 442.415384615 143.588867188 470.876923077 143.588867188 513 c 0
EndSplineSet
EndChar

StartChar: si_Ka
Encoding: 21 3482 7
GlifName: si_K_a
Width: 1101
VWidth: 6
Flags: HMW
LayerCount: 2
Back
SplineSet
76.8154296875 465 m 0
 76.8154296875 523.90234375 123.360351562 576 205.815429688 576 c 0
 302.877929688 576 347.716796875 494.41796875 318.815429688 418 c 0
 303.08984375 376.420898438 291.354492188 381.439453125 284.815429688 371 c 0
 243.815429688 360 l 1
 268.130859375 379.963867188 282.815429688 419.892578125 282.815429688 446 c 0
 282.815429688 488.567382812 253.567382812 510.017578125 227.815429688 510.045898438 c 0
 205.5625 510.0703125 192.64453125 497.591796875 185.815429688 486 c 1
 164.815429688 391 l 1
 98.9677734375 389.791992188 76.8154296875 431.401367188 76.8154296875 465 c 0
1045.81542969 267 m 0
 1045.81542969 117 975.4375 -31 807.815429688 -31 c 0
 743.674804688 -31 704.815429688 -10 704.815429688 -8 c 1
 697.815429688 5.052734375 710.815429688 43.2978515625 722.815429688 52 c 1
 734.501953125 43 762.26953125 23 815.815429688 23 c 0
 939.088867188 23 973.815429688 156 968.815429688 246 c 0
 958.400390625 433.463867188 759.805664062 502.794921875 619.815429688 497 c 0
 505.85546875 492.282226562 425.880859375 449.84765625 344.815429688 393 c 0
 343.815429688 386 l 0
 248.204561782 307.922991507 160.536132812 229.3203125 71.8154296875 83 c 1
 71.8154296875 83 39.2958984375 97.072265625 44.8154296875 126 c 1
 133.6640625 258.981445312 224.124822443 351.926906151 308.815429688 424 c 0
 312.815429688 425 l 0
 380.224278846 501.192382812 493.391376202 572.087890625 617.815429688 585 c 4
 870.570762484 608.46484375 1045.81542969 456.926757812 1045.81542969 267 c 0
77.8154296875 99 m 1
 77.8154296875 145 l 1
 100.1484375 157.665039062 108.482421875 166 130.815429688 166 c 0
 199.325195312 166 206.979492188 69 296.815429688 69 c 0
 352.55078125 69 398.874348958 113.2578125 399.815429688 208 c 1
 410.815429688 212 425.815429688 216 434.815429688 213 c 1
 435.878079251 116.71875 485.925209388 65.2978515625 553.815429688 67 c 0
 605.548828125 68.390625 644.815429688 112.572265625 644.815429688 185 c 0
 644.815429688 259.396484375 602.4453125 351 442.815429688 362 c 0
 367.251461124 367.207067997 290.612304688 347.100585938 250.815429688 325 c 1
 306.815429688 382 l 1
 319.10546875 385.70703125 385.049473493 413.557110857 467.815429688 409 c 0
 597.166015625 401.877929688 716.815429688 324.202148438 716.815429688 182 c 0
 716.815429688 56.859375 643.99609375 -24 549.815429688 -24 c 0
 455.753965435 -24 421.06640625 27.7373046875 411.815429688 69 c 1
 423.815429688 69 l 1
 418.395507812 30.4306640625 371.180664062 -22.4970703125 299.815429688 -23 c 0
 151.979492188 -24.0419921875 183.743164062 128 111.815429688 128 c 0
 97.947265625 128 91.1728515625 119.400390625 77.8154296875 99 c 1
EndSplineSet
Fore
SplineSet
17.779296875 465 m 0
 17.779296875 530.102539062 68.98828125 592 163.779296875 592 c 0
 252.296875 592 313.999023438 521.793945312 306.779296875 448 c 0
 300.872070312 387.618164062 244.1640625 386.881835938 238.779296875 372 c 0
 218.779296875 361 l 1
 238.231445312 380.963867188 253.061523438 412.924804688 251.779296875 439 c 0
 249.779296875 479.662109375 212.404296875 500.014648438 184.779296875 500.045898438 c 0
 170.455078125 500.0625 157.3984375 494.938476562 149.779296875 484 c 1
 113.779296875 379 l 1
 41.4462890625 377.638671875 17.779296875 427.142578125 17.779296875 465 c 0
1055.81542969 269 m 0
 1055.81542969 128.302734375 972.480444127 -31 797.815429688 -31 c 0
 739.902049833 -31 704.815429688 -10 704.815429688 -8 c 1
 697.815429688 9.40364583333 710.815429688 60.3971354167 722.815429688 72 c 1
 733.245337701 64.2413793103 748.02734375 47 795.815429688 47 c 0
 875.4375 47 899.655273438 147.770507812 879.815429688 236 c 0
 850.580078125 366.010742188 748.962890625 469.215820312 539.815429688 466 c 0
 444.928710938 464.541015625 389.879882812 419.364257812 323.815429688 376 c 1
 242.264648438 305.653320312 147.489257812 204.833007812 71.8154296875 73 c 1
 71.8154296875 73 17.251953125 97.072265625 24.8154296875 126 c 1
 113.6640625 259.427734375 214.125 372.684570312 298.815429688 445 c 0
 302.815429688 446 l 0
 364.061523438 504.697265625 497.372070312 615.228515625 678.815429688 615 c 0
 878.567423769 614.748425889 1055.81542969 494.358398438 1055.81542969 269 c 0
77.8154296875 109 m 1
 57.8154296875 145 l 1
 90.26171875 184.201171875 122.369140625 220 154.815429688 220 c 0
 214.372070312 220 209.719415837 189 287.815429688 189 c 0
 327.646113878 189 387.833984375 200.641601562 388.815429688 278 c 1
 400.7578125 282 433.043945312 286 442.815429688 283 c 1
 443.735351562 211.619140625 489.723955187 195.19924029 519.815429688 197 c 0
 543.300042098 198.405386227 569.815429688 215.435546875 569.815429688 250 c 0
 569.815429688 303.286132812 511.973632812 363.360351562 400.815429688 365 c 0
 335.694335938 366.3203125 270.01586914 337.308646538 235.815429688 317 c 1
 316.815429688 389 l 1
 329.10546875 393.119140625 397.665039062 428.764648438 457.815429688 430 c 0
 608.340820312 433.814453125 706.815429688 316.34903482 706.815429688 190 c 0
 706.815429688 62.6635676877 646.741621541 -23 550.815429688 -23 c 0
 458.117175061 -23 423.932334125 39.3072916667 414.815429688 89 c 1
 426.815429688 89 l 1
 421.220671621 42.4652577276 377.483398438 -24.419921875 303.815429688 -25 c 0
 142.450195312 -26.26953125 194.280273438 152 105.815429688 152 c 0
 94.39453125 152 88.8154296875 139.249023438 77.8154296875 109 c 1
EndSplineSet
EndChar

StartChar: si_Ta
Encoding: 40 3501 8
GlifName: si_T_a
Width: 1160
VWidth: 6
Flags: HMW
LayerCount: 2
Back
SplineSet
82 481 m 0
 82 522.485714286 122.238095238 580 212 580 c 0
 279.552238806 580 336 531 336 463 c 0
 336 398.842105263 282.692307692 386.736842105 270 371 c 0
 261 370 l 5
 283.942857143 395.5 294 422.928571429 294 446 c 4
 294 508.311403509 230.333967392 529.289473684 198 510 c 1
 151 412 l 1
 115.918140308 410.706891742 82 435.035295758 82 481 c 0
55 106 m 1
 155 255 219 335 319 427 c 0
 320.826086957 427.5 323.173913043 427.5 325 428 c 0
 429.829545455 518.507042254 553.528409091 581 694 581 c 0
 905 581 1050 448 1050 270 c 0
 1050 97 953 -32 794 -32 c 0
 716 -32 695 -10 695 -10 c 1
 693 6 704 32 722 44 c 1
 722 44 752 21 800 21 c 0
 917 21 977 139 970 259 c 0
 961 420 827 493 659 493 c 0
 564 493 452 454 359 388 c 0
 342 376 353 381 339 369 c 0
 242 287 187 217 87 80 c 1
 87 80 56 89 55 106 c 1
107 120 m 1
 109 151 l 1
 119 159 142 176 179 176 c 0
 261 176 279 68 447 68 c 0
 563 68 626 130 626 213 c 0
 626 329 512 365 451 365 c 0
 368 365 303 339 270 320 c 1
 300 355 l 1
 313 360 399 411 479 411 c 0
 562 411 691 360 691 209 c 0
 691 104 622 -27 422 -26 c 0
 327 -26 239 15 208 74 c 0
 183 122 157 146 107 120 c 1
EndSplineSet
Fore
SplineSet
47.779296875 465 m 0
 47.779296875 530.102539062 98.98828125 592 193.779296875 592 c 0
 282.296875 592 343.999023438 529.793945312 336.779296875 456 c 0
 330.872070312 395.618164062 274.1640625 386.881835938 268.779296875 372 c 0
 248.779296875 361 l 1
 268.231445312 380.963867188 283.061523438 412.924804688 281.779296875 439 c 0
 279.779296875 479.662109375 242.404296875 500.014648438 214.779296875 500.045898438 c 0
 200.455078125 500.0625 187.3984375 494.938476562 179.779296875 484 c 1
 143.779296875 379 l 1
 71.4462890625 377.638671875 47.779296875 427.142578125 47.779296875 465 c 0
72 130 m 1
 152 252 209 335 309 427 c 0
 311 427 314 427 315 428 c 0
 420 513.065217391 540 600 730 600 c 0
 948.874015748 600 1091 468.802431611 1091 273 c 0
 1091 105.544871795 988.593220339 -29 806 -29 c 0
 725.801526718 -29 685 0 685 0 c 1
 683 16 694 65 712 77 c 1
 712 77 746 45 794 45 c 0
 878.707656262 45 906.028320312 117.13671875 905 195 c 0
 903.297851562 336.642578125 758.377929688 451.27734375 552 452 c 4
 466.2421875 452.30078125 406.458984375 417.657226562 361 384 c 0
 343.306640625 373.046875 342 361 328 349 c 0
 231 267 211 228 111 91 c 1
 111 91 77 103 72 130 c 1
117 150 m 1
 119 181 l 1
 129 189 152 226 189 226 c 0
 272 226 298.317073171 162 438 162 c 0
 518.242857143 162 575 195.260416667 575 265 c 0
 575 331 511 368 440 368 c 0
 357 368 293 339 260 320 c 1
 330 365 l 1
 340.771484375 370 398.713867188 423 475 425 c 0
 568.257018574 427.444927148 701.222107438 395.065429688 707 222 c 0
 709.930501931 121 635.598632812 -23 450 -23 c 0
 366.685546875 -23 286.342857143 8 238 64 c 0
 202.830078125 105.905273438 180 184 117 150 c 1
EndSplineSet
EndChar

StartChar: si_Na
Encoding: 44 3505 9
GlifName: si_N_a
Width: 1064
VWidth: 6
Flags: HMW
LayerCount: 2
Fore
SplineSet
80.779296875 468 m 0
 80.779296875 543.102539062 135.98828125 597 230.779296875 597 c 0
 339.296875 597 385.998981227 506.813720062 368.779296875 428 c 0
 355.829101562 368.727539062 316.1640625 366.881835938 310.779296875 352 c 0
 290.779296875 341 l 1
 310.231445312 360.963867188 322.779296875 399.892578125 322.779296875 426 c 0
 322.779296875 473.011531465 281.404296875 493.014648438 253.779296875 493.045898438 c 0
 239.455078125 493.0625 220.3984375 487.938476562 212.779296875 477 c 1
 195.779296875 379 l 1
 108.446530331 377.638980263 80.779296875 430.142578125 80.779296875 468 c 0
97.0107421875 176 m 1
 97.0107421875 232 l 1
 105.010742188 216 123.010742188 210 139.010742188 210 c 0
 199.010742188 210 275.010742188 326.519736842 340.010742188 409 c 0
 362.010742188 417 l 1
 458.771709736 525 585.119140625 591 717.010742188 591 c 0
 920.5703125 591 1054.01074219 467.467048891 1054.01074219 281 c 0
 1054.01074219 119.213120214 961.049142419 -22 763.010742188 -22 c 0
 698.870117188 -22 660.010742188 -1 660.010742188 1 c 1
 653.010742188 18.6211914063 666.010742188 70.2520996094 678.010742188 82 c 1
 689.697265625 72.6896551724 717.46484375 52 771.010742188 52 c 0
 834.725103142 52 863.010742188 119.047171027 863.010742188 182 c 0
 863.010742188 329.267299107 727.180664062 454.294921875 547.010742188 440 c 0
 488.615234375 435.3671875 434.440175189 407.001802884 377.010742188 360 c 1
 374.010742188 350 l 1
 312.010742187 268.516615994 246.010742187 167 169.010742188 167 c 0
 145.472280649 167 121.933819111 167 97.0107421875 176 c 1
55.0107421875 244 m 1
 66.0107421875 250 92.0107421875 246 100.010742188 243 c 1
 97.03125 157.433188638 267.041298987 151.420269046 380.010742188 162 c 0
 447.074480298 168.408648655 503.010742188 208.688967406 503.010742188 261 c 0
 503.010742188 313.20887063 461.298056652 338 421.010742188 338 c 4
 388.205115971 338 347.254644625 329.576472356 313.010742188 294 c 1
 357.010742188 357 l 1
 368.041045217 361 399.434984611 394 469.010742188 394 c 0
 575.010742188 394 653.010742188 315 653.010742188 213 c 0
 653.010742188 108 594.69868545 -29 391.010742188 -29 c 0
 225.137324466 -29 52.884159909 92.9332150071 55.0107421875 244 c 1
EndSplineSet
EndChar

StartChar: anusvara
Encoding: 1 3458 10
GlifName: anusvara
Width: 618
VWidth: 30
Flags: HMW
LayerCount: 2
Back
SplineSet
120 255 m 0
 120 165 165 97 284 97 c 0
 374 97 439 175 439 256 c 0
 439 351 376 417 277 417 c 0
 198 417 120 353 120 255 c 0
55 224 m 0
 55 375 173 473 294 473 c 0
 445 473 523 365 523 244 c 0
 523 123 436 5 285 5 c 0
 134 5 55 103 55 224 c 0
EndSplineSet
Fore
SplineSet
55 224 m 0
 55 383 193 473 314 473 c 0
 465 473 553 365 553 244 c 0
 553 123 486 -15 285 -15 c 0
 134 -15 55 103 55 224 c 0
150 250 m 4
 150 180 202 127 281 127 c 4
 371 127 409 191 409 256 c 4
 409 331 350 381 281 381 c 4
 202 381 150 328 150 250 c 4
EndSplineSet
EndChar

StartChar: si_A
Encoding: 3 3461 12
GlifName: si_A_
Width: 818
VWidth: 13
Flags: HMW
LayerCount: 2
Back
SplineSet
30 174 m 0
 30 342 178 413 320 413 c 0
 349 413 373 411 388 409 c 1
 389 492 330 538 266 538 c 0
 261 538 257 538 252 537 c 1
 196 448 l 1
 156 451 129 479 129 510 c 0
 129 582.72265625 192.352539062 609 253 609 c 0
 336 609 429 544 429 438 c 0
 429 398 419 364 419 364 c 1
 402 367 385 368 367 368 c 0
 256 368 129 324 129 191 c 0
 129 82 214 10 389 10 c 0
 529 10 606 56 660 105 c 1
 676 100 696 72 696 55 c 1
 635 8 530 -50 353 -50 c 0
 141 -50 30 60 30 174 c 0
486 -348 m 1
 486 465 l 2
 486 514 488 565 545 598 c 1
 574 577 l 1
 574 522 706 485 706 416 c 0
 706 343 614 272 525 264 c 1
 525 308 l 1
 592 318 632 352 632 408 c 0
 632 476 561 458 539 528 c 9
 539 -348 l 1
 520.720703125 -351.837890625 501.75390625 -353.73828125 486 -348 c 1
EndSplineSet
Fore
SplineSet
40 184 m 4
 40 359.029296875 218 423 360 423 c 4
 389 423 413 421 428 419 c 5
 428 503 390 535 320 541 c 4
 315 541 308 542 303 542 c 5
 249 456 l 5
 197 456 164 490 164 537 c 4
 164 610 224 641 294 641 c 4
 414 641 482 559 482 463 c 4
 482 423 472 364 472 364 c 5
 376.681640625 380.821289062 262 339.76171875 262 209 c 4
 262 106.942382812 361.75 62 472 62 c 4
 590.543945312 62 647.275390625 93.7646484375 693 137 c 5
 709 132 736 92 736 75 c 5
 675 28 570 -40 393 -40 c 4
 131 -40 40 74.8720703125 40 184 c 4
526 -338 m 5
 526 505 l 6
 526 554 547 605 604 638 c 5
 633 617 l 5
 633 562 765 525 765 456 c 4
 765 383 673 312 584 304 c 5
 584 358 l 5
 637.326171875 368 662 392 662 448 c 4
 662 496 601.809570312 519 598 554 c 5
 598 -338 l 5
 580 -342 542 -344 526 -338 c 5
EndSplineSet
EndChar

StartChar: si_I
Encoding: 7 3465 16
GlifName: si_I_
Width: 854
VWidth: 16
Flags: HMW
LayerCount: 2
Back
SplineSet
230 -266 m 5
 230 -266 280 -329 407 -332 c 4
 557 -336 633 -260 632 -179 c 4
 631 -66 458 -48 458 -48 c 29
 367 -59 l 29
 415 -87 l 21
 503 -77 546 -126 547 -177 c 4
 549 -247 478.981445312 -280.374023438 395 -276 c 4
 299 -271 260 -225 260 -225 c 5
 240 -232 229 -252 230 -266 c 5
47 279 m 0
 47 109 189.99811315 48.7294228638 302 48 c 0
 471.999336023 46.8928632721 537 162 539 242 c 0
 541.350585938 336.018554688 478.998046875 392.859375 399 394 c 0
 328 395.012695312 280 343 280 287 c 0
 280 228 330.995266997 184.651581652 403 184 c 0
 489.002594208 183.221749598 512 253 513 260 c 1
 497 302 l 2
 491 275 467 229 414 229 c 0
 376.977539062 229 347 255 347 285 c 0
 347 316 370.875216264 342 407 342 c 0
 457 342 486 301.211914062 486 242 c 0
 486 183 425 102 311 101 c 0
 197 100 109 173 109 282 c 0
 109 434 255 519 403 519 c 0
 582 519 704 402 706 252 c 0
 708 6 501 -57 315 -45 c 5
 305 -68 312 -87 325 -100 c 5
 586 -120 777 37 777 267 c 0
 777 486 619 613 422 613 c 0
 229 613 47 474 47 279 c 0
EndSplineSet
Fore
SplineSet
60 285 m 0
 60 121.772460938 168.48828125 28.6435546875 325 28 c 0
 488.119140625 27.3291015625 560.23046875 139.87109375 562 224 c 0
 563.733398438 306.395507812 503.33203125 361.0234375 434 362 c 0
 363 363 308 319 308 252 c 0
 308 193 355.82421875 144.7109375 417 144 c 0
 503 143 526 213 527 220 c 1
 511 262 l 1
 505 235 481 199 428 199 c 0
 397 199 370 219 370 245 c 0
 370 268 389 293 421 293 c 0
 459 293 494 274 494 215 c 0
 494 169.0078125 446.818359375 96 344 96 c 4
 248.350585938 96 180 149.275390625 180 230 c 0
 180 339 282.384765625 409 418 409 c 0
 574.686523438 409 662 313 662 203 c 0
 662 76.8134765625 538.491210938 -42.279296875 323 -32 c 1
 309 -59.58203125 305 -95.0595703125 318 -110 c 1
 617.797851562 -120 804 48 804 278 c 0
 804 498.032226562 616.11328125 634 435 634 c 0
 236.770507812 634 60 502 60 285 c 0
252 -285 m 1
 252 -285 300.154296875 -348.28125 420 -352 c 0
 557.333007812 -356.26171875 626 -275.293945312 626 -189 c 0
 626 -59 421 -48 421 -48 c 1
 330 -59 l 1
 400 -99 l 1
 451.766601562 -89 513 -135 513 -162 c 0
 513 -206 466.684570312 -239.360351562 403 -239 c 0
 326.9453125 -238.647460938 301 -222 301 -222 c 1
 281 -229 251 -271 252 -285 c 1
EndSplineSet
EndChar

StartChar: si_Ii
Encoding: 8 3466 17
GlifName: si_I_i
Width: 741
VWidth: 25
Flags: HMW
LayerCount: 2
Back
SplineSet
567 641 m 4
 567 672 592 697 623 697 c 4
 654 697 679 672 679 641 c 4
 679 610 654 585 623 585 c 4
 592 585 567 610 567 641 c 4
225 731 m 4
 225 763 251 789 283 789 c 4
 315 789 341 763 341 731 c 4
 341 699 315 673 283 673 c 4
 251 673 225 699 225 731 c 4
EndSplineSet
Refer: 4 3515 N 1 0 0 1 0 0 2
Fore
SplineSet
225 731 m 4
 225 763 251 789 283 789 c 4
 315 789 341 763 341 731 c 4
 341 699 315 673 283 673 c 4
 251 673 225 699 225 731 c 4
567 641 m 4
 567 672 592 697 623 697 c 4
 654 697 679 672 679 641 c 4
 679 610 654 585 623 585 c 4
 592 585 567 610 567 641 c 4
EndSplineSet
Refer: 4 3515 N 1 0 0 1 0 0 2
EndChar

StartChar: si_U
Encoding: 9 3467 18
GlifName: si_U_
Width: 765
VWidth: 13
Flags: HMW
LayerCount: 2
Back
SplineSet
56 38 m 0
 56 274.697265625 234.935546875 405 464 405 c 0
 514 405 574 403 612 397 c 1
 612 402 597 378 596 383 c 1
 597 388 597 393 597 398 c 0
 597 488 512 523 440 523 c 0
 421 523 413 521 398 517 c 1
 342 438 l 1
 304 440 282 469 282 499 c 0
 282 557.971679688 336.125 597 420 597 c 0
 526.836914062 597 632 527.534596052 632 413 c 0
 632 379 626 351 626 351 c 1
 626 349 l 1
 592 352 474.948242188 354.700195312 447 353 c 0
 282.62890625 343 170 237.131835938 170 57 c 0
 170 -108 297 -224 474 -224 c 0
 597 -224 675 -168 716 -121 c 1
 733 -126 750 -148 749 -167 c 1
 720 -195 620.077148438 -281 458 -281 c 0
 179 -281 56 -111 56 38 c 0
EndSplineSet
Fore
SplineSet
46 38 m 0
 46 275 235 405 464 405 c 0
 514 405 578 403 616 397 c 1
 616 402 601 378 600 383 c 1
 601 388 601 393 601 398 c 0
 601 488 532 509 460 513 c 0
 441 514 428 514 413 510 c 5
 356 425 l 1
 318 427 274 454 274 514 c 0
 274 583 335 636 426 636 c 0
 590 636 658 530 658 435 c 0
 658 401 651 337 651 337 c 1
 650 328 l 1
 616 331 495 333 467 332 c 0
 363 327 249 226 249 56 c 0
 249 -109 370 -194 476 -194 c 0
 599 -194 679 -149 720 -102 c 1
 737 -107 768 -136 767 -155 c 1
 738 -183 620 -281 458 -281 c 0
 179 -281 46 -111 46 38 c 0
EndSplineSet
EndChar

StartChar: si_E
Encoding: 15 3473 22
GlifName: si_E_
Width: 880
VWidth: 16
Flags: HMW
LayerCount: 2
Back
SplineSet
73 352 m 1
 68 374 67 393 73 409 c 1
 452 409 l 1
 454 367 l 1
 158 367 l 1
 73 352 l 1
EndSplineSet
Refer: 48 3509 N 1 0 0 1 105 0 2
Fore
SplineSet
60 314 m 1
 55 344 54 391 60 414 c 1
 439 414 l 1
 451 362 l 1
 185 358 l 1
 60 314 l 1
EndSplineSet
Refer: 48 3509 N 1 0 0 1 105 0 2
EndChar

StartChar: si_Os
Encoding: 18 3476 25
GlifName: si_O_s
Width: 863
VWidth: 6
Flags: HMW
LayerCount: 2
Back
SplineSet
55 272 m 4
 55 171 81 -10 263 -10 c 4
 372 -10 419 62 435 141 c 5
 400 141 l 5
 405 51 464 -12 562 -12 c 4
 757 -12 808 212 808 349 c 4
 808 557 675 768 402 768 c 4
 253 768 171 702 171 702 c 5
 167 671 180 649 196 642 c 5
 199 642 270 710 412 710 c 4
 648 710 739 540 739 360 c 4
 739 251 700 84 565 84 c 4
 505 84 445 121 438 206 c 5
 426 210 411 206 401 202 c 5
 398 123 336 87 272 87 c 4
 179 87 116 153 116 307 c 4
 116 372 149 472 210 472 c 4
 230 472 245 452 246 403 c 4
 248 275 342 236 427 236 c 4
 538 236 604 325 604 410 c 4
 604 487 552 554 456 554 c 4
 382 554 339 502 339 448 c 4
 339 387 386 362 428 362 c 4
 488 362 520 410 520 460 c 4
 520 484 510 509 494 524 c 5
 468 525 l 5
 479 507 485 488 485 466 c 4
 485 439 467 408 432 408 c 4
 398 408 386 434 386 452 c 4
 386 487 408 514 442 519 c 4
 518 530 567 476 566 408 c 4
 565 341 513 294 428 292 c 4
 368 291 286 305 284 434 c 4
 283 489 250 513 217 512 c 4
 107 508 55 388 55 272 c 4
EndSplineSet
Fore
SplineSet
40 244 m 0
 51 58 138 -10 263 -10 c 0
 372 -10 419 62 435 141 c 1
 400 141 l 1
 405 51 464 -12 562 -12 c 0
 757 -12 808 212 808 349 c 0
 808 557 675 768 402 768 c 0
 253 768 171 702 171 702 c 1
 167 671 180 649 196 642 c 1
 199 642 270 700 412 700 c 0
 648 700 710 540 710 360 c 0
 710 251 670 126 532 126 c 0
 490 126 445 150 438 206 c 1
 426 210 411 206 401 202 c 1
 398 153 368 125 304 125 c 0
 179 125 144 238 144 310 c 0
 144 375 161 452 210 452 c 0
 230 452 239 442 239 396 c 0
 239 278 342 236 427 236 c 0
 538 236 611 322 611 407 c 0
 611 501 552 564 456 564 c 0
 382 564 333 511 333 447 c 0
 333 386 386 356 428 356 c 0
 488 356 525 400 525 460 c 0
 525 484 517 510 494 524 c 1
 468 525 l 1
 479 507 488 491 488 469 c 0
 488 439 470 410 432 410 c 0
 407 410 392 434 392 452 c 0
 392 487 420 519 454 519 c 0
 518 519 560 490 560 412 c 0
 560 355 513 299 428 299 c 0
 368 299 293 309 291 438 c 0
 290 493 250 512 217 512 c 0
 107 512 32 390 40 244 c 0
EndSplineSet
EndChar

StartChar: si_Kha
Encoding: 22 3483 28
GlifName: si_K_ha
Width: 886
VWidth: 6
Flags: HMW
LayerCount: 2
Back
SplineSet
50 181 m 0
 50 356 167 453 309 455 c 0
 393 456 531 400 531 224 c 0
 531 144 502 98 481 60 c 1
 491 132 l 1
 504 99 514 80 574 80 c 0
 675 80 738 204 738 366 c 0
 738 569 634 701 384 701 c 0
 260 701 164 633 162 633 c 0
 147 641 131 666 134 690 c 1
 134 690 243 763 396 763 c 0
 611 763 811 616 811 362 c 0
 811 144 727 -25 561 -25 c 0
 491 -25 439 -3 435 58 c 1
 474 34 l 1
 462 12 452 -4 418 -62 c 1
 378 -41 l 1
 417 19 476 116 470 208 c 0
 464 306 371 360 296 360 c 0
 193 360 103 292 103 159 c 0
 103 76 140 22 212 22 c 0
 253 22 272 55 272 82 c 0
 272 115 252 141 220 141 c 0
 195 141 171 121 171 84 c 0
 171 57 187 23 230 18 c 1
 230 7 l 1
 161 9 129 46 129 87 c 0
 129 144 170 200 235 200 c 0
 291 200 334 157 334 91 c 0
 334 39 295 -29 214 -29 c 0
 94 -29 50 88 50 181 c 0
EndSplineSet
Fore
SplineSet
22 201 m 4
 22 396 147 524 319 524 c 4
 425 524 569 449 569 250 c 4
 569 136 520 94 499 56 c 5
 499 206 l 5
 513 175 522 144 582 144 c 4
 683 144 738 244 738 406 c 4
 738 609 634 734 394 734 c 4
 270 734 140 636 138 636 c 4
 123 644 107 689 110 713 c 5
 110 713 243 803 396 803 c 4
 621 803 851 684 851 352 c 4
 851 134 751 -42 585 -42 c 4
 515 -42 458 -16 442 26 c 5
 487 26 l 5
 475 4 457 -23 423 -81 c 5
 370 -52 l 5
 409 8 476 116 470 208 c 4
 464 306 371 350 296 350 c 4
 193 350 93 292 93 159 c 4
 93 76 130 22 202 22 c 4
 243 22 271 65 271 92 c 4
 271 128 249 161 217 161 c 4
 192 161 160 137 160 100 c 4
 160 73 177 23 220 18 c 5
 220 -3 l 5
 151 -1 109 46 109 117 c 4
 109 184 160 228 225 228 c 4
 281 228 334 185 334 94 c 4
 334 42 285 -29 204 -29 c 4
 84 -29 22 108 22 201 c 4
EndSplineSet
EndChar

StartChar: si_Ga
Encoding: 23 3484 29
GlifName: si_G_a
Width: 1036
VWidth: 6
Flags: HMW
LayerCount: 2
Back
SplineSet
410 218 m 1
 416 462 540 583 695 583 c 0
 877 583 962 440 962 297 c 0
 962 130 880 -26 699 -27 c 0
 650 -27 618 -20 601 -10 c 1
 594 -2 590 29 610 49 c 1
 628 36 661 27 706 28 c 0
 837 31 891 127 891 260 c 0
 891 391 804 491 682 491 c 0
 570 491 453 421 447 218 c 1
 435 216 422 215 410 218 c 1
55 249 m 4
 55 468.333333333 217 576.041666667 343 578 c 1
 351 559 345 520 339 511 c 1
 254 511 126 456.75 122 294 c 4
 119 168.170403587 198 67.0941704036 330 64 c 0
 437 62 515 114 515 212 c 0
 515 267 474 307 435 307 c 1
 446 351 l 1
 493 350 567 305 567 205 c 0
 567 86 483 -25 329 -25 c 0
 162 -25 55 89.936329588 55 249 c 4
EndSplineSet
Fore
SplineSet
46 260 m 0
 46 481.547337278 227 585.065088757 363 587 c 1
 391.20806744 584.491403019 394.293640136 521.993896484 382 512 c 1
 290.064516129 522.581886057 172 463.639344262 172 335 c 0
 172 235.045454545 257.04296875 171 375 171 c 0
 468.193359375 171 505 200.645507812 505 240 c 0
 505 277 465 295 436 295 c 1
 443 358 l 1
 510 357 594 324 594 213 c 0
 594 84 483 -25 329 -25 c 0
 150 -25 46 101 46 260 c 0
380 248 m 5
 380 483.556122449 531.624023438 585 677 585 c 4
 860.27734375 585 970 452.682692308 970 288 c 4
 970 106.753846154 867.073954984 -27 679 -27 c 4
 640 -27 608 -20 591 -10 c 5
 584 -4.10101010101 582 38.2525252525 600 63 c 5
 618 50 643.044506825 40.7590603652 680 42 c 4
 735.597219194 43.8669157669 791 89.27734375 791 194 c 4
 791 314 703.49609375 401 587 401 c 4
 530.858398438 401 438 373.850516754 438 248 c 5
 426 246 392 245 380 248 c 5
EndSplineSet
EndChar

StartChar: si_Gha
Encoding: 24 3485 30
GlifName: si_G_ha
Width: 915
VWidth: 6
Flags: HMW
LayerCount: 2
Back
SplineSet
38 352 m 1
 32 365 25 387 38 410 c 5
 417 410 l 5
 417 366 l 1
 123 366 l 1
 38 352 l 1
101 180 m 0
 101 293 200 377 236 377 c 2
 326 377 l 1
 240 363 163 307 163 215 c 0
 163 143 219 92 312 92 c 0
 353 92 410 117 415 148 c 1
 394 162 371 175 371 205 c 0
 371 242 414 272 484 272 c 0
 553 272 590 240 590 203 c 0
 590 172 560 159 548 152 c 1
 551 124 622 94 665 94 c 0
 746 94 801 145 801 229 c 0
 801 316 744 377 646 377 c 0
 615 377 580 371 542 358 c 1
 537 382 532 406 532 432 c 0
 532 533 597 596 695 596 c 0
 771 596 830 551 830 482 c 0
 830 386 737 360 737 360 c 1
 721 369 l 1
 721 369 760 405 760 454 c 0
 760 493 730 539 670 539 c 0
 625 539 568 500 568 430 c 0
 568 393 578 383 578 383 c 1
 547 403 l 1
 580 414 l 1
 600 419 623 422 647 422 c 0
 746 422 865 372 865 216 c 0
 865 94 790 -5 659 -5 c 0
 554 -5 521 53 506 157 c 1
 506 157 535 185 535 203 c 0
 535 226 486 227 482 227 c 0
 473 227 437 225 427 205 c 0
 426 204 426 202 426 200 c 0
 426 183 461 158 461 157 c 0
 444 56 397 -5 292 -5 c 0
 162 -5 101 83 101 180 c 0
155 506 m 0
 155 573 227 598 280 598 c 0
 365 598 436 546 436 453 c 0
 436 410 427 387 419 367 c 1
 393 394 l 1
 394 405 395 415 395 424 c 0
 395 492 333 539 263 539 c 1
 209 449 l 1
 179 452 155 469 155 506 c 0
EndSplineSet
Fore
SplineSet
20 323 m 1
 15 353 14 400 20 423 c 1
 429 423 l 1
 441 368 l 1
 155 368 l 1
 20 323 l 1
101 180 m 0
 101 293 180 379 236 377 c 2
 326 374 l 1
 240 360 205 310 205 238 c 0
 205 186 247 144 300 144 c 0
 351 144 389 164 415 188 c 1
 394 192 371 213 371 243 c 0
 371 280 413 322 483 322 c 0
 552 322 590 276 590 239 c 0
 590 208 560 193 548 186 c 1
 562 161 625 144 658 144 c 0
 721 144 765 184 765 245 c 0
 765 322 728 382 630 382 c 0
 600 382 575 377 541 363 c 1
 536 394 531 418 531 452 c 0
 531 559 609 627 705 628 c 0
 785 629 863 588 863 503 c 0
 863 407 760 381 760 381 c 1
 744 381 l 1
 744 381 769 407 769 439 c 0
 769 478 730 523 672 523 c 0
 622 523 585 499 584 448 c 0
 584 423 590 410 595 404 c 1
 562 420 l 1
 580 425 614 445 664 444 c 0
 763 444 885 372 885 216 c 0
 885 94 800 -5 669 -5 c 0
 554 -5 507 83 492 187 c 1
 492 187 535 214 535 232 c 0
 535 255 486 257 482 257 c 0
 476 257 426 255 426 230 c 4
 426 213 474 188 474 187 c 0
 457 86 397 -5 292 -5 c 0
 162 -5 101 83 101 180 c 0
146 530 m 0
 146 606 220 635 275 635 c 0
 374 635 458 579 458 480 c 0
 458 419 449 396 441 368 c 1
 401 415 l 1
 402 429 406 440 406 451 c 0
 406 510 343 536 285 536 c 1
 231 450 l 1
 184 454 146 478 146 530 c 0
EndSplineSet
EndChar

StartChar: si_Nga
Encoding: 25 3486 31
GlifName: si_N_ga
Width: 830
VWidth: 16
Flags: HMW
LayerCount: 2
Back
SplineSet
50 161 m 0
 50 381 267 410 395 381 c 5
 386 340 l 1
 290 360 121 332 121 206 c 0
 121 140 164 91 242 91 c 0
 314 91 376 131 376 225 c 1
 383 229 408 233 415 228 c 1
 415 133 481 91 560 91 c 0
 644 91 703 187 703 360 c 0
 703 567 586 715 369 715 c 0
 280 715 209 685 168 660 c 1
 155 669 146 705 157 728 c 1
 214 755 273 769 370 769 c 0
 597 769 774 605 774 347 c 0
 774 181 719 -12 550 -12 c 0
 474 -12 414 19 392 81 c 1
 369 13 299 -12 240 -12 c 0
 142 -12 50 40 50 161 c 0
114 472 m 0
 114 539 186 564 239 564 c 0
 329 564 399 509 399 409 c 0
 399 375 393 359 387 340 c 1
 354 362 l 1
 356 373 357 383 357 393 c 0
 357 457 311 498 237 498 c 0
 231 498 225 498 218 497 c 1
 168 415 l 1
 138 418 114 435 114 472 c 0
EndSplineSet
Fore
SplineSet
40 171 m 0
 40 391 267 410 395 381 c 1
 386 340 l 1
 290 360 141 335 141 229 c 0
 141 183 187 154 240 154 c 0
 312 154 371 188 371 272 c 1
 378 276 417 280 424 275 c 5
 424 160 520 154 549 154 c 0
 637 154 693 227 693 360 c 0
 693 567 576 705 369 705 c 0
 280 705 209 685 168 660 c 1
 155 669 142 709 153 732 c 1
 210 759 273 776 370 776 c 0
 597 776 784 605 784 347 c 0
 784 181 719 -18 550 -18 c 0
 474 -18 414 19 392 81 c 1
 369 13 299 -18 240 -18 c 0
 142 -18 40 50 40 171 c 0
102 475 m 0
 102 556 184 574 237 574 c 0
 327 574 399 510 399 410 c 0
 399 376 392 360 386 341 c 1
 346 363 l 1
 348 374 349 384 349 394 c 0
 349 458 310 486 236 486 c 0
 230 486 224 486 217 485 c 1
 170 405 l 1
 124 408 102 438 102 475 c 0
EndSplineSet
EndChar

StartChar: si_Nnga
Encoding: 26 3487 32
GlifName: si_N_nga
Width: 1158
VWidth: 6
Flags: HMW
LayerCount: 2
Back
SplineSet
55 256 m 0
 55 462 219 584 379 584 c 0
 412 584 432 582 465 578 c 1
 441 522 l 25
 329 530 l 17
 194 488 123 414 118 268 c 0
 115 191 149 86 196 49 c 1
 191 25 179 2 155 -0 c 1
 91 48 55 154 55 256 c 0
EndSplineSet
Refer: 29 3484 N 1 0 0 1 142 0 2
Fore
SplineSet
103 266 m 0
 103 472 267 594 427 594 c 0
 460 594 480 592 513 588 c 1
 489 532 l 25
 377 540 l 17
 242 498 171 424 166 278 c 0
 163 201 197 96 244 59 c 1
 239 35 227 12 203 10 c 1
 139 58 103 164 103 266 c 0
EndSplineSet
Refer: 29 3484 S 1 0 0 1 142 0 2
EndChar

StartChar: si_Cha
Encoding: 28 3489 33
GlifName: si_C_ha
Width: 855
VWidth: 6
Flags: HMW
LayerCount: 2
Back
SplineSet
429 466 m 0
 430 555 512 597 573 597 c 0
 683 597 737 519 737 437 c 0
 737 306 668 259 604 259 c 0
 524 259 501 333 499 392 c 0
 493 587 631 756 823 811 c 1
 837 803 856 776 850 748 c 1
 684 708 572 595 549 454 c 0
 534 363 554 303 607 304 c 0
 665 305 693 352 693 428 c 0
 693 471 666 547 561 547 c 0
 508 547 467 509 467 459 c 0
 467 407 482 392 482 392 c 1
 444 373 l 1
 436 398 429 424 429 466 c 0
45 207 m 0
 45 365 189 427 296 427 c 0
 305 427 313 427 321 426 c 1
 297 387 l 1
 303 404 314 423 314 446 c 0
 314 503 265 536 210 536 c 0
 199 536 187 535 176 532 c 1
 209 553 l 1
 154 451 l 1
 114 453 88 476 88 510 c 0
 88 562 147 599 207 599 c 0
 281 599 351 557 351 473 c 0
 351 439 345 409 337 375 c 1
 323 377 309 378 296 378 c 0
 194 378 117 315 117 238 c 0
 117 154 199 68 393 67 c 0
 589 66 675 158 675 249 c 0
 675 292 625 375 447 375 c 1
 467 421 l 1
 492 422 517 425 540 422 c 0
 647 409 741 351 741 230 c 0
 741 60 570 -29 388 -29 c 0
 195 -29 45 62 45 207 c 0
EndSplineSet
Fore
SplineSet
45 207 m 0
 45 365 206 427 326 427 c 0
 335 427 343 427 351 426 c 1
 326 415 l 1
 332 432 331 428 331 451 c 0
 331 497 286 521 236 525 c 0
 225 526 214 526 201 526 c 1
 238 552 l 1
 166 440 l 1
 150 441 81 449 81 520 c 0
 81 593 150 625 210 625 c 0
 322 625 383 566 383 471 c 0
 383 444 378 395 367 365 c 1
 353 367 339 368 326 368 c 0
 230 368 157 314 157 248 c 0
 157 184 236 119 423 118 c 0
 619 117 705 183 705 249 c 0
 705 334 622 368 544 368 c 0
 523 368 485 370 447 361 c 1
 467 422 l 1
 489 428 560 426 580 426 c 0
 720 426 826 354 826 230 c 0
 826 53 629 -39 420 -39 c 0
 209 -39 45 56 45 207 c 0
429 466 m 0
 429 575 541 619 602 619 c 0
 712 619 789 527 789 435 c 0
 789 304 716 253 642 253 c 0
 562 253 518 327 518 406 c 0
 518 591 626 762 818 817 c 1
 832 809 856 776 850 748 c 1
 684 708 599 599 576 458 c 0
 560 360 592 306 648 306 c 0
 706 306 720 354 720 430 c 0
 720 463 691 545 586 545 c 0
 533 545 485 502 485 452 c 0
 485 420 503 395 503 395 c 1
 447 361 l 1
 436 383 429 424 429 466 c 0
EndSplineSet
EndChar

StartChar: si_Ja
Encoding: 29 3490 34
GlifName: si_J_a
Width: 841
VWidth: 6
Flags: HMW
LayerCount: 2
Back
SplineSet
519 392 m 1
 513 587 651 756 843 811 c 5
 858 801 872 773 870 748 c 5
 704 708 592 595 569 454 c 0
 566 438 565 423 565 409 c 1
 519 392 l 1
EndSplineSet
Refer: 1 3508 N 1 0 0 1 0 0 2
Fore
SplineSet
479 392 m 1
 444.449047767 640.412653998 602.818683909 798.809137566 783 861 c 5
 809.111111111 843.063492063 833.481481481 792.841269841 830 748 c 5
 664 728 525.328118264 604.416630741 529 454 c 4
 529.397270578 437.726027649 525 423 525 409 c 1
 479 392 l 1
EndSplineSet
Refer: 1 3508 N 1 0 0 1 0 0 2
EndChar

StartChar: si_Ttha
Encoding: 35 3496 39
GlifName: si_T_tha
Width: 916
VWidth: 16
Flags: HMW
LayerCount: 2
Back
SplineSet
358 764 m 1
 397 778 l 5
 485 746 467 646 499 586 c 0
 529 531 612 522 705 563 c 1
 728 526 l 1
 655 479 497 451 445 556 c 0
 412 621 420 728 358 764 c 1
50 223 m 0
 50 398 196 521 320 521 c 1
 327 507 334 482 326 452 c 1
 213 452 110 393 110 250 c 0
 110 140 167 74 258 74 c 0
 338 74 383 131 383 218 c 1
 396 223 411 226 424 223 c 1
 424 124 486 70 567 70 c 0
 684 70 732 228 732 365 c 0
 734 611 534 735 358 763 c 1
 358 779 353 795 368 811 c 5
 629 771 803 582 802 351 c 0
 802 185 744 -30 563 -30 c 0
 462 -30 397 24 393 107 c 1
 411 107 l 1
 413 31 350 -29 264 -30 c 0
 133 -31 50 67 50 223 c 0
EndSplineSet
Fore
SplineSet
50 223 m 0
 50 398 184 521 338 521 c 1
 345 507 352 482 344 452 c 1
 231 452 141 412 141 269 c 0
 141 208 189 144 260 144 c 0
 340 144 378 190 378 267 c 1
 391 272 426 275 439 272 c 1
 439 173 490 144 558 144 c 0
 685 144 720 303 720 399 c 0
 720 591 564 758 388 786 c 1
 380 802 383 825 398 841 c 1
 659 801 833 555 833 324 c 0
 833 158 758 -30 559 -30 c 0
 468 -30 397 24 393 107 c 1
 417 107 l 1
 419 31 350 -29 264 -30 c 0
 133 -31 50 67 50 223 c 0
388 787 m 1
 427 798 l 1
 515 766 497 676 529 616 c 0
 559 561 643 542 735 593 c 1
 760 553 l 1
 684 441 514 446 461 550 c 0
 428 615 450 751 388 787 c 1
EndSplineSet
EndChar

StartChar: si_Dda
Encoding: 36 3497 40
GlifName: si_D_da
Width: 935
VWidth: 16
Flags: HMW
LayerCount: 2
Back
SplineSet
30 393 m 5
 439 393 l 5
 451 338 l 5
 165 338 l 5
 30 293 l 5
 20.970703125 321.197265625 14.3701171875 370.28515625 30 393 c 5
121 162 m 0
 123 301 264 381 375 382 c 1
 365 350 l 1
 274 350 191 267 191 190 c 0
 191 131 240 74 319 74 c 0
 399 74 444 131 444 218 c 1
 457 223 472 226 485 223 c 1
 485 124 537 70 618 70 c 0
 735 70 793 221 793 358 c 0
 793 595 656 710 453 710 c 0
 313 710 218 638 215 638 c 1
 200 654 194 684 199 704 c 1
 251 736 341 769 467 769 c 0
 689 769 861 605 861 358 c 0
 861 192 795 -30 614 -30 c 0
 513 -30 458 24 454 107 c 1
 472 107 l 1
 474 21 401 -29 315 -30 c 0
 203 -31 119 43 121 162 c 0
40 386 m 1
 454 383 l 1
 449 341 l 1
 146 341 l 1
 42 324 l 1
 31 338 24 367 40 386 c 1
179 469 m 0
 179 536 248 560 301 560 c 0
 391 560 462 510 462 410 c 0
 462 376 455 360 449 341 c 1
 416 363 l 1
 418 374 419 384 419 394 c 0
 419 458 373 494 299 494 c 0
 293 494 287 494 280 493 c 1
 233 415 l 1
 203 418 179 432 179 469 c 0
EndSplineSet
Fore
SplineSet
30 293 m 1
 22 312 14 374 30 393 c 1
 464 393 l 1
 459 324 l 1
 163 321 l 1
 30 293 l 1
121 152 m 0
 123.183864418 310.997580913 264 369 375 370 c 1
 365 324 l 1
 274 324 221 287 221 230 c 0
 221 191 265.006733663 162.057239052 331 163 c 0
 401 164 454 210 454 267 c 1
 467 272 505 275 518 272 c 1
 518 203 563 164 644 164 c 0
 753 164 783.352298518 301.151323675 781 398 c 0
 776.476912519 584.224253465 666 698 453 698 c 0
 313 698 218 628 215 628 c 1
 200 644 191 696 196 716 c 1
 248 748 348 789 474 789 c 0
 736 789 902 621 902 344 c 0
 902 178 857 -40 645 -40 c 4
 553 -40 482 24 478 107 c 1
 496 107 l 1
 498 21 419.002929688 -39.294921875 333 -40 c 0
 211 -41 119.502929688 43.0048828125 121 152 c 0
165 465 m 0
 165 546 242 584 305 584 c 0
 405 584 472 510 472 410 c 0
 472 376 465 343 459 324 c 1
 399 363 l 1
 401 374 402 384 402 394 c 0
 402 458 353 486 299 486 c 0
 293 486 287 486 280 485 c 1
 233 405 l 1
 197 408 165 428 165 465 c 0
EndSplineSet
EndChar

StartChar: si_Nna
Encoding: 38 3499 42
GlifName: si_N_na
Width: 1393
VWidth: 30
Flags: HMW
LayerCount: 2
Back
SplineSet
798.5 286 m 5
 789.385575457 378.783750495 843.741149573 452 904.5 452 c 4
 961.319291352 452 1001.55579494 407.153440505 998.5 334 c 5
 985.5 323 l 5
 994.022875817 453.052584135 1067.91993464 516 1148.5 516 c 4
 1232.66342747 516 1321.5 444.879377432 1321.5 269 c 4
 1321.5 125.190311419 1271.5 -30 1115.5 -30 c 4
 1046.5 -30 946.5 8 946.5 162 c 5
 965.5 170 985.5 167 993.5 162 c 5
 994.5 66.8455284553 1053.5 29 1110.5 29 c 4
 1204.5 29 1235.71939194 143.44487435 1237.5 239 c 4
 1240.22200787 385.074709323 1185.10986328 442 1122.5 442 c 4
 1069.42903191 442 1024.5 373.711365582 1024.5 258 c 5
 1017.5 239.922701322 985.5 237.615009014 973.5 243 c 5
 972.348484848 329.735076122 955.082809714 378.674944716 897.5 379 c 4
 847.850193299 379.280273438 815.415431701 317.116338315 803.5 215 c 5
 798.5 286 l 5
294.5 339 m 256
 294.5 489.349609375 430.821302591 574.383255106 541.5 571 c 256
 705.068359375 566 810.5 458.420898438 810.5 274 c 256
 810.5 151.370117188 719.244140625 -35 517.5 -35 c 256
 261.552734375 -35 245.359375 164 106.5 164 c 256
 87.158203125 164 76.912109375 159.508789062 59.5 154 c 1
 92.5 169 l 1
 83.30859375 160.87109375 58.9990234375 131.4609375 53.5 122 c 257
 38.0517578125 128.515625 21.5 146.7578125 21.5 165 c 257
 77.8474651185 230.360967221 225.000855426 395.796532136 359.5 532 c 0
 501.712715736 676.01478254 699.658351289 837.874872751 756.5 879 c 257
 781.892949695 869.887057231 804.5 835.791015625 804.5 817 c 257
 670.9951539 738.616210938 565.449313507 655.676411549 382.5 485 c 0
 274.222637195 385.196602842 166.870109675 257.79006208 108.5 189 c 1
 76.5 194 l 257
 87.353515625 197.819335938 99.6044992781 211.321698796 131.5 210.76953125 c 0
 261.864257812 208.512695312 289.545898438 61 500.5 61 c 256
 678.032226562 61 749.5 174.966796875 749.5 294 c 256
 749.5 438.220703125 642.025397081 505.000133667 538.5 510 c 256
 404.96484375 516.44921875 347.5 434.750976562 347.5 351 c 256
 347.5 229.654296875 446.193359375 197 496.5 197 c 0
 537.272460938 197 565.5 228.064453125 565.5 268 c 256
 565.5 294.759765625 547.88671875 314 514.5 314 c 256
 476.752929688 314 460.5 288.036132812 460.5 249 c 256
 460.5 210.061523438 482.375 185 509.5 185 c 257
 509.5 155 l 257
 464.178710938 155 412.5 186.745117188 412.5 246 c 256
 412.5 322.711914062 460.684570312 368 521.5 368 c 256
 589.748046875 368 631.5 327 631.5 269 c 256
 631.5 211.333984375 591.543949801 140.981652241 498.5 143 c 256
 382.622070312 145.513671875 294.5 227.936523438 294.5 339 c 256
EndSplineSet
Fore
SplineSet
798.5 286 m 1
 789.385575457 378.783750495 843.741149573 452 904.5 452 c 0
 961.319291352 452 1001.55579494 407.153440505 998.5 334 c 1
 985.5 323 l 1
 994.022875817 453.052584135 1067.91993464 516 1148.5 516 c 0
 1237.52836547 516 1331.5 444.879377432 1331.5 269 c 0
 1331.5 120.380622837 1271.79126214 -40 1085.5 -40 c 0
 1016.5 -40 916.5 -0.0208333333333 916.5 162 c 1
 947.627659574 170 980.393617021 167 993.5 162 c 1
 994.243589744 81.1544715447 1038.11538462 49 1080.5 49 c 0
 1137.49212598 49 1155.9028468 152.551712443 1157.5 239 c 0
 1159.03852619 334.704119901 1127.8881836 372 1092.5 372 c 0
 1055.67524663 372 1024.5 325.979398545 1024.5 248 c 1
 1017.5 229.922701322 985.5 227.615009014 973.5 233 c 1
 972.272727273 281.469601362 941.409268752 308.737360715 892.5 309 c 0
 845.49149513 309.252432319 814.781632142 273.530096351 803.5 215 c 1
 798.5 286 l 1
294.5 359 m 256
 294.5 502.869022764 430.836463064 584.724487806 541.5 581 c 256
 705.068359375 575.494949495 810.5 457.049272018 810.5 254 c 256
 810.5 138.513605507 722.358675075 -37 527.5 -37 c 256
 275.56861599 -37 289.711184611 164 106.5 164 c 256
 87.158203125 164 76.912109375 159.508789062 59.5 154 c 1
 92.5 169 l 1
 83.30859375 160.87109375 58.9990234375 131.4609375 53.5 122 c 257
 38.0517578125 128.515625 21.5 146.7578125 21.5 165 c 257
 77.8474651185 228.580014436 210.143314576 379.418072014 359.5 522 c 0
 510.65552571 666.299173621 711.653859899 836.689710582 770.5 879 c 257
 815.940015244 868.417227752 838.5 828.821269133 838.5 807 c 257
 696.046635466 728.616587358 585.269469707 637.392720389 399.5 475 c 0
 293.184993592 382.063398867 194.100724909 255.466073496 138.5 189 c 1
 106.5 194 l 257
 119.326882102 200.096880779 133.797667115 221.215016635 171.5 220.76953125 c 0
 269.403940141 219.612712265 295.851947139 156 500.5 144 c 256
 635.022309352 136.111981083 689.5 246.93429788 689.5 334 c 256
 689.5 451.513165509 607.021703574 506.437329133 527.5 510 c 256
 401.655350131 515.637996266 347.5 444.216262529 347.5 371 c 256
 347.5 281.172661323 439.569643981 257 486.5 257 c 0
 527.272460938 257 555.5 288.064453125 555.5 328 c 256
 555.5 354.759765625 537.88671875 374 504.5 374 c 256
 466.752929688 374 450.5 348.036132812 450.5 309 c 256
 450.5 270.061523438 472.375 245 499.5 245 c 257
 499.5 215 l 257
 449.973642881 215 393.5 250.233591604 393.5 316 c 256
 393.5 397.742203509 445.663112815 446 511.5 446 c 256
 582.229794034 446 625.5 397.545454545 625.5 329 c 256
 625.5 266.757316468 584.35379221 191.420755335 488.5 193 c 256
 359.28275314 195.12892618 294.5 264.936035157 294.5 359 c 256
EndSplineSet
EndChar

StartChar: si_Tha
Encoding: 41 3502 44
GlifName: si_T_ha
Width: 802
VWidth: 16
Flags: HMW
LayerCount: 2
Back
SplineSet
302 764 m 1
 341 778 l 1
 429 746 411 646 443 586 c 0
 473 531 556 522 649 563 c 1
 672 526 l 1
 599 479 441 451 389 556 c 0
 356 621 364 728 302 764 c 1
50 253 m 0
 50 432 183 531 315 531 c 1
 321 521 327 485 320 466 c 1
 185 466 107 389 107 279 c 0
 107 153 217 64 391 64 c 0
 586 64 673 226 675 376 c 0
 677 622 478 735 302 763 c 1
 302 779 297 795 312 811 c 1
 573 771 747 591 747 361 c 0
 747 131 606 -36 389 -36 c 0
 155 -36 50 108 50 253 c 0
EndSplineSet
Fore
SplineSet
42 253 m 0
 42 448 173 527 315 527 c 5
 321 517 327 485 320 466 c 1
 195 466 132 391 132 304 c 0
 132 198 258 146 390 146 c 0
 585 146 648 266 648 376 c 0
 648 622 478 725 302 753 c 1
 302 769 297 795 312 811 c 1
 573 771 747 591 747 361 c 0
 747 131 606 -36 389 -36 c 0
 155 -36 42 108 42 253 c 0
302 754 m 1
 341 774 l 1
 426 755 420 649 453 589 c 0
 483 534 573 536 645 575 c 1
 674 522 l 1
 601 475 435 433 382 537 c 0
 349 602 364 718 302 754 c 1
EndSplineSet
EndChar

StartChar: si_Da
Encoding: 42 3503 45
GlifName: si_D_a
Width: 661
VWidth: -17
Flags: HMW
LayerCount: 2
Back
SplineSet
45 193 m 0
 45 351 211 424 404 424 c 0
 462 424 503 415 503 415 c 1
 503 417 492 405 492 408 c 0
 492 495 399 529 340 529 c 0
 333 529 327 529 322 528 c 1
 266 439 l 1
 227 442 207 471 207 501 c 0
 207 571 277 601 340 601 c 0
 425 601 527 549 527 440 c 0
 527 400 519 376 517 373 c 1
 484 376 453 377 425 377 c 0
 244 377 155 321 155 213 c 0
 155 120 238 52 372 52 c 0
 425 52 506 67 553 91 c 1
 565 87 568 59 563 49 c 1
 470 8 430 -66 418 -118 c 0
 414 -134 411 -153 411 -174 c 0
 411 -233 437 -304 549 -330 c 1
 548 -340 539 -351 526 -359 c 1
 517 -360 508 -361 500 -361 c 0
 375 -361 320 -263 320 -195 c 0
 320 -111 376 -3 513 46 c 1
 497 32 l 1
 430 6 365 -6 306 -6 c 0
 155 -6 45 72 45 193 c 0
EndSplineSet
Fore
SplineSet
318 557 m 0
 272 439 l 1
 208.926605504 437.183486239 147 471.697247706 147 538 c 0
 147 587.813953488 195.867549668 657 304 657 c 0
 422.188405797 657 537 581.947368421 537 450 c 0
 537 410 529 369 527 366 c 1
 497.586956522 369 469.956521739 370 445 370 c 0
 339.336842105 370 305 279.753282205 305 222 c 0
 305 148.737114378 369.454742406 92 432 92 c 0
 473.287292818 92 536.386740331 107 573 131 c 1
 585 127 608 99 603 89 c 1
 510 48 460.943315331 -56.226738675 448 -108 c 0
 444 -124 441 -143 441 -164 c 0
 441 -223 457 -294 569 -320 c 1
 568 -330 559 -361 546 -369 c 1
 537 -370 528 -371 520 -371 c 0
 365.130434783 -371 260 -278 260 -185 c 0
 260 -52.4944649446 400.432098765 10.6457564576 533 56 c 1
 517 42 l 1
 450 16 385 4 326 4 c 0
 185 4 55 62 55 203 c 0
 55 361 221 434 414 434 c 0
 472 434 495 425 495 425 c 1
 495 427 484 415 484 418 c 0
 484 517.94214876 391.089552239 557 318 557 c 0
EndSplineSet
EndChar

StartChar: si_Dha
Encoding: 43 3504 46
GlifName: si_D_ha
Width: 885
VWidth: 16
Flags: HMW
LayerCount: 2
Back
SplineSet
57 211 m 4
 57 400.848632812 201.3203125 501 331 501 c 4
 391 501 422 482 422 482 c 5
 427.5 468.444335938 425 439.599609375 416 429 c 5
 390.475585938 440 358.29296875 445 325 445 c 4
 225.569335938 445 124 363.774414062 124 234 c 4
 124 143.193359375 181.466796875 75 278 75 c 4
 362.48046875 75 412 131 412 218 c 5
 425 223 441 226 454 223 c 5
 454 137 500.483398438 70 594 70 c 4
 712.283203125 70 769 198.173828125 769 346 c 4
 769 589.733398438 599.237304688 705 379 705 c 4
 241.94140625 705 148.936523438 633 146 633 c 5
 131 649 135 679 140 699 c 5
 191.030273438 731 269.350585938 764 393 764 c 4
 647.033203125 764 836 601.009765625 836 348 c 4
 836 160.325195312 769.822265625 -30 592 -30 c 4
 486.396484375 -30 420.861328125 31.2119140625 421 106 c 5
 440 107 l 5
 441.963867188 38 376.029296875 -28.3857421875 282 -29 c 4
 140.4140625 -29.8583984375 57 66.830078125 57 211 c 4
EndSplineSet
Fore
SplineSet
47 245 m 0
 47 433.5390625 182.366210938 533 304 533 c 0
 367.296875 533 400 514 400 514 c 1
 404.880859375 498.532226562 405 462.799804688 390 450 c 1
 363.353515625 461.6875 329.756835938 467 295 467 c 0
 222.282226562 467 148 415.416015625 148 333 c 0
 148 272.091796875 196.510742188 228 278 228 c 0
 362.48046875 228 412 281 412 368 c 1
 425 373 441 376 454 373 c 1
 454 292.62109375 499.819335938 228 592 228 c 0
 685.950195312 228 731 314.240234375 731 408 c 0
 731 595.3828125 597.778320312 704 389 704 c 4
 257.82421875 704 168.810546875 645 166 645 c 5
 151 665.36328125 148 703.545898438 160 729 c 5
 213.046875 761 304.462890625 794 423 794 c 4
 667.858398438 794 840 607.091796875 840 348 c 0
 840 160.325195312 773.55078125 -30 595 -30 c 0
 483.368164062 -30 420.859375 40.2138671875 421 126 c 1
 440 127 l 1
 441.963867188 47.8525390625 376.030273438 -28.421875 282 -29 c 0
 134.12109375 -29.98046875 47 80.40625 47 245 c 0
EndSplineSet
EndChar

StartChar: si_Nda
Encoding: 45 3507 47
GlifName: si_N_da
Width: 674
VWidth: 13
Flags: HMW
LayerCount: 2
Back
SplineSet
42 249 m 0
 23 440 136 593 366 592 c 0
 421 592 459 590 465 588 c 1
 466 524 l 1
 331 544 l 1
 193 538 93 413 95 258 c 0
 96 210 136 145 200 122 c 1
 167 80 l 1
 96 115 50 174 42 249 c 0
EndSplineSet
Refer: 45 3503 N 1 0 0 1 55 0 2
Fore
SplineSet
12 249 m 0
 13 440 146 623 376 622 c 0
 431 622 469 590 475 588 c 1
 466 544 l 1
 331 544 l 1
 193 538 83 423 75 248 c 4
 73 200 96 65 160 42 c 1
 127 0 l 1
 56 35 12 174 12 249 c 0
EndSplineSet
Refer: 45 3503 N 1 0 0 1 55 0 2
EndChar

StartChar: si_Pha
Encoding: 47 3509 48
GlifName: si_P_ha
Width: 802
VWidth: 16
Flags: HMW
LayerCount: 2
Back
SplineSet
302 767 m 1
 341 788 l 1
 429 756 411 656 443 596 c 0
 473 541 556 532 649 573 c 1
 672 536 l 1
 599 489 441 461 389 566 c 0
 356 631 364 731 302 767 c 1
317.815429688 413.940429688 m 1
 329 414 l 1
 332 479 287 520 222 520 c 0
 215 520 207 519 199 518 c 1
 154 437 l 1
 123.361328125 435.872070312 100 455.271484375 100 492 c 0
 100 553 162 580 211 580 c 0
 287.34375 580 368.32307693 527.364596117 367.955006554 430.0000008 c 0
 367.831487839 397.325951356 357 358 357 358 c 1
 344 360 331.798828125 361.5625 315.525390625 361.5625 c 0
 222 361.5625 107 313.715820312 107 215 c 0
 107 124 210 74 386 74 c 0
 610 74 684 227 686 380 c 0
 689 629 488 738 302 766 c 1
 296 780 294 814 307 824 c 1
 568 784 747 601 747 371 c 0
 747 134 609 -26 382 -26 c 0
 149 -26 50 78 50 193 c 0
 50 346.273090168 183.217773438 411.700195312 317.815429688 413.940429688 c 1
EndSplineSet
Fore
SplineSet
50 193 m 0
 50 346 173 412 308 414 c 1
 319 414 l 1
 322 479 276 509 211 509 c 1
 204 509 219 510 211 509 c 1
 163 428 l 1
 95 428 82 467 82 504 c 0
 82 565 142 600 211 600 c 0
 297 600 368 527 368 430 c 0
 368 397 357 358 357 358 c 1
 344 360 332 362 316 362 c 0
 222 362 174 330 174 261 c 0
 174 170 326 144 382 144 c 0
 606 144 665 277 666 380 c 0
 668 629 487 731 301 759 c 1
 295 773 294 814 307 824 c 1
 568 784 747 601 747 371 c 0
 747 134 609 -26 382 -26 c 0
 149 -26 50 78 50 193 c 0
301 759 m 1
 340 781 l 1
 428 749 426 666 459 606 c 0
 489 551 562 542 655 583 c 1
 676 528 l 1
 603 481 465 414 389 566 c 0
 356 631 363 723 301 759 c 1
EndSplineSet
EndChar

StartChar: si_Ba
Encoding: 48 3510 49
GlifName: si_B_a
Width: 911
VWidth: 16
Flags: HMW
LayerCount: 2
Back
SplineSet
50.5 194 m 4
 50.5 370.166015625 168.9609375 485.158203125 313.5 486 c 4
 475.428710938 486.943359375 561.196289062 367.0859375 546.5 234 c 5
 542.763671875 226.838867188 538.602539062 222.532226562 534.5 220 c 5
 491.642578125 217.407226562 449.5 187.109375 449.5 143 c 4
 449.5 99.2822265625 491.698242188 71 563.5 71 c 4
 672.588867188 71 748.853515625 171.3984375 751.5 343 c 4
 754.6640625 548.19140625 625.75 704 374.5 704 c 4
 244.728515625 704 129.5 625 129.5 625 c 5
 118.010742188 635.227539062 106.334960938 660.014648438 112.5 694 c 5
 112.5 694 215.415039062 766 388.5 766 c 4
 615.084960938 766 820.5 606.782226562 820.5 345 c 4
 820.5 132.70703125 737.966796875 -28 576.5 -28 c 4
 452.041992188 -28 393.5 51.2978515625 393.5 123 c 4
 393.5 208.002929688 455.580078125 255 508.5 267 c 5
 506.5 252 l 5
 504.334960938 342.61328125 385.427734375 400.114257812 296.5 397 c 4
 172.805664062 392.688306925 100.5 314.04296875 100.5 193 c 4
 100.5 93.40625 155.807617188 17.80859375 228.5 20 c 4
 268.118164062 21.1943359375 289.5 44.2001953125 289.5 73 c 4
 289.5 102.64453125 269.192382812 124 241.5 124 c 4
 209.1328125 124 181.5 104.385742188 181.5 57 c 4
 181.5 33.2724609375 190.534179688 13.3935546875 217.5 9 c 5
 193.5 -2 l 5
 169.163085938 0.150390625 142.5 24.1748046875 142.5 69 c 4
 142.5 137.201171875 192.97265625 180 246.5 180 c 4
 298.745117188 180 344.5 142.959960938 344.5 81 c 4
 344.5 26.63671875 300.852539062 -27 227.5 -27 c 4
 96.661132812 -27 50.5 98.2099609375 50.5 194 c 4
EndSplineSet
Fore
SplineSet
735.5 388 m 5
 735.028368794 597.603395935 611.797851562 702 396 702 c 4
 253.05859375 702 163.062554487 625 160 625 c 1
 145 645.363636364 142 703.545898438 154 729 c 1
 209.064453125 761 303.956054688 794 427 794 c 0
 671.858398438 794 854 607.483534593 853.5 349 c 1
 853.5 135.568731149 765.216532723 -26 592.5 -26 c 0
 452.475126711 -26 404.5 62.225424255 404.5 142 c 0
 404.5 250.024556479 471.978345788 309.75 529.5 325 c 1
 497.5 203 l 1
 495.737039621 272.990948276 398.886172466 315.060316521 326.5 315 c 0
 203.819128649 314.884324235 130.5 244.523292018 130.5 143 c 0
 130.5 77.9474349711 177.608737658 28.3251824529 239.5 30 c 0
 271.973904969 30.9689895342 289.5 49.6341207252 289.5 73 c 0
 289.5 102.64453125 268.769307454 124 240.5 124 c 0
 211.908984375 124 187.5 98.9349930042 187.5 64 c 0
 187.5 40.2724609375 196.534179688 20.3935546875 223.5 16 c 1
 199.5 5 l 1
 170.391142004 7.45326254401 138.5 34.861396897 138.5 86 c 0
 138.5 165.260821368 196.252366286 215 257.5 215 c 0
 318.274932239 215 371.5 168.60641572 371.5 91 c 0
 371.5 31.6030815972 325.24115251 -27 247.5 -27 c 0
 104.094687941 -27 53.5 98.2099609375 53.5 194 c 0
 53.5 388.265263806 179.167625971 515.082691968 332.5 516 c 0
 502.768387038 516.864746094 592.953179486 406.995442708 577.5 285 c 1
 573.763671875 277.838867188 569.602539062 273.532226562 565.5 271 c 1
 538.272931985 269.484742796 511.5 251.778206169 511.5 226 c 0
 511.5 202.760354663 548.4660248 194 593.5 194 c 0
 675.896910323 194 733.56967596 265.606645887 735.5 388 c 5
EndSplineSet
EndChar

StartChar: si_Bha
Encoding: 49 3511 50
GlifName: si_B_ha
Width: 1101
VWidth: 6
Flags: HMW
LayerCount: 2
Back
SplineSet
61 353 m 5
 56 375 55 394 61 410 c 5
 440 410 l 5
 442 368 l 5
 146 368 l 5
 61 353 l 5
EndSplineSet
Refer: 57 3524 N 1 0 0 1 95 0 2
Fore
SplineSet
21 330 m 1
 12 351 10 405 21 421 c 1
 420 421 l 1
 422 355 l 1
 126 355 l 1
 21 330 l 1
EndSplineSet
Refer: 57 3524 S 1 0 0 1 45 0 2
EndChar

StartChar: si_Ma
Encoding: 50 3512 51
GlifName: si_M_a
Width: 885
VWidth: -14
Flags: HMW
LayerCount: 2
Back
SplineSet
70 292 m 0
 69 448 144 512 211 512 c 0
 256 512 284 486 285 421 c 0
 286 294 373 280 433 281 c 0
 517 282 560 325 561 388 c 0
 563 456 514 510 438 499 c 0
 404 494 381 467 381 432 c 0
 381 414 394 388 428 388 c 0
 463 388 480 419 480 446 c 0
 480 468 474 487 463 505 c 1
 489 504 l 1
 505 489 516 464 516 440 c 0
 516 390 484 342 424 342 c 0
 382 342 334 367 334 428 c 0
 334 482 377 534 451 534 c 0
 547 534 599 467 599 390 c 0
 599 305 544 217 425 217 c 0
 377 217 327 231 291 265 c 0
 260 293 245 341 243 405 c 0
 242 454 230 474 205 474 c 0
 157 474 127 409 128 317 c 0
 130 168 264 75 430 74 c 0
 653 73 737 210 743 359 c 0
 750 545 648 709 420 709 c 0
 306 709 218 653 215 653 c 1
 205 659 193 690 200 715 c 1
 200 715 291 765 432 762 c 0
 668 756 805 578 805 364 c 0
 805 126 659 -28 435 -28 c 0
 206 -28 70 113 70 292 c 0
EndSplineSet
Fore
SplineSet
51 313 m 1
 50.0738636363 486.984496124 149.166411956 559.232560443 214 561 c 0
 287.364418938 563 287.895228285 492.993522762 289 463 c 0
 293.264900662 347.21192053 386.025115634 321.150509761 450 322 c 0
 524 322.982608696 577.475066567 369.148258551 579 435 c 0
 581 510.351351351 531.360815725 568.071650192 455 558 c 0
 421 553.223880597 399 527.432835821 399 494 c 0
 399 475.162790698 411.659574468 449 450 449 c 0
 495 449 510.694250713 482.514593797 512 514 c 0
 513 537 508 549 501 564 c 1
 517 563 l 1
 524.153846154 566.636363636 527.652274523 580.048952455 529 579 c 0
 550.638052998 562.158818912 556.902170014 549.378589156 556.046875 528 c 0
 552.438336658 438.424567221 511.660240049 384 439 384 c 0
 387.121495327 384 330 414.115384616 330 492 c 0
 330 556.507936508 382.189781021 619 473 619 c 0
 577.172413793 619 644 534.487804878 644 439 c 0
 644 341.43902439 577.04466591 239.813348525 446 239 c 0
 300.188679245 238.095 226.546611902 321.81045241 222 420 c 0
 219.996741103 463.262783146 213.463414634 486 201 486 c 0
 176.763636364 486 157.178682702 442.744659244 158 393 c 0
 160.048951049 268.901345291 267.8203125 173.859375 445 175 c 4
 622.05416306 176.139816915 710.823242188 297.06640625 714 438 c 4
 717.140629398 577.330793809 613.046875 714 412 714 c 0
 288.377929688 714 193.224609375 644 190 644 c 1
 183 665.265625 182 701.505859375 193 741 c 1
 193 741 282.772460938 796.567382812 440 792 c 0
 679.763671875 785.03515625 828 588.926952141 828 377 c 0
 828 124.94094777 665.154228856 -39 436 -39 c 0
 209.873417722 -39 51 114.735351562 51 313 c 1
EndSplineSet
EndChar

StartChar: si_Mba
Encoding: 51 3513 52
GlifName: si_M_ba
Width: 928
VWidth: 16
Flags: HMW
LayerCount: 2
Back
SplineSet
50 272 m 1
 50 160 92 -32 249 -32 c 0
 315 -32 385 0 385 99 c 0
 385 100 349 106 349 129 c 0
 349 155 379 165 412 165 c 0
 444 165 476 155 476 129 c 0
 476 106 434 99 434 99 c 1
 431 1 489 -33 569 -33 c 0
 750 -33 810 219 810 357 c 0
 810 573 646 773 400 773 c 0
 248 773 139 694 139 694 c 1
 164 647 l 1
 165 647 263 714 397 714 c 0
 627 714 739 563 739 356 c 0
 739 225 683 65 554 65 c 0
 510 65 490 75 478 86 c 1
 497 91 527 108 527 141 c 0
 527 179 482 213 415 213 c 0
 340 213 296 177 296 137 c 0
 296 108 320 94 340 86 c 1
 325 73 311 65 275 65 c 0
 157 65 112 189 110 295 c 0
 108 381 149 484 207 484 c 0
 235 484 244 463 249 421 c 0
 256 366 269 326 298 300 c 0
 333 268 381 255 428 255 c 0
 540 255 591 332 591 406 c 0
 591 483 537 550 439 550 c 0
 367 550 326 498 326 444 c 0
 326 382 372 356 408 356 c 0
 473 356 507 405 507 456 c 0
 507 480 497 505 481 520 c 1
 455 521 l 1
 466 503 472 484 472 462 c 0
 472 435 454 404 419 404 c 0
 385 404 373 430 373 448 c 0
 373 481 396 506 430 511 c 0
 506 522 555 470 553 404 c 0
 552 345 511 305 432 304 c 0
 372 303 287 327 286 427 c 0
 285 499 258 528 213 528 c 0
 126 528 52 427 50 272 c 1
EndSplineSet
Fore
SplineSet
10 272 m 0
 10 118 62 -42 249 -42 c 0
 315 -42 385 20 385 119 c 0
 385 120 349 123 349 146 c 0
 349 163 379 175 412 175 c 0
 444 175 476 163 476 146 c 0
 476 123 434 119 434 119 c 1
 431 21 462 -45 582 -45 c 0
 753 -45 804 184 804 302 c 0
 804 562 688 785 402 785 c 0
 250 785 108 704 108 704 c 1
 110 680 126 652 141 642 c 0
 142 642 255 729 389 729 c 0
 619 729 709 563 709 356 c 0
 709 255 683 95 554 95 c 0
 530 95 490 97 478 114 c 1
 497 119 527 128 527 161 c 0
 527 199 482 233 415 233 c 0
 340 233 294 202 294 162 c 0
 294 134 315 124 333 120 c 1
 324 104 307 98 281 98 c 0
 193 98 131 228 132 334 c 0
 132 420 159 484 197 484 c 0
 215 484 236 483 239 441 c 0
 246 356 263 334 292 308 c 0
 327 276 383 260 430 260 c 0
 542 260 602 352 602 426 c 0
 602 523 537 580 439 580 c 0
 377 580 326 528 326 474 c 0
 326 412 364 376 410 376 c 0
 485 376 513 425 513 476 c 0
 513 500 503 525 487 540 c 1
 455 541 l 1
 466 523 472 504 472 482 c 0
 472 455 454 429 419 429 c 0
 390 429 378 450 378 468 c 0
 378 491 396 516 430 521 c 0
 506 532 553 500 551 434 c 0
 550 375 511 325 432 324 c 0
 372 323 294 344 289 447 c 0
 286 519 248 548 203 548 c 0
 80 548 10 402 10 272 c 0
EndSplineSet
EndChar

StartChar: si_Ya
Encoding: 52 3514 53
GlifName: si_Y_a
Width: 922
VWidth: 6
Flags: HMW
LayerCount: 2
Back
SplineSet
55 205 m 4
 53 389 171 487 301 491 c 4
 320 492 339 490 356 486 c 5
 361 473 356 450 348 438 c 5
 333 443 319 446 303 446 c 4
 207 446 116 392 114 252 c 4
 113 154 175 84 287 84 c 4
 365 84 438 121 440 224 c 5
 445 227 464 232 479 229 c 5
 479 131 546 84 632 84 c 4
 720 84 769 156 770 229 c 4
 771 300 725 384 613 384 c 4
 584 384 551 379 513 366 c 5
 508 385 503 405 503 436 c 4
 503 535 581 594 665 594 c 4
 736 594 802 559 802 479 c 4
 802 383 709 357 709 357 c 5
 684 374 l 5
 684 374 736 389 736 448 c 4
 736 495 691 524 640 524 c 4
 585 524 537 495 537 434 c 4
 537 398 553 385 553 385 c 5
 517 398 l 5
 533 411 l 5
 562 421 591 426 621 426 c 4
 728 426 830 355 830 205 c 4
 830 69 747 -24 623 -24 c 4
 523 -24 450 32 446 135 c 5
 446 134 447 134 449 134 c 4
 455 134 468 136 474 136 c 4
 476 136 477 136 477 135 c 4
 470 53 408 -23 288 -23 c 4
 135 -23 56 78 55 205 c 4
EndSplineSet
Fore
SplineSet
50 234 m 0
 47.1181640625 417.98828125 175 515 319 522 c 0
 338.358398438 522.94140625 357.690429688 520.799804688 375 516 c 1
 380 493.444335938 379 467 371 446 c 1
 348.661132812 453.071289062 328.353515625 457 305 457 c 0
 246.078125 457 182.736328125 414.060546875 182 339 c 0
 181.458984375 282.099609375 221.740234375 237 302 237 c 0
 367.8203125 237 442.106445312 266.963867188 444 340 c 1
 451.163085938 345.400390625 461.509765625 354.400390625 483 349 c 1
 483 270.84375 550.162109375 233 625 233 c 0
 689.682617188 233 726.505859375 257.857421875 727 293 c 0
 727.64453125 338.82421875 697.963867188 369.266601562 625 371 c 0
 598.915039062 371.588867188 570.161132812 366.529296875 536 352 c 1
 525.3125 375.991210938 515.8125 401.530273438 517 441 c 0
 520.119140625 552.962890625 614.067382812 612.021484375 699 611 c 0
 784.53515625 609.983398438 853 562.768554688 853 483 c 0
 853 387.41015625 749 354 749 354 c 1
 723 361 l 1
 753 378 766 409 766 436 c 0
 766 485.978515625 723.700195312 519 676 519 c 0
 616 519 571 481.823242188 571 430 c 0
 571 388.6484375 589 377 589 377 c 1
 545 406 l 1
 583.204101562 423 612.6015625 431 662 431 c 0
 760.122070312 431 872.967773438 363.530273438 872 221 c 0
 871.037109375 76.82421875 779 -25 649 -25 c 0
 520.9296875 -25 451.23046875 42.1005859375 447 164 c 1
 447 163 448 163 450 163 c 0
 456 163 469 165 475 165 c 0
 477 165 478 165 478 164 c 0
 478 89.6728515625 415.6484375 -22 290 -22 c 0
 119 -22 52 101 50 234 c 0
EndSplineSet
EndChar

StartChar: si_La
Encoding: 54 3517 54
GlifName: si_L_a
Width: 995
VWidth: 25
Flags: HMW
LayerCount: 2
Back
SplineSet
371 344 m 1
 371 389 l 1
 653 389 l 1
 653 344 l 1
 371 344 l 1
65 145 m 4
 65 422 271 594 517 594 c 0
 747 594 855 457 855 336 c 0
 855 206 764 135 662 135 c 0
 553 135 503 198 503 257 c 0
 503 327 556 363 594 367 c 1
 652 345 l 1
 575 345 553 316 553 279 c 0
 553 234 609 211 669 211 c 0
 739 211 797 253 797 345 c 0
 797 447 703 539 515 539 c 0
 300 539 167 394 167 182 c 4
 167 -38 303 -194 532 -194 c 0
 671 -194 755 -130 794 -91 c 1
 816 -99 832 -120 838 -140 c 1
 796 -184 690 -257 510 -257 c 0
 227 -257 65 -94 65 145 c 4
EndSplineSet
Fore
SplineSet
70 163 m 0
 70 434.293990165 279.922851562 636 550 636 c 0
 811.392578125 636 933.426690578 470.969768591 934 324 c 4
 934.817985765 114.306640625 802.558693625 52 683 52 c 4
 564.511850307 52 477 114.215820312 477 202 c 0
 477 322 582 362 620 366 c 1
 688 328 l 1
 618.064453125 328 579 304.616269531 579 267 c 0
 579 237.163934426 621.962036133 215 678 215 c 0
 741.154040948 215 820 247.979513264 820 356 c 0
 820 452.237304688 719.524414062 540 588 540 c 0
 408.5 540 278 410.187845304 278 184 c 0
 278 -49.0075372629 426.775046409 -168 613 -168 c 0
 725.040289181 -168 808.866593251 -107.367102051 846 -61 c 1
 860.143171038 -69.2446552992 894.571777344 -112.291669465 892 -148 c 1
 851.558345921 -189.841064453 746.321374622 -274 563 -274 c 0
 283.134843361 -274 70 -123.11063058 70 163 c 0
397 327 m 1
 397 398 l 1
 689 398 l 1
 689 327 l 1
 397 327 l 1
EndSplineSet
EndChar

StartChar: si_Sha
Encoding: 56 3521 55
GlifName: si_S_ha
Width: 1026
VWidth: 6
Flags: HMW
LayerCount: 2
Back
SplineSet
410 218 m 5
 410 512 561 610 716 610 c 4
 898 610 990 441 990 298 c 4
 990 131 880.002929688 -27 699 -27 c 4
 650 -27 618 -20 601 -10 c 5
 594 -2 590 39 610 59 c 5
 628 46 661 37 706 38 c 4
 837 41 881 147 881 240 c 4
 881 321 832 441 690 441 c 4
 578 441 457 381 457 218 c 5
 445 216 422 215 410 218 c 5
46 257 m 4
 46 466.333007812 207 586.041992188 343 588 c 5
 351 569 345 520 339 511 c 5
 254 511 142 466.798828125 142 304 c 4
 142 218.169921875 208 134.09375 340 134 c 4
 447.018554688 133.923828125 505 184 505 232 c 4
 505 277 471 295 432 295 c 5
 443 339 l 5
 490 338 577 320 577 205 c 4
 577 76 483 -25 329 -25 c 4
 150 -25 46 97.9365234375 46 257 c 4
380 218 m 1
 386 466 526 580 670 580 c 0
 844 580 932 443 932 297 c 0
 932 130 854 -26 673 -26 c 0
 624 -26 619 -22 602 -12 c 1
 597 4 595 23 610 41 c 1
 631 26 653 21 696 25 c 0
 803 35 866 143 866 270 c 0
 866 399 774 489 658 489 c 0
 559 489 431 437 425 218 c 1
 380 218 l 1
55 242 m 0
 55 466 217 576 343 578 c 1
 351 559 345 524 339 515 c 1
 254 515 126 455 122 287 c 0
 119 165 198 67 330 64 c 0
 437 62 515 114 515 212 c 0
 515 267 474 307 435 307 c 1
 446 351 l 1
 493 350 567 305 567 205 c 0
 567 86 483 -25 329 -25 c 0
 162 -25 55 87 55 242 c 0
611 40 m 1
 709 92 664 150 681 206 c 0
 709 298 855 267 884 317 c 1
 884 232 l 1
 882 232 876 233 873 233 c 0
 800 233 745 204 740 144 c 0
 733 52 696 3 636 7 c 1
 611 40 l 1
EndSplineSet
Fore
SplineSet
47 250 m 0
 47 484 216 585 342 587 c 1
 350 568 348 520 337 511 c 1
 242 511 142 462 142 294 c 0
 142 242 193 134 325 134 c 0
 432 134 505 173 505 231 c 0
 505 276 472 294 433 294 c 1
 446 351 l 1
 493 350 578 305 578 205 c 0
 578 76 483 -25 329 -25 c 0
 162 -25 47 85 47 250 c 0
411 216 m 1
 411 464 516 610 721 610 c 0
 895 610 991 442 991 296 c 0
 991 129 880 -27 699 -27 c 0
 650 -27 619 -22 602 -12 c 1
 589 4 595 43 610 61 c 1
 631 46 653 38 696 38 c 0
 803 38 883 99 883 266 c 0
 883 345 814 440 688 440 c 0
 579 440 462 385 456 216 c 1
 411 216 l 1
610 61 m 1
 678 63 655 154 671 210 c 0
 707 336 879 271 894 327 c 1
 905 249 l 1
 903 249 900 222 897 222 c 0
 801 226 739 210 734 150 c 4
 727 58 684 10 624 4 c 1
 610 61 l 1
EndSplineSet
EndChar

StartChar: si_Ssa
Encoding: 57 3522 56
GlifName: si_S_sa
Width: 884
VWidth: 6
Flags: HMW
LayerCount: 2
Back
SplineSet
59 212 m 4
 59 364.97265625 224.124023438 425 340 425 c 4
 349 425 357 425 365 424 c 5
 336 413 l 5
 339.154296875 501.38671875 269.447265625 520.684570312 191 512 c 5
 243 529 l 5
 171 425 l 5
 156.505859375 425.9375 94 439.4375 94 500 c 4
 94 577.866210938 167.279296875 612 231 612 c 4
 319.27734375 612 397 555.681640625 397 465 c 4
 397 441.724076705 392 390.862038352 381 365 c 5
 367 367 353 368 340 368 c 4
 250.038085938 368 191 322 191 253 c 4
 191 210.866890285 271.382855681 174.191932545 437 174 c 4
 569.497894504 173.838265197 709 198.214188249 709 267 c 4
 709 342.641652961 631.155279503 364 558 364 c 4
 537 364 516 362 497 356 c 5
 533 416 l 5
 554.301757812 422 574.634765625 424 594 424 c 4
 728.142578125 424 823 355.673828125 823 238 c 4
 823 81.7724609375 679.766601562 -31 442 -31 c 4
 182.35546875 -31 59 83.4345703125 59 212 c 4
482 450 m 4
 482.983398438 551.724609375 575.407235399 605.976333705 658 605 c 4
 740.77734375 604.021484375 807 554.130859375 807 470 c 4
 807 371.555664062 696 350 696 350 c 5
 673 368 l 5
 700.907226562 384.09375 713 413.440429688 713 439 c 4
 713 483.559570312 668.8203125 513 619 513 c 4
 573.286132812 513 539 483.759765625 539 443 c 4
 539 400.221826841 553 380 553 380 c 5
 497 358 l 5
 489 380.596583946 481.633218612 412.059433909 482 450 c 4
244 247 m 4
 246.497607656 331.076086957 341.233909475 334.703642668 418 332 c 4
 594.986639746 326.5 611.013274336 351.5 659 362 c 5
 686 339 l 5
 614.419753086 304.170731707 573.17994308 290.504089615 463 288 c 4
 429 287.227272727 340 287.227272727 340 254 c 4
 340 232 377 215 442 215 c 4
 480.923076923 215 552 225.346938776 552 254 c 4
 552 282 531 297 522 304 c 5
 556 324 l 5
 556 305.434210526 634 299.973684211 634 241 c 4
 634 197.101010101 561.343949045 159 447 159 c 4
 315.578034682 159 242.188542126 198.68572724 244 247 c 4
EndSplineSet
Fore
SplineSet
59 212 m 0
 59 364.97265625 224.124023438 425 340 425 c 0
 349 425 357 425 365 424 c 1
 336 413 l 1
 339.154296875 501.38671875 269.447265625 520.684570312 191 512 c 1
 243 529 l 1
 171 425 l 1
 156.505859375 425.9375 94 439.4375 94 500 c 0
 94 577.866210938 167.279296875 612 231 612 c 0
 319.27734375 612 397 555.681640625 397 465 c 0
 397 442.422354404 392 393.086177201 381 368 c 1
 367 370 353 371 340 371 c 0
 250.038085938 371 191 323.8 191 253 c 0
 191 210.866890285 271.382867852 174.202162112 437 174 c 0
 569.497894504 173.838265197 709 198.214188249 709 267 c 0
 709 345.760896382 631.155279503 368 558 368 c 0
 537 368 516 366 497 360 c 1
 533 416 l 1
 554.301757812 422 574.634765625 424 594 424 c 0
 728.142578125 424 823 355.673828125 823 238 c 0
 823 81.7724609375 679.766601562 -31 442 -31 c 0
 182.35546875 -31 59 83.4345703125 59 212 c 0
482 450 m 0
 482.983398438 551.724609375 575.407235399 605.976333705 658 605 c 0
 740.77734375 604.021484375 807 554.130859375 807 470 c 0
 807 371.555664062 696 350 696 350 c 1
 673 368 l 1
 700.907226562 384.09375 713 413.440429688 713 439 c 0
 713 483.559570312 668.8203125 513 619 513 c 0
 573.286132812 513 539 483.759765625 539 443 c 0
 539 402.937901327 553 384 553 384 c 1
 497 362 l 1
 489 383.614123774 481.649164105 413.708866086 482 450 c 0
276 235 m 0
 278.34560073 315.768215852 377.412325751 337.727078368 458 333 c 0
 555.611263855 327.683333333 618.977876106 351.85 659 362 c 1
 706 339 l 1
 635.648492555 297.341463414 544.534702925 275.608292335 453 278 c 0
 427.158289673 278.675217318 360 277.227272727 360 244 c 0
 360 216.358974359 393.37254902 195 452 195 c 0
 487.384615385 195 552 202.75862069 552 240 c 0
 552 274.16 510 292.46 492 301 c 1
 526 321 l 1
 556 322.068111455 626 294.368421053 626 229 c 0
 626 180.818181818 564.222929937 139 467 139 c 0
 343.346820809 139 274.178855992 172.290882244 276 235 c 0
EndSplineSet
EndChar

StartChar: si_Ha
Encoding: 59 3524 57
GlifName: si_H_a
Width: 1055
VWidth: 6
Flags: HMW
LayerCount: 2
Back
SplineSet
400 218 m 1
 406 462 548 573 693 573 c 0
 865 573 952 440 952 297 c 0
 952 130 870 -26 689 -27 c 0
 640 -27 608 -20 591 -10 c 1
 584 -2 580 32 600 52 c 1
 618 39 651 30 696 31 c 0
 827 34 881 127 881 260 c 0
 881 391 805 481 683 481 c 0
 571 481 443 421 437 218 c 1
 425 216 412 215 400 218 c 1
79 499 m 0
 79 566 151 591 204 591 c 0
 291.549840981 591 364 538.009987609 364 441 c 4
 364 402 356 382 350 362 c 1
 319 389 l 1
 321 400 322 409 322 419 c 0
 322 481 277 518 204 518 c 0
 197 518 190 518 183 517 c 1
 133 435 l 1
 103 438 79 462 79 499 c 0
55 186 m 0
 55 346 186 426 326 426 c 0
 332 426 339 425 345 425 c 1
 349 363 l 1
 328 368 308 370 289 370 c 0
 185 370 117 305 117 220 c 0
 117 110 211 70 303 68 c 0
 413 66 499 104 499 189 c 0
 499 244 464 277 424 277 c 1
 446 314 l 1
 482 314 546 282 546 191 c 0
 546 77 462 -24 302 -24 c 0
 173 -24 55 63 55 186 c 0
EndSplineSet
Fore
SplineSet
420 248 m 1
 420 483.555664062 571.624023438 585 717 585 c 0
 900.27734375 585 1010 452.682617188 1010 288 c 0
 1010 106.75390625 907.07421875 -27 719 -27 c 0
 680 -27 648 -20 631 -10 c 1
 624 -4.1005859375 622 38.2529296875 640 63 c 1
 658 50 683.044921875 40.7587890625 720 42 c 0
 775.59765625 43.8671875 831 89.27734375 831 194 c 0
 831 314 743.49609375 401 627 401 c 0
 570.858398438 401 478 373.850585938 478 248 c 1
 466 246 432 245 420 248 c 1
60 179 m 0
 60 319 175.153320312 395 357 395 c 0
 363 395 370 394 376 394 c 1
 380 333 l 1
 359 338 349 338 330 338 c 0
 282.241210938 338 219 309.796875 219 252 c 0
 219 212 263.744140625 164 384 165 c 0
 445.612077725 165.512341586 528 178.663085938 528 228 c 0
 528 263 495 287 455 287 c 1
 477 334 l 1
 513 334 601 299 601 208 c 0
 601 73 491 -24 333 -24 c 4
 164.549804688 -24 60 56 60 179 c 0
87 481 m 0
 87 557.314453125 156.69140625 595 214 595 c 0
 338 595 402 503.271484375 402 421 c 0
 402 382 391 348 381 332 c 1
 345 359 l 1
 349 364.333007812 353 372.333007812 353 379 c 0
 353 451 313 485 240 485 c 0
 233 485 226 484 219 482 c 1
 165 401 l 1
 121.315429688 404.39453125 87 439.131835938 87 481 c 0
EndSplineSet
EndChar

StartChar: si_Lla
Encoding: 60 3525 58
GlifName: si_L_la
Width: 949
VWidth: 25
Flags: HMW
LayerCount: 2
Back
SplineSet
90 55 m 0
 75 282 225 376 343 404 c 0
 387 413 428 416 468 416 c 0
 590 416 714 412 775 409 c 1
 758 402 l 1
 758 406 758 410 758 414 c 0
 758 473 725 527 662 527 c 0
 620 527 561 489 562 388 c 1
 516 386 l 1
 517 481 475 530 412 530 c 0
 344 530 308 466 308 399 c 0
 308 226 428 185 537 179 c 0
 606 175 668 189 716 211 c 1
 726 211 731 191 730 180 c 1
 675 127 604 104 525 106 c 0
 385 109 259 197 259 382 c 0
 259 492 318 590 419 590 c 0
 513 590 546 508 546 457 c 0
 546 443 544 432 540 425 c 1
 531 432 l 1
 533 487 576 588 671 588 c 0
 746 588 802 532 802 431 c 0
 802 401 799 380 797 357 c 1
 750 359 605 368 475 368 c 0
 429 368 383 364 344 352 c 0
 252 320 187 247 192 97 c 0
 197 -56 301 -211 524 -211 c 0
 665 -211 758 -133 799 -77 c 1
 809 -79 838 -99 841 -116 c 1
 799 -178 679 -264 507 -264 c 0
 256 -264 102 -134 90 55 c 0
EndSplineSet
Fore
SplineSet
46 56 m 0
 46 283 224 390 343 414 c 0
 387 423 428 426 468 426 c 0
 590 426 724 422 785 419 c 1
 745 412 l 1
 745 416 745 420 745 424 c 0
 745 489 727 550 650 550 c 0
 581 550 551 479 552 398 c 1
 485 396 l 1
 486 491 448 553 385 553 c 0
 337 553 281 494 281 397 c 0
 281 224 428 185 537 179 c 0
 606 175 680 195 728 217 c 1
 738 217 749 189 748 178 c 1
 699 116 594 81 515 81 c 0
 375 80 207 189 207 374 c 0
 207 454 237 617 396 617 c 0
 470 617 520 558 520 517 c 0
 520 503 523 507 519 500 c 1
 507 502 l 1
 507 537 551 626 654 626 c 0
 729 626 812 562 812 441 c 0
 812 411 809 380 807 357 c 1
 738 361 635 368 505 368 c 0
 459 368 433 367 394 356 c 0
 300 330 246 196 246 96 c 0
 246 -27 319 -218 542 -218 c 0
 683 -218 753 -116 794 -60 c 5
 804 -62 853 -93 856 -110 c 1
 814 -172 686 -300 514 -300 c 0
 263 -300 46 -168 46 56 c 0
EndSplineSet
EndChar

StartChar: si_Fa
Encoding: 61 3526 59
GlifName: si_F_a
Width: 1059
VWidth: 6
Flags: HMW
LayerCount: 2
Back
SplineSet
55 258 m 0
 55 415 144 552 283 552 c 0
 405 552 452 466 454 392 c 1
 454 393 453 393 451 393 c 0
 445 393 432 391 426 391 c 0
 424 391 423 391 423 392 c 0
 430 473 503 552 605 552 c 0
 756 552 818 402 818 282 c 0
 818 106 728 -3 606 -3 c 0
 571 -3 530 4 507 13 c 1
 526 75 l 1
 548 56 579 49 609 49 c 0
 615 49 620 50 625 50 c 0
 684 55 747 118 747 249 c 0
 747 352 700 439 599 439 c 0
 530 439 471 386 469 303 c 1
 413 303 l 1
 413 397 347 444 279 444 c 0
 160 444 125 330 125 239 c 0
 125 143 168 50 282 50 c 0
 308 50 333 53 365 75 c 1
 384 17 l 1
 356 5 322 -4 274 -4 c 0
 130 -4 55 114 55 258 c 0
EndSplineSet
Fore
SplineSet
55 278 m 0
 55 435 116 616 306 616 c 0
 428 616 502 549 504 475 c 1
 504 476 503 476 501 476 c 0
 495 476 482 474 476 474 c 0
 474 474 473 474 473 475 c 0
 480 556 563 618 665 618 c 0
 888 618 920 416 920 296 c 0
 920 90 787 -6 665 -6 c 0
 630 -6 589 1 566 10 c 1
 588 82 l 1
 610 63 641 59 671 59 c 0
 677 59 682 60 687 60 c 0
 746 65 826 115 826 246 c 0
 826 319 811 448 663 448 c 0
 582 448 521 406 519 273 c 1
 453 273 l 1
 453 417 366 436 298 436 c 0
 189 436 142 327 142 256 c 0
 142 160 186 58 300 58 c 0
 326 58 361 67 393 89 c 1
 414 21 l 1
 386 9 342 -4 294 -4 c 0
 150 -4 55 114 55 278 c 0
EndSplineSet
EndChar

StartChar: si_Halant
Encoding: 62 3530 60
GlifName: si_H_alant
Width: 0
VWidth: 13
Flags: HMW
LayerCount: 2
Back
SplineSet
-21 484 m 1
 -21 894 l 1
 -9 901 4 896 13 894 c 1
 41 875 65 865 93 851 c 0
 118 838 185 810 185 733 c 0
 185 674 142 647 87 647 c 0
 47 647 19 663 10 675 c 1
 26 676 l 1
 26 671 23 665 23 659 c 2
 23 484 l 1
 8 484 12 480 -21 484 c 1
28 707 m 1
 42 688 66 686 79 686 c 0
 105 686 126 701 126 735 c 0
 126 801 43 823 28 840 c 1
 28 707 l 1
EndSplineSet
Fore
SplineSet
-41 471 m 5
 -41 891 l 1
 -22.671875 898 14.859375 895 30 891 c 1
 58 872 82 862 110 848 c 0
 140 833 227 793 227 703 c 0
 227 637 187 594 124 594 c 0
 74 594 38 621 27 642 c 1
 43 643 l 1
 43 638 40 632 40 626 c 2
 40 471 l 5
 19.3916015625 471 5.162109375 467 -41 471 c 5
45 713 m 1
 59 694 87 688 100 688 c 0
 126 688 142 703 142 727 c 0
 142 787 59 807 44 822 c 1
 45 713 l 1
EndSplineSet
EndChar

StartChar: si_MatraAa
Encoding: 63 3535 61
GlifName: si_M_atraA_a
Width: 444
VWidth: 19
Flags: HMW
LayerCount: 2
Back
SplineSet
11 43 m 1
 12 55 21 68 34 73 c 1
 55 60 89 45 123 45 c 0
 215 45 254 146 254 265 c 0
 254 383 202 488 117 488 c 0
 79 488 52 464 37 454 c 1
 27 459 15 468 17 489 c 1
 44 513 96 539 145 539 c 0
 289 539 347 417 347 279 c 0
 347 156 290 -3 135 -3 c 0
 68 -3 26 25 11 43 c 1
EndSplineSet
Fore
SplineSet
20 63 m 1
 21 78.0771484375 30 105.717773438 43 112 c 1
 64 103.642578125 102 94 136 94 c 0
 199.801757812 94 237 187.83203125 237 285 c 0
 237 386.981445312 195.646484375 476 120 476 c 0
 86.5234375 476 59.2138671875 452.560546875 46 445 c 1
 36 452.272460938 24 478.454101562 26 509 c 1
 54.970703125 533 98.9638671875 570 173 570 c 0
 328.3828125 570 400 453.431640625 400 287 c 0
 400 129.659179688 318.322265625 -3 168 -3 c 0
 70.53125 -3 37.34375 37.173828125 20 63 c 1
EndSplineSet
EndChar

StartChar: si_MatraAe
Encoding: 64 3536 62
GlifName: si_M_atraA_e
Width: 401
VWidth: 19
Flags: HMW
LayerCount: 2
Back
SplineSet
12 387 m 5
 11 404 10 420 12 442 c 5
 35 442 222 442 258 442 c 6
 259 442 l 5
 262 419 259 394 252 377 c 5
 191 330 130 182 130 70 c 0
 130 -3 159 -60 249 -60 c 0
 301 -60 338 -35 359 -15 c 1
 371 -19 379 -34 380 -43 c 1
 362 -76 305 -133 216 -133 c 0
 94 -133 48 -58 48 37 c 0
 48 190 161 343 214 387 c 5
 12 387 l 5
EndSplineSet
Fore
SplineSet
9 360 m 5
 -1 377 3 419 12 442 c 5
 278 442 l 1
 279 442 l 1
 282 419 279 394 272 377 c 1
 219 328 167 200 167 88 c 0
 167 15 209 -33 279 -33 c 0
 321 -33 348 -15 369 5 c 1
 381 1 399 -34 400 -43 c 1
 382 -76 315 -153 176 -153 c 0
 54 -153 0 -80 0 15 c 0
 0 168 138 316 191 360 c 5
 9 360 l 5
EndSplineSet
EndChar

StartChar: si_MatraAae
Encoding: 65 3537 63
GlifName: si_M_atraA_ae
Width: 417
VWidth: 19
Flags: HMW
LayerCount: 2
Back
SplineSet
35 390 m 1
 35 441 l 1
 264 441 l 1
 265 423 263 406 259 388 c 1
 137 323 l 1
 75 329 l 1
 194 390 l 1
 35 390 l 1
75 283 m 1
 75 329 l 1
 98 329 265 312 302 309 c 1
 302 286 303 271 298 253 c 1
 236 215 195 150 195 62 c 4
 195 -1 223 -57 301 -57 c 0
 357 -57 385 -30 407 -11 c 1
 420 -13 427 -28 428 -36 c 1
 413 -79 343 -133 264 -133 c 0
 178 -133 120 -73 120 14 c 4
 120 125 185 210 259 266 c 1
 207 270 139 278 75 283 c 1
EndSplineSet
Fore
SplineSet
35 384 m 1
 35 441 l 1
 264 441 l 1
 265 423 263 406 259 388 c 1
 137 323 l 1
 65 329 l 1
 172 384 l 1
 35 384 l 1
65 275 m 1
 65 329 l 1
 88 329 265 312 302 309 c 1
 302 286 303 271 298 253 c 5
 244 218 215 120 215 72 c 4
 215 0 271 -47 339 -47 c 0
 369 -47 385 -30 407 -11 c 1
 420 -13 427 -28 428 -36 c 1
 413 -79 343 -133 264 -133 c 0
 178 -133 110 -73 110 14 c 0
 110 125 165 202 239 258 c 5
 187 262 129 270 65 275 c 1
EndSplineSet
EndChar

StartChar: si_MatraIi
Encoding: 67 3539 65
GlifName: si_M_atraI_i
Width: 0
VWidth: 2
Flags: HMW
LayerCount: 2
Back
SplineSet
-287 673 m 0
 -287 785 -147 830 -7 830 c 0
 101 830 249 798 266 689 c 0
 267 683 267 677 267 671 c 0
 267 615 228 572 196 559 c 9
 177 584 l 17
 195 600 208 616 208 642 c 0
 208 649 207 656 205 665 c 0
 191 723 68 732 0 733 c 0
 -14 733 -29 733 -44 733 c 0
 -134 733 -224 727 -224 658 c 0
 -224 615 -189 605 -168 596 c 9
 -185 561 l 17
 -244 580 -287 614 -287 673 c 0
EndSplineSet
Fore
SplineSet
-294 683 m 0
 -294 802 -177 860 -7 860 c 0
 131 860 253 817 270 699 c 0
 271 693 271 687 271 681 c 0
 271 615 228 572 196 559 c 9
 177 584 l 17
 195 600 208 616 208 642 c 0
 208 705 136 722 89 723 c 1
 -84 723 l 2
 -174 723 -224 694 -224 658 c 0
 -224 615 -195 604 -174 595 c 9
 -191 560 l 17
 -250 579 -294 620 -294 683 c 0
EndSplineSet
EndChar

StartChar: si_MatraU
Encoding: 68 3540 66
GlifName: si_M_atraU_
Width: 0
VWidth: 30
Flags: HMW
AnchorPoint: "si_MaU" 32 199 mark 0
LayerCount: 2
Back
SplineSet
-608 -239 m 0
 -608 -131 -450 -85 -450 -85 c 1
 -423 -130 l 2
 -423 -129 -423 -129 -424 -129 c 0
 -433 -129 -490 -165 -490 -196 c 0
 -490 -243 -466 -255 -414 -255 c 2
 -18 -257 l 9
 -18 199 l 25
 32 199 l 29
 38 -337 l 17
 38 -337 -311 -341 -487 -341 c 0
 -567 -341 -608 -291 -608 -239 c 0
EndSplineSet
Fore
SplineSet
-608 -239 m 0
 -608 -131 -450 -85 -450 -85 c 1
 -417 -131 l 2
 -417 -130 -417 -130 -418 -130 c 0
 -427 -130 -470 -165 -470 -196 c 0
 -470 -236 -426 -239 -374 -239 c 2
 -29 -239 l 9
 -29 199 l 25
 32 199 l 25
 38 -337 l 17
 38 -337 -311 -341 -487 -341 c 0
 -567 -341 -608 -291 -608 -239 c 0
EndSplineSet
EndChar

StartChar: si_MatraUu
Encoding: 69 3542 67
GlifName: si_M_atraU_u
Width: 0
VWidth: 30
Flags: HMW
AnchorPoint: "si_MaU" 22 199 mark 0
LayerCount: 2
Back
SplineSet
-546 -249 m 0
 -546 -157 -435 -95 -435 -95 c 1
 -402 -129 l 1
 -410 -129 -454 -171 -454 -210 c 0
 -454 -244 -431 -267 -396 -267 c 0
 -331 -267 -279 -206 -195 -206 c 0
 -118 -206 -65 -240 -25 -267 c 1
 -25 199 l 25
 22 199 l 25
 28 -347 l 1
 -34 -346 l 1
 -86 -311 -146 -280 -200 -280 c 0
 -294 -280 -347 -351 -441 -351 c 0
 -511 -351 -546 -301 -546 -249 c 0
EndSplineSet
Fore
SplineSet
-576 -249 m 0
 -576 -157 -448 -81 -448 -81 c 5
 -408 -123 l 5
 -415 -128 -440 -160 -440 -187 c 0
 -440 -221 -413 -238 -382 -238 c 0
 -317 -238 -279 -197 -195 -197 c 0
 -118 -197 -85 -221 -45 -248 c 1
 -45 199 l 25
 22 199 l 25
 28 -347 l 1
 -34 -346 l 1
 -86 -311 -146 -280 -200 -280 c 0
 -294 -280 -337 -351 -451 -351 c 0
 -521 -351 -576 -301 -576 -249 c 0
EndSplineSet
EndChar

StartChar: si_MatraR
Encoding: 70 3544 68
GlifName: si_M_atraR_
Width: 437
VWidth: 19
Flags: HMW
LayerCount: 2
Back
SplineSet
7 128 m 0
 7 37 86 10 156 10 c 0
 325 10 367 164 367 279 c 0
 367 417 289 539 145 539 c 0
 96 539 44 513 17 489 c 1
 37 459 l 1
 52 469 79 485 117 485 c 0
 215 485 278 389 278 265 c 0
 278 156 242 63 168 63 c 0
 127 63 81 84 81 141 c 0
 81 220 139 245 203 245 c 0
 241 245 277 233 308 210 c 1
 298 271 l 1
 275 281 239 286 206 286 c 0
 104 286 7 239 7 128 c 0
EndSplineSet
Fore
SplineSet
-3 128 m 0
 -3 37 86 -10 156 -10 c 0
 325 -10 397 114 397 269 c 4
 397 437 289 539 145 539 c 0
 96 539 44 513 17 489 c 1
 37 459 l 1
 52 469 79 485 117 485 c 0
 215 485 278 389 278 265 c 0
 278 156 251 73 167 73 c 0
 126 73 81 104 81 151 c 0
 81 217 139 245 203 245 c 0
 241 245 277 233 308 210 c 1
 297 281 l 1
 274 291 239 296 206 296 c 0
 104 296 -3 239 -3 128 c 0
EndSplineSet
EndChar

StartChar: si_MatraE
Encoding: 71 3545 69
GlifName: si_M_atraE_
Width: 702
VWidth: 20
Flags: HMW
LayerCount: 2
Back
SplineSet
54 247 m 4
 54 459 210 578 379 578 c 4
 501 578 548 541 548 541 c 5
 555 522 535 494 518 487 c 5
 518 487 465 531 359 531 c 4
 230 531 121 433 121 290 c 4
 121 148 211 70 337 70 c 4
 440 70 523 116 524 226 c 4
 525 305 463 359 400 359 c 4
 343 359 316 327 316 293 c 4
 316 268 338 246 372 246 c 4
 407 246 426 276 426 296 c 4
 426 363 389 361 380 361 c 5
 393 364 397 365 409 365 c 4
 421 365 430 364 431 363 c 4
 440 353 464 337 464 283 c 4
 464 240 434 187 363 187 c 4
 300 187 266 232 266 277 c 4
 266 352 332 395 403 395 c 4
 491 395 581 337 581 213 c 4
 581 104 512 -14 328 -14 c 4
 174 -14 54 98 54 247 c 4
EndSplineSet
Fore
SplineSet
46 260 m 0
 46 460.16918429 212.600585938 594 392 594 c 0
 579.653320312 594 678 481 678 481 c 1
 682.666992188 458.833223783 659.333007812 406.166992188 648 398 c 1
 648 398 560.333007812 522 383 522 c 0
 248.756835938 522 170 440.958984375 170 332 c 0
 170 237.510742188 238.737304688 164 361 164 c 0
 454 164 511.112304688 212.4140625 510 292 c 0
 509.029296875 361.424804688 444.87109375 398 390 398 c 0
 337.75 398 313 367 313 333 c 0
 313 308.532226562 332.25 287 362 287 c 0
 397 287 421 311.576171875 421 345 c 0
 421 412 377 410 368 410 c 1
 381 413 385 414 397 414 c 0
 409 414 417.772460938 412.701171875 419 412 c 0
 436.5 402 469 383 469 319 c 0
 469 268.5 430.698242188 218 353 218 c 0
 288.182617188 218 246 267.049804688 246 327 c 0
 246 409.626953125 316.493164062 457 395 457 c 0
 504.865234375 457 621 377.208007812 621 239 c 0
 621 121.720703125 552.600987831 -22 350 -22 c 0
 155.353483512 -22 46 104.952138012 46 260 c 0
EndSplineSet
EndChar

StartChar: si_MatraLs
Encoding: 77 3551 75
GlifName: si_M_atraL_s
Width: 580
VWidth: 19
Flags: HMW
LayerCount: 2
Back
SplineSet
35 386 m 0
 35 269 92 193 217 193 c 0
 284 193 357 236 357 318 c 0
 357 368 318 410 251 410 c 0
 234 410 215 406 215 406 c 1
 215 380 l 1
 273 380 297 350 297 315 c 0
 297 284 280 239 216 239 c 4
 138 239 84 290 84 398 c 0
 84 450 102 509 132 560 c 1
 122 567 102 573 84 564 c 1
 57 522 35 451 35 386 c 0
132 81 m 1
 151 7 221 -33 313 -33 c 0
 498 -33 565 112 565 287 c 0
 565 535 438 573 364 573 c 0
 256 573 190 494 190 402 c 0
 190 394 190 387 191 379 c 1
 231 379 l 1
 229 387 229 396 229 404 c 0
 229 456 278 516 338 516 c 0
 446 516 473 396 473 298 c 0
 473 172 447 23 320 23 c 0
 257 23 196 37 175 90 c 1
 162 96 136 93 132 81 c 1
EndSplineSet
Fore
SplineSet
35 386 m 0
 35 269 92 183 217 183 c 0
 304 183 367 236 367 308 c 0
 367 378 318 410 251 410 c 0
 234 410 215 406 215 406 c 1
 215 380 l 1
 273 380 287 350 287 315 c 0
 287 284 261 249 216 249 c 0
 138 249 94 290 94 398 c 0
 94 450 112 509 142 560 c 1
 132 567 102 573 84 564 c 1
 57 522 35 451 35 386 c 0
122 78 m 1
 141 4 221 -43 313 -43 c 0
 498 -43 575 112 575 287 c 0
 575 535 438 573 364 573 c 0
 256 573 190 494 190 402 c 0
 190 394 190 387 191 379 c 1
 231 379 l 1
 229 387 229 396 229 404 c 0
 229 456 278 506 318 506 c 0
 406 506 433 416 433 298 c 0
 433 172 410 23 300 23 c 0
 257 23 196 37 175 90 c 1
 162 101 126 90 122 78 c 1
EndSplineSet
EndChar

StartChar: si_VI
Encoding: 365 -1 78
GlifName: si_V_I_
Width: 890
VWidth: 16
Flags: HMW
LayerCount: 2
Back
SplineSet
46 172 m 0
 46 319 213 363 328 363 c 0
 337 363 346 363 354 362 c 1
 354 432 304 468 212 468 c 1
 186 387 l 1
 181 386 176 386 171 386 c 0
 133 386 108 408 108 442 c 0
 108 508 175 530 224 530 c 0
 302 530 394 491 394 382 c 0
 394 348 386 314 386 314 c 1
 368 316 350 317 332 317 c 0
 221 317 128 272 128 193 c 0
 128 113 219 70 370 70 c 0
 563 70 671 195 671 366 c 1
 734 366 l 1
 734 138 597 -28 360 -28 c 0
 183 -28 46 45 46 172 c 0
EndSplineSet
Refer: 560 -1 N 1 0 0 1 52 0 2
Fore
SplineSet
691.375976562 387.774414062 m 5
 692.075195312 266.662109375 598.546026459 169.717430228 414 167 c 4
 277.645507812 164.9921875 195 193.961914062 195 238 c 4
 195 296.22265625 307.107421875 321.974609375 440 300 c 5
 440 300 450 339.943359375 450 379 c 4
 450 508 351.137695312 567 265 567 c 4
 206.848632812 567 127.014648438 536 128 448 c 4
 128.436523438 408.990234375 165.083984375 372 209 372 c 5
 264 472 l 5
 336 472 388 440 388 370 c 5
 380 373 362 376 323 376 c 4
 193.625 376 53 307.631835938 53 173 c 4
 53 16 230.435546875 -53.7744140625 417 -51 c 4
 684.387695312 -47.0234375 810.452148438 123.8671875 811.986328125 350.0078125 c 5
 808.650390625 593.807617188 631.041015625 672.124023438 516 687 c 4
 421 697 403.881473061 697.00846621 320 703 c 4
 278 706 198 716 198 762 c 4
 198 815 259 845 360 845 c 4
 530 845 606 779 606 724 c 4
 606 690 576 650 526 662 c 5
 550 618 l 5
 631 611 719.306640625 695.00390625 718 776 c 4
 716 900 584 974 420 974 c 4
 247 974 113 886 113 754 c 4
 113 681 164.718065004 639.851953493 286 626 c 4
 368.25109857 616.605868943 420.184570312 610.189453125 495 598 c 4
 572.541015625 585.366210938 691.375976562 528 691.375976562 387.774414062 c 5
EndSplineSet
Ligature2: "si_abvs_1 subtable" si_Va si_MatraI
LCarets2: 1 0
Ligature2: "'abvs' Above Base Substitutions in Sinhala lookup 0-1" si_Va si_MatraI
EndChar

StartChar: si_MatraU.alt
Encoding: 85 -1 81
GlifName: si_M_atraU_.alt
Width: 0
VWidth: 30
Flags: HMW
LayerCount: 2
Back
SplineSet
-561 -207 m 4
 -561 -100 -446 -61 -446 -61 c 5
 -426 -89 l 5
 -444 -99 -478 -129 -478 -168 c 4
 -478 -209 -447 -225 -380 -225 c 6
 -28 -225 l 1
 -28 190 l 1
 20 190 l 1
 26 -296 l 1
 -412 -300 l 6
 -520 -300 -561 -258 -561 -207 c 4
EndSplineSet
Fore
SplineSet
-674 -228 m 0
 -674 -114 -536 -61 -536 -61 c 1
 -516 -89 l 1
 -534 -99 -567 -131 -567 -170 c 0
 -567 -211 -531 -225 -480 -225 c 2
 -58 -225 l 1
 -58 190 l 1
 30 190 l 1
 36 -332 l 1
 -542 -336 l 2
 -625.99609375 -336.571289062 -674 -289 -674 -228 c 0
EndSplineSet
EndChar

StartChar: si_MatraUu.alt
Encoding: 86 -1 82
GlifName: si_M_atraU_u.alt
Width: 0
VWidth: 30
Flags: HMW
AnchorPoint: "si_MaU" 24 239 mark 0
LayerCount: 2
Back
SplineSet
-575 -221 m 0
 -575 -144 -509 -83 -451 -76 c 1
 -424 -121 l 1
 -470 -135 -490 -167 -490 -191 c 0
 -490 -231 -459 -249 -413 -249 c 0
 -329 -249 -265 -196 -181 -196 c 0
 -126 -196 -81 -212 -41 -238 c 9
 -43 239 l 25
 24 239 l 25
 22 -339 l 17
 -46 -308 -93 -269 -192 -269 c 0
 -196 -269 -199 -269 -203 -269 c 0
 -268 -271 -346 -334 -441 -334 c 0
 -543 -334 -575 -277 -575 -221 c 0
EndSplineSet
Fore
SplineSet
-575 -221 m 0
 -575 -144 -509 -83 -451 -76 c 1
 -424 -121 l 1
 -470 -135 -490 -167 -490 -191 c 0
 -490 -231 -459 -249 -413 -249 c 0
 -329 -249 -265 -196 -181 -196 c 0
 -126 -196 -81 -212 -41 -238 c 9
 -43 239 l 25
 24 239 l 25
 22 -339 l 17
 -46 -308 -93 -269 -192 -269 c 2
 -203 -269 l 1
 -268 -271 -346 -334 -441 -334 c 0
 -543 -334 -575 -277 -575 -221 c 0
EndSplineSet
EndChar

StartChar: si_Rakar.alt
Encoding: 88 -1 84
GlifName: si_R_akar
Width: 776
VWidth: 6
Flags: HMW
LayerCount: 2
Back
SplineSet
37 -119 m 1
 44 -105 59 -101 74 -98 c 1
 116 -139 200 -206 342 -206 c 0
 635 -206 695 38 704 247 c 9
 736 240 l 17
 736 240 736 231 736 217 c 0
 736 198 736 168 733 133 c 0
 718 -72 661 -300 358 -300 c 0
 176 -300 62 -187 37 -119 c 1
EndSplineSet
Fore
SplineSet
37 -119 m 1
 44 -105 59 -101 74 -98 c 1
 116 -139 200 -206 342 -206 c 0
 635 -206 695 38 704 247 c 9
 736 240 l 17
 736 217 l 2
 736 198 736 168 733 133 c 0
 718 -72 661 -300 358 -300 c 0
 176 -300 62 -187 37 -119 c 1
EndSplineSet
EndChar

StartChar: si_KU
Encoding: 92 -1 88
GlifName: si_K_U_
Width: 1140
VWidth: 6
Flags: HMW
LayerCount: 2
Back
SplineSet
92 472 m 0
 92 523 131 577 218 577 c 0
 291 577 352 528 352 460 c 0
 352 407 331 397 326 384 c 0
 301 388 l 1
 317 409 316 427 316 444 c 0
 316 499.49609375 249.733398438 527.6796875 201 501 c 1
 166 409 l 1
 128.375976562 407.819335938 92 430.032226562 92 472 c 0
71 136 m 1
 174 275 252 338 344 432 c 0
 351 438 360 439 367 444 c 0
 465 529 579 581 705 581 c 0
 896 581 1060 450 1060 263 c 0
 1060 108 976 -21 819 -23 c 0
 829 28 l 0
 929 28 989 138 989 238 c 0
 989 413 834 488 667 488 c 0
 558 488 481 454 384 393 c 0
 366 382 378 386 364 374 c 0
 274 292 199 245 106 108 c 1
 106 108 65 118 71 136 c 1
128 167 m 1
 140 190 l 1
 148 194 156 197 164 197 c 0
 214 197 228 87 308 87 c 0
 357 87 406 121 407 216 c 1
 418 220 433 220 442 217 c 1
 443 116 501 85 558 85 c 0
 616 85 660 123 660 201 c 0
 660 283 588 368 448 368 c 0
 389 368 331 345 300 328 c 1
 326 369 l 1
 338 373 414 410 491 410 c 0
 595 410 724 342 724 193 c 0
 724 58 649 -17 552 -17 c 0
 462 -17 434 38 415 78 c 1
 433 75 l 1
 416 34 372 -17 307 -17 c 0
 245 -17 205 20 192 74 c 0
 180 126 161 172 142 172 c 0
 138 172 134 170 128 167 c 1
EndSplineSet
Refer: 575 -1 S 1 0 0 1 829 -10 2
Fore
SplineSet
17.779296875 465 m 0
 17.779296875 530.102539062 68.98828125 592 163.779296875 592 c 0
 252.296875 592 313.999023438 521.793945312 306.779296875 448 c 0
 300.872070312 387.618164062 244.1640625 386.881835938 238.779296875 372 c 0
 218.779296875 361 l 1
 238.231445312 380.963867188 253.061523438 412.924804688 251.779296875 439 c 0
 249.779296875 479.662109375 212.404296875 500.014648438 184.779296875 500.045898438 c 0
 170.455078125 500.0625 157.3984375 494.938476562 149.779296875 484 c 1
 113.779296875 379 l 1
 41.4462890625 377.638671875 17.779296875 427.142578125 17.779296875 465 c 0
1045.81542969 269 m 0
 1045.81542969 128.302566941 972.480444127 -31 797.815429688 -31 c 0
 795.815429688 53 l 4
 875.4375 53 899.655323209 147.770623152 879.815429688 236 c 0
 850.580345334 366.010439413 698.956632586 451.59490902 539.815429688 448 c 0
 454.93763658 446.082659057 389.879882812 419.364257812 323.815429688 376 c 1
 242.264648438 305.653320312 147.489257812 204.833007812 71.8154296875 73 c 1
 71.8154296875 73 17.251953125 97.072265625 24.8154296875 126 c 1
 113.6640625 259.427734375 214.125 372.684570312 298.815429688 445 c 0
 302.815429688 446 l 0
 364.061523438 504.697265625 517.372057046 595.228100939 678.815429688 595 c 0
 878.567382812 594.717773438 1045.81542969 474.358384227 1045.81542969 269 c 0
77.8154296875 109 m 1
 57.8154296875 145 l 1
 90.26171875 184.201171875 122.369140625 220 154.815429688 220 c 0
 214.372070312 220 209.719415837 189 287.815429688 189 c 0
 327.646113878 189 387.833984375 200.641601562 388.815429688 278 c 1
 400.7578125 282 433.043945312 286 442.815429688 283 c 1
 443.735351562 211.619140625 489.723955187 195.19924029 519.815429688 197 c 0
 543.300042098 198.405386227 569.815429688 215.435546875 569.815429688 250 c 0
 569.815429688 303.286132812 511.973632812 351.360351562 400.815429688 353 c 0
 335.694335938 354.3203125 270.01586914 337.308646538 235.815429688 317 c 1
 286.815429688 389 l 1
 299.10546875 393.119140625 387.665039062 417.764648438 447.815429688 419 c 0
 598.340820312 422.814453125 706.815429688 316.34903482 706.815429688 190 c 0
 706.815429688 62.6635676877 646.741621541 -23 550.815429688 -23 c 0
 458.117175061 -23 423.932334125 39.3072916667 414.815429688 89 c 1
 426.815429688 89 l 1
 421.220671621 42.4652577276 377.483398438 -24.419921875 303.815429688 -25 c 0
 142.450195312 -26.26953125 194.280273438 152 105.815429688 152 c 0
 94.39453125 152 88.8154296875 139.249023438 77.8154296875 109 c 1
EndSplineSet
Refer: 575 -1 N 1 0 0 1 819 -10 2
LCarets2: 1 0
Ligature2: "si_blws_1 subtable" si_Ka si_MatraU
EndChar

StartChar: si_KUu
Encoding: 93 -1 89
GlifName: si_K_U_u
Width: 1084
VWidth: 6
Flags: HMW
LayerCount: 2
Back
SplineSet
72 472 m 0
 72 523 111 577 198 577 c 0
 271 577 332 528 332 460 c 0
 332 407 311 397 306 384 c 0
 281 388 l 1
 297 409 296 427 296 444 c 0
 296 499.49609375 229.733398438 527.6796875 181 501 c 1
 146 409 l 1
 108.375976562 407.819335938 72 430.032226562 72 472 c 0
51 136 m 1
 154 275 232 338 324 432 c 0
 331 438 340 439 347 444 c 0
 445 529 559 581 685 581 c 0
 876 581 1040 450 1040 263 c 0
 1040 108 956 -21 799 -23 c 0
 809 28 l 0
 909 28 969 138 969 238 c 0
 969 413 814 488 647 488 c 0
 538 488 461 454 364 393 c 0
 346 382 358 386 344 374 c 0
 254 292 179 245 86 108 c 1
 86 108 45 118 51 136 c 1
108 167 m 1
 120 190 l 1
 128 194 136 197 144 197 c 0
 194 197 208 87 288 87 c 0
 337 87 386 121 387 216 c 1
 398 220 413 220 422 217 c 1
 423 116 481 85 538 85 c 0
 596 85 640 123 640 201 c 0
 640 283 568 368 428 368 c 0
 369 368 311 345 280 328 c 1
 306 369 l 1
 318 373 394 410 471 410 c 0
 575 410 704 342 704 193 c 0
 704 58 629 -17 532 -17 c 0
 442 -17 414 38 395 78 c 1
 413 75 l 1
 396 34 352 -17 287 -17 c 0
 225 -17 185 20 172 74 c 0
 160 126 141 172 122 172 c 0
 118 172 114 170 108 167 c 1
EndSplineSet
Refer: 645 -1 N 1 0 0 1 561 0 2
Fore
SplineSet
30.779296875 469 m 0
 30.779296875 534.102539062 81.98828125 597 176.779296875 597 c 0
 265.296875 597 325.999023438 531.793945312 318.779296875 458 c 0
 312.872070312 397.618164062 256.1640625 396.881835938 250.779296875 382 c 0
 230.779296875 371 l 1
 250.231445312 390.963867188 265.061523438 422.924804688 263.779296875 449 c 0
 261.779296875 489.662109375 224.404296875 510.014648438 196.779296875 510.045898438 c 0
 182.455078125 510.0625 160.3984375 504.938476562 152.779296875 494 c 1
 125.779296875 389 l 1
 53.4462890625 387.638671875 30.779296875 431.142578125 30.779296875 469 c 0
1045.81542969 269 m 0
 1045.81542969 128.302566941 975.48046875 -31 809.815429688 -31 c 0
 795.815429688 47 l 0
 875.4375 47 899.655323209 147.770623152 879.815429688 236 c 0
 850.580345334 366.010439413 698.956632586 451.59490902 539.815429688 448 c 0
 454.93763658 446.082659057 389.879882812 419.364257812 323.815429688 376 c 1
 242.264648438 305.653320312 147.489257812 204.833007812 71.8154296875 73 c 1
 71.8154296875 73 17.251953125 97.072265625 24.8154296875 126 c 1
 113.6640625 259.427734375 214.125 372.684570312 298.815429688 445 c 0
 302.815429688 446 l 0
 364.061523438 504.697265625 511.372124076 595.237463734 672.815429688 595 c 0
 864.567459824 594.717955769 1045.81542969 474.358384227 1045.81542969 269 c 0
77.8154296875 109 m 1
 57.8154296875 145 l 1
 90.26171875 184.201171875 122.369140625 220 154.815429688 220 c 0
 214.372070312 220 209.719415837 189 287.815429688 189 c 0
 327.646113878 189 387.833984375 200.641601562 388.815429688 278 c 1
 400.7578125 282 433.043945312 286 442.815429688 283 c 1
 443.735351562 211.619140625 489.723955187 195.19924029 519.815429688 197 c 0
 543.300042098 198.405386227 569.815429688 215.435546875 569.815429688 250 c 0
 569.815429688 303.286132812 511.973632812 351.360351562 400.815429688 353 c 0
 335.694335938 354.3203125 270.01586914 337.308646538 235.815429688 317 c 1
 286.815429688 389 l 1
 299.10546875 393.119140625 387.665039062 417.764648438 447.815429688 419 c 0
 598.340820312 422.814453125 706.815429688 316.34903482 706.815429688 190 c 0
 706.815429688 62.6635676877 646.741621541 -23 550.815429688 -23 c 0
 458.117175061 -23 423.932334125 39.3072916667 414.815429688 89 c 1
 426.815429688 89 l 1
 421.220671621 42.4652577276 377.483398438 -24.419921875 303.815429688 -25 c 0
 142.450195312 -26.26953125 194.280273438 152 105.815429688 152 c 0
 94.39453125 152 88.8154296875 139.249023438 77.8154296875 109 c 1
EndSplineSet
Refer: 645 -1 N 1 0 0 1 541 0 2
LCarets2: 1 0
Ligature2: "si_blws_3 subtable" si_Ka si_MatraUu
EndChar

StartChar: si_KhI
Encoding: 100 -1 96
GlifName: si_K_hI_
Width: 866
VWidth: 6
Flags: HMW
LayerCount: 2
Back
SplineSet
50 181 m 0
 50 356 167 453 309 455 c 0
 393 456 531 400 531 224 c 0
 531 144 502 98 481 60 c 1
 491 132 l 1
 504 99 514 80 574 80 c 0
 675 80 740 204 740 366 c 5
 802 362 l 1
 802 144 727 -25 561 -25 c 0
 491 -25 439 -3 435 58 c 1
 474 34 l 1
 462 12 452 -4 418 -62 c 1
 378 -41 l 1
 417 19 476 116 470 208 c 0
 464 306 371 360 296 360 c 0
 193 360 103 292 103 159 c 0
 103 76 140 22 212 22 c 0
 253 22 272 55 272 82 c 0
 272 115 252 141 220 141 c 0
 195 141 171 121 171 84 c 0
 171 57 187 23 230 18 c 1
 230 7 l 1
 161 9 129 46 129 87 c 0
 129 144 170 200 235 200 c 0
 291 200 334 157 334 91 c 0
 334 39 295 -29 214 -29 c 0
 94 -29 50 88 50 181 c 0
EndSplineSet
Refer: 560 -1 N 1 0 0 1 121 0 2
Fore
SplineSet
22 201 m 0
 22 396 147 524 319 524 c 0
 425 524 569 449 569 250 c 0
 569 136 520 94 499 56 c 1
 499 206 l 1
 513 175 522 144 582 144 c 0
 683 144 738 244 738 406 c 1
 851 352 l 1
 851 134 751 -42 585 -42 c 0
 515 -42 458 -16 442 26 c 1
 487 26 l 1
 475 4 457 -23 423 -81 c 1
 370 -52 l 1
 409 8 476 116 470 208 c 0
 464 306 371 350 296 350 c 0
 193 350 93 292 93 159 c 0
 93 76 130 22 202 22 c 0
 243 22 271 65 271 92 c 0
 271 128 249 161 217 161 c 0
 192 161 160 137 160 100 c 0
 160 73 177 23 220 18 c 1
 220 -3 l 1
 151 -1 109 46 109 117 c 0
 109 184 160 228 225 228 c 0
 281 228 334 185 334 94 c 0
 334 42 285 -29 204 -29 c 0
 84 -29 22 108 22 201 c 0
EndSplineSet
Refer: 560 -1 N 1 0 0 1 121 0 2
LCarets2: 1 0
Ligature2: "si_abvs_1 subtable" si_Kha si_MatraI
EndChar

StartChar: si_GU
Encoding: 111 -1 107
GlifName: si_G_U_
Width: 1009
VWidth: 6
Flags: HMW
LayerCount: 2
Back
SplineSet
54 252 m 0
 54 459 210 566 337 568 c 1
 337 493 l 1
 242 493 112 445 112 274 c 0
 112 155 185 77 318 77 c 0
 419 77 488 121 488 193 c 0
 488 232 461 267 389 267 c 1
 440 321 l 1
 489 320 552 274 552 189 c 0
 552 77 474 -25 309 -25 c 0
 141 -25 54 92 54 252 c 0
391 269 m 1
 391 462 518 573 656 573 c 0
 828 573 921 442 921 297 c 0
 921 135 851 -16 679 -16 c 0
 674 -16 669 -16 664 -16 c 5
 664 39 l 1
 669 39 675 38 680 38 c 0
 803 38 857 143 857 260 c 0
 857 384 776 476 637 476 c 0
 556 476 445 428 439 285 c 1
 391 269 l 1
EndSplineSet
Refer: 575 -1 N 1 0 0 1 665 1 2
Fore
SplineSet
16 257 m 0
 16 466 177 586 313 588 c 1
 321 569 315 520 309 511 c 1
 224 511 112 467 112 304 c 0
 112 218 208 134 340 134 c 0
 447 134 475 184 475 232 c 0
 475 277 441 295 402 295 c 1
 413 339 l 1
 460 338 547 320 547 205 c 0
 547 76 453 -25 299 -25 c 0
 120 -25 16 98 16 257 c 0
380 218 m 1
 380 512 531 610 686 610 c 0
 868 610 960 441 960 298 c 0
 960 101 842 -18 661 -18 c 2
 659 -18 l 1
 663 67 l 1
 665 67 l 2
 796 70 851 137 851 240 c 0
 851 321 802 441 660 441 c 0
 548 441 427 381 427 218 c 1
 415 216 392 215 380 218 c 1
EndSplineSet
Refer: 575 -1 N 1 0 0 1 665 1 2
LCarets2: 1 0
Ligature2: "si_blws_1 subtable" si_Ga si_MatraU
EndChar

StartChar: si_C.halant
Encoding: 135 -1 132
GlifName: si_C_.halant
Width: 862
VWidth: 16
Flags: HMW
LayerCount: 2
Back
SplineSet
-514 787 m 1048
EndSplineSet
Refer: 5 3488 N 1 0 0 1 0 0 2
Refer: 576 -1 S 1 0 0 1 48 0 2
Fore
SplineSet
-514 787 m 1048
EndSplineSet
Refer: 5 3488 N 1 0 0 1 0 0 2
Refer: 576 -1 S 1 0 0 1 48 0 2
Ligature2: "si_halant_1 subtable" si_Ca si_Halant
EndChar

StartChar: si_CI
Encoding: 136 -1 133
GlifName: si_C_I_
Width: 876
VWidth: 16
Flags: HMW
LayerCount: 2
Back
SplineSet
45 363 m 1
 471 363 l 1
 466 313 l 1
 149 313 l 1
 49 303 l 1
 44 314 35 339 45 363 c 1
-478 787 m 1048
131 180 m 0
 131 327 292 363 407 363 c 0
 416 363 426 363 434 362 c 1
 434 432 384 468 302 468 c 1
 256 387 l 1
 221 381 189 405 188 444 c 0
 187 500 244 533 303 533 c 0
 381 533 474 491 474 382 c 0
 474 348 466 315 466 315 c 1
 448 317 430 318 412 318 c 0
 301 318 208 282 208 203 c 0
 208 126 299 74 450 74 c 0
 643 74 755 202 755 370 c 1
 817 364 l 1
 817 136 681 -29 448 -29 c 0
 267 -29 131 53 131 180 c 0
EndSplineSet
Refer: 560 -1 S 1 0 0 1 136 0 2
Fore
SplineSet
-478 787 m 1048
45 372 m 1,28,-1
 471 372 l 1,29,-1
 466 322 l 1,30,-1
 159 312 l 1,31,-1
 49 293 l 5,32,33
 44 304 35 348 45 372 c 1,28,-1
148 173 m 0,4,5
 148 320 263 366 378 366 c 0,6,7
 387 366 442 367 450 366 c 1,8,9
 450 436 391 462 319 462 c 1,10,-1
 264 382 l 1,11,12
 219 382 192 419 191 458 c 0,13,14
 190 526 261 557 320 557 c 0,15,16
 398 557 499 508 499 379 c 0,17,18
 499 345 490 319 490 319 c 1,19,20
 472 321 447 322 429 322 c 0,21,22
 318 322 280 282 280 233 c 0,23,24
 280 162 396 144 479 144 c 0,25,26
 672 144 752 244 752 372 c 1,27,-1
 864 360 l 1,0,1
 864 132 713 -41 480 -41 c 0,2,3
 289 -41 148 36 148 173 c 0,4,5
EndSplineSet
Refer: 560 -1 N 1 0 0 1 136 0 2
LCarets2: 1 0
Ligature2: "si_abvs_1 subtable" si_Ca si_MatraI
EndChar

StartChar: si_TtI
Encoding: 198 -1 203
GlifName: si_T_tI_
Width: 801
VWidth: 16
Flags: HMW
LayerCount: 2
Back
SplineSet
43 220 m 4
 43 370 163 447 278 447 c 4
 335 447 372 428 372 428 c 5
 374 412 363 389 358 383 c 5
 335 393 307 399 278 399 c 4
 194 399 114 340 114 244 c 4
 114 142 219 67 383 67 c 4
 592 67 674 215 680 372 c 4
 743 365 l 4
 737 129 605 -35 376 -35 c 4
 164 -35 43 74 43 220 c 4
EndSplineSet
Refer: 560 -1 N 1 0 0 1 62 0 2
Fore
SplineSet
49 215 m 0
 49 387 178 464 292 464 c 0
 355 464 395 445 395 445 c 1
 398 427 384 379 378 372 c 1
 352 382 320 388 288 388 c 0
 223 388 169 347 169 265 c 0
 169 172 275 108 400 109 c 0
 586 110 677 233 679 380 c 5
 790 352 l 1
 784 109 643 -53 397 -53 c 0
 187 -53 49 61 49 215 c 0
EndSplineSet
Refer: 560 -1 N 1 0 0 1 62 0 2
LCarets2: 1 0
Ligature2: "si_abvs_1 subtable" si_Tta si_MatraI
Ligature2: "'abvs' Above Base Substitutions in Sinhala lookup 0-1" si_Tta si_MatraI
EndChar

StartChar: si_TtIi
Encoding: 199 -1 204
GlifName: si_T_tI_i
Width: 799
VWidth: 16
Flags: HMW
LayerCount: 2
Back
SplineSet
43 220 m 0
 43 370 163 447 278 447 c 0
 335 447 372 428 372 428 c 1
 374 412 363 389 358 383 c 1
 335 393 307 399 278 399 c 0
 194 399 114 340 114 244 c 0
 114 142 219 67 383 67 c 0
 592 67 674 215 680 372 c 0
 743 365 l 0
 737 129 605 -35 376 -35 c 0
 164 -35 43 74 43 220 c 0
EndSplineSet
Refer: 561 -1 N 1 0 0 1 61 0 2
Fore
SplineSet
43 220 m 0
 43 370 163 447 278 447 c 0
 335 447 372 428 372 428 c 1
 374 412 363 389 358 383 c 1
 335 393 307 399 278 399 c 0
 194 399 114 340 114 244 c 0
 114 142 219 67 383 67 c 0
 592 67 674 215 680 372 c 1
 743 365 l 1
 737 129 605 -35 376 -35 c 0
 164 -35 43 74 43 220 c 0
EndSplineSet
Refer: 561 -1 N 1 0 0 1 61 0 2
LCarets2: 1 0
Ligature2: "si_abvs_2 subtable" si_Tta si_MatraIi
EndChar

StartChar: si_DdI
Encoding: 213 -1 218
GlifName: si_D_dI_
Width: 917
VWidth: 16
Flags: HMW
LayerCount: 2
Back
SplineSet
236 722 m 0
 236 834 364 895 517 895 c 0
 711 895 780 803 780 716 c 0
 780 635 700 591 619 598 c 1
 595 642 l 1
 645 630 698 644 698 700 c 0
 698 765 638 821 488 821 c 0
 387 821 308 793 308 730 c 0
 308 684 351 660 403 657 c 0
 487 653 479 655 574 645 c 0
 690 630 851 508 851 319 c 1
 783 319 l 1
 783 467 674 568 583 584 c 0
 508 595 474 593 392 600 c 0
 294 609 236 649 236 722 c 0
111 162 m 0
 113 301 244 363 355 364 c 1
 345 332 l 1
 254 332 181 267 181 190 c 0
 181 131 230 74 309 74 c 0
 389 74 434 131 434 218 c 1
 447 223 462 226 475 223 c 1
 475 124 527 70 608 70 c 0
 725 70 783 191 783 328 c 0
 851 328 l 0
 851 162 785 -30 604 -30 c 0
 503 -30 448 24 444 107 c 1
 462 107 l 1
 464 21 391 -29 305 -30 c 0
 193 -31 109 43 111 162 c 0
20 368 m 1
 434 365 l 1
 429 323 l 1
 126 323 l 1
 22 306 l 1
 11 320 4 349 20 368 c 1
159 451 m 0
 159 518 228 542 281 542 c 0
 371 542 442 492 442 392 c 0
 442 358 435 342 429 323 c 1
 396 345 l 1
 398 356 399 366 399 376 c 0
 399 440 353 476 279 476 c 0
 273 476 267 476 260 475 c 1
 213 397 l 1
 183 400 159 414 159 451 c 0
EndSplineSet
Fore
SplineSet
20 368 m 1
 434 365 l 1
 429 323 l 1
 126 323 l 1
 22 306 l 1
 11 320 4 349 20 368 c 1
111 162 m 0
 113 301 244 363 355 364 c 1
 345 332 l 1
 254 332 181 267 181 190 c 0
 181 131 230 74 309 74 c 0
 389 74 434 131 434 218 c 1
 447 223 462 226 475 223 c 1
 475 124 527 70 608 70 c 0
 725 70 783 191 783 328 c 1
 851 328 l 1
 851 162 785 -30 604 -30 c 0
 503 -30 448 24 444 107 c 1
 462 107 l 1
 464 21 391 -29 305 -30 c 0
 193 -31 109 43 111 162 c 0
159 451 m 0
 159 518 228 542 281 542 c 0
 371 542 442 492 442 392 c 0
 442 358 435 342 429 323 c 1
 396 345 l 1
 398 356 399 366 399 376 c 0
 399 440 353 476 279 476 c 0
 273 476 267 476 260 475 c 1
 213 397 l 1
 183 400 159 414 159 451 c 0
236 722 m 0
 236 834 364 895 517 895 c 0
 711 895 780 803 780 716 c 0
 780 635 700 591 619 598 c 1
 595 642 l 1
 645 630 698 644 698 700 c 0
 698 765 638 821 488 821 c 0
 387 821 308 793 308 730 c 0
 308 684 351 660 403 657 c 0
 487 653 479 655 574 645 c 0
 690 630 851 508 851 319 c 1
 783 319 l 1
 783 467 674 568 583 584 c 0
 508 595 474 593 392 600 c 0
 294 609 236 649 236 722 c 0
EndSplineSet
LCarets2: 1 0
Ligature2: "si_abvs_1 subtable" si_Dda si_MatraI
EndChar

StartChar: si_DdIi
Encoding: 214 -1 219
GlifName: si_D_dI_i
Width: 917
VWidth: 16
Flags: HMW
LayerCount: 2
Back
SplineSet
142 161 m 0
 142 295 266 371 372 372 c 1
 362 340 l 1
 276 340 213 272 213 196 c 0
 213 136 256 91 334 91 c 0
 405 91 467 131 467 225 c 1
 474 225 498 226 505 226 c 1
 505 131 567 91 641 91 c 0
 728 91 789 184 789 352 c 5
 853 352 l 5
 853 189 819 -12 631 -12 c 4
 562 -12 508 19 488 81 c 1
 464 13 392 -11 331 -11 c 0
 233 -11 142 40 142 161 c 0
61 315 m 1
 61 378 l 1
 473 375 l 1
 468 333 l 1
 165 333 l 1
 61 315 l 1
195 465 m 0
 195 532 267 557 320 557 c 0
 410 557 481 502 481 402 c 0
 481 368 474 352 468 333 c 1
 435 355 l 1
 437 366 438 376 438 386 c 0
 438 450 392 491 318 491 c 0
 312 491 306 491 299 490 c 1
 249 408 l 1
 219 411 195 428 195 465 c 0
EndSplineSet
Refer: 561 -1 N 1 0 0 1 171 0 2
Fore
SplineSet
61 315 m 1
 61 378 l 1
 473 375 l 1
 468 333 l 1
 165 333 l 1
 61 315 l 1
142 161 m 0
 142 295 266 371 372 372 c 1
 362 340 l 1
 276 340 213 272 213 196 c 0
 213 136 256 91 334 91 c 0
 405 91 467 131 467 225 c 1
 474 225 498 226 505 226 c 1
 505 131 567 91 641 91 c 0
 728 91 789 184 789 352 c 5
 853 352 l 5
 853 189 819 -12 631 -12 c 4
 562 -12 508 19 488 81 c 1
 464 13 392 -11 331 -11 c 0
 233 -11 142 40 142 161 c 0
195 465 m 0
 195 532 267 557 320 557 c 0
 410 557 481 502 481 402 c 0
 481 368 474 352 468 333 c 1
 435 355 l 1
 437 366 438 376 438 386 c 0
 438 450 392 491 318 491 c 0
 312 491 306 491 299 490 c 1
 249 408 l 1
 219 411 195 428 195 465 c 0
EndSplineSet
Refer: 561 -1 N 1 0 0 1 171 0 2
LCarets2: 1 0
Ligature2: "si_abvs_2 subtable" si_Dda si_MatraIi
EndChar

StartChar: si_DdU
Encoding: 215 -1 220
GlifName: si_D_dU_
Width: 824
VWidth: 16
Flags: HMW
LayerCount: 2
Back
SplineSet
99 -239 m 0
 99 -131 257 -85 257 -85 c 1
 283 -129 l 1
 274 -129 217 -165 217 -196 c 0
 217 -243 241 -255 293 -255 c 2
 680 -255 l 9
 680 119 l 25
 737 179 l 25
 737 -337 l 17
 737 -337 396 -341 220 -341 c 0
 140 -341 99 -291 99 -239 c 0
EndSplineSet
Refer: 40 3497 N 1 0 0 1 -40 0 2
Fore
SplineSet
99 -239 m 0
 99 -131 257 -85 257 -85 c 1
 283 -129 l 1
 274 -129 217 -165 217 -196 c 0
 217 -243 241 -255 293 -255 c 2
 680 -255 l 9
 680 119 l 25
 737 179 l 25
 737 -337 l 17
 737 -337 396 -341 220 -341 c 0
 140 -341 99 -291 99 -239 c 0
EndSplineSet
Refer: 40 3497 N 1 0 0 1 -40 0 2
LCarets2: 1 0
Ligature2: "si_blws_1 subtable" si_Dda si_MatraU
EndChar

StartChar: si_NnI
Encoding: 228 -1 233
GlifName: si_N_nI_
Width: 1393
VWidth: 30
Flags: HMW
LayerCount: 2
Back
SplineSet
201.5 692 m 4
 201.5 820.820063406 301.47442602 934 465.5 934 c 4
 581.888211647 934 665.697743203 862.886758199 662.932617188 763 c 4
 662.487359972 749.935961125 656.120515182 735.264823306 642.5 720 c 4
 597.5 694 l 5
 645.759696443 796.406779661 574.598647947 853 454.5 853 c 4
 342.33423913 853 262.5 791.276780349 262.5 696 c 4
 262.5 621.657582695 312.318181818 568 399.5 568 c 4
 401.5 568 404.5 568 406.5 568 c 5
 402.5 538 l 5
 389.5 533 380.5 530 368.5 530 c 4
 304.678343949 530 201.5 587.550245332 201.5 692 c 4
EndSplineSet
Refer: 42 3499 N 1 0 0 1 0 0 2
Fore
SplineSet
191.5 702 m 0
 191.5 830.820063406 294.125263074 944 462.5 944 c 0
 586.551822518 944 675.879813616 864.569419977 672.932617188 753 c 0
 672.269445051 742.9741097 662.786580061 731.714864398 642.5 720 c 0
 587.5 704 l 1
 632.384892496 772.082916717 542.660318089 823 454.5 823 c 0
 356.354959239 823 286.5 756.903110867 286.5 676 c 0
 286.5 613.273585399 334.863636364 568 419.5 568 c 0
 421.5 568 424.5 568 426.5 568 c 1
 402.5 528 l 1
 389.5 524.875 380.5 523 368.5 523 c 0
 280.856687898 523 191.5 586.589468608 191.5 702 c 0
EndSplineSet
Refer: 42 3499 N 1 0 0 1 0 0 2
LCarets2: 1 0
Ligature2: "si_abvs_1 subtable" si_Nna si_MatraI
EndChar

StartChar: si_TU
Encoding: 241 -1 246
GlifName: si_T_U_
Width: 1085
VWidth: 6
Flags: HMW
LayerCount: 2
Back
SplineSet
56 444 m 0
 56 522 119 588 212 588 c 0
 285 588 334 538 334 483 c 0
 334 471 331 459 326 447 c 0
 320 432 318 427 318 426 c 0
 318 424 321 428 313 418 c 1
 278 408 l 1
 289 429 293 448 293 465 c 0
 293 509 257 533 219 533 c 0
 174 533 144 505 140 455 c 1
 180 400 l 1
 167 377 145 365 124 365 c 0
 81 365 56 398 56 444 c 0
46 135 m 0
 46 136 47 136 47 137 c 0
 147 281 207 352 305 443 c 0
 312 449 321 449 328 455 c 0
 420 534 533 586 642 591 c 0
 649 591 656 592 663 592 c 0
 848 592 991 474 1005 312 c 0
 1006 302 1006 292 1006 282 c 0
 1006 164 947 57 852 11 c 0
 820 -4 784 -13 745 -13 c 1
 758 38 l 1
 868 40 914 140 914 237 c 0
 914 414 769 492 611 492 c 0
 507 492 437 465 345 404 c 0
 328 392 339 397 325 385 c 0
 228 306 176 241 76 109 c 1
 76 109 46 126 46 135 c 0
84 134 m 1
 106 172 l 1
 124 180 136 188 153 188 c 0
 235 188 251 92 418 92 c 0
 545 92 620 154 620 233 c 0
 620 358 483 376 431 376 c 0
 350 376 292 358 259 340 c 1
 296 392 l 1
 309 396 370 424 440 424 c 0
 543 424 679 376 679 225 c 0
 679 120 610 -14 412 -14 c 0
 282 -14 203 38 187 98 c 0
 177 134 158 148 133 148 c 0
 118 148 101 143 84 134 c 1
EndSplineSet
Refer: 575 -1 N 1 0 0 1 757 0 2
Fore
SplineSet
46 135 m 0
 46 136 47 136 47 137 c 0
 147 281 207 352 305 443 c 0
 312 449 321 449 328 455 c 0
 420 534 533 586 642 591 c 0
 649 591 656 592 663 592 c 0
 848 592 991 474 1005 312 c 0
 1006 302 1006 292 1006 282 c 0
 1006 164 947 57 852 11 c 0
 820 -4 784 -13 745 -13 c 1
 758 38 l 1
 868 40 914 140 914 237 c 0
 914 414 769 492 611 492 c 0
 507 492 437 465 345 404 c 0
 328 392 339 397 325 385 c 0
 228 306 176 241 76 109 c 1
 76 109 46 126 46 135 c 0
56 444 m 0
 56 522 119 588 212 588 c 0
 285 588 334 538 334 483 c 0
 334 471 331 459 326 447 c 0
 320 432 318 427 318 426 c 0
 318 424 321 428 313 418 c 1
 278 408 l 1
 289 429 293 448 293 465 c 0
 293 509 257 533 219 533 c 0
 174 533 144 505 140 455 c 1
 180 400 l 1
 167 377 145 365 124 365 c 0
 81 365 56 398 56 444 c 0
84 134 m 1
 106 172 l 1
 124 180 136 188 153 188 c 0
 235 188 251 92 418 92 c 0
 545 92 620 154 620 233 c 0
 620 358 483 376 431 376 c 0
 350 376 292 358 259 340 c 1
 296 392 l 1
 309 396 370 424 440 424 c 0
 543 424 679 376 679 225 c 0
 679 120 610 -14 412 -14 c 0
 282 -14 203 38 187 98 c 0
 177 134 158 148 133 148 c 0
 118 148 101 143 84 134 c 1
EndSplineSet
Refer: 575 -1 N 1 0 0 1 757 0 2
LCarets2: 1 0
Ligature2: "si_blws_1 subtable" si_Ta si_MatraU
EndChar

StartChar: si_DI
Encoding: 255 -1 263
GlifName: si_D_I_
Width: 639
VWidth: 13
Flags: HMW
LayerCount: 2
Back
SplineSet
77 652 m 0
 70 756 154 901 364 901 c 0
 525 901 615 809 615 688 c 0
 615 601 547 519 456 519 c 9
 441 540 l 26
 441 540 532 578 532 666 c 0
 532 743 475 822 323 819 c 0
 199.666666667 816.933333333 138 741.5 138 664 c 0
 138 593 182 549 258 539 c 9
 259 498 l 17
 175 499 85 540 77 652 c 0
EndSplineSet
Refer: 45 3503 N 1 0 0 1 0 0 2
Fore
SplineSet
57 672 m 0
 53 826 164 951 354 951 c 0
 525 951 625 839 625 718 c 4
 625 631 547 519 456 519 c 9
 441 540 l 25
 441 540 492 594 492 682 c 4
 492 769 415 822 313 819 c 0
 190.037109375 815.383789062 138 752 138 674 c 0
 138 603 182 549 258 539 c 9
 259 498 l 17
 175 499 59.9150390625 559.752929688 57 672 c 0
EndSplineSet
Refer: 45 3503 N 1 0 0 1 0 0 2
LCarets2: 1 0
Ligature2: "si_abvs_1 subtable" si_Da si_MatraI
Ligature2: "'abvs' Above Base Substitutions in Sinhala lookup 0-1" si_Da si_MatraI
EndChar

StartChar: si_DIi
Encoding: 256 -1 264
GlifName: si_D_I_i
Width: 661
VWidth: 13
Flags: HMW
LayerCount: 2
Back
SplineSet
60 680 m 0
 60 780 155.990083026 903.500183648 345 900 c 0
 507 897 588 802 588 697 c 0
 588 603.172839506 513 545 438 545 c 0
 373.396396396 545 337 596.107142857 337 651 c 0
 337 708.845454545 385.391304348 752 442 752 c 0
 499 752 538 699 538 699 c 1
 528 666 l 1
 528 666 509.569620253 704 459 704 c 0
 416.416666667 704 386 681.074626866 386 640 c 0
 386 602 413.692307692 584 446 584 c 4
 486.051282051 584 517 616 517 674 c 0
 517 762.599586624 458.665723081 824.400626181 331 830 c 0
 217 835 126 776 126 671 c 0
 126 610 185 557 236 557 c 1
 236 508 l 1
 159 518 60 568 60 680 c 0
EndSplineSet
Refer: 45 3503 N 1 0 0 1 0 0 2
Fore
SplineSet
60 680 m 0
 60 780 156 904 345 900 c 0
 507 897 588 802 588 697 c 0
 588 603 513 545 438 545 c 0
 373 545 337 596 337 651 c 0
 337 709 385 752 442 752 c 0
 499 752 538 699 538 699 c 1
 528 666 l 1
 528 666 510 704 459 704 c 0
 416 704 386 681 386 640 c 0
 386 602 414 584 446 584 c 4
 486 584 517 616 517 674 c 0
 517 763 459 824 331 830 c 0
 217 835 126 776 126 671 c 0
 126 610 185 557 236 557 c 1
 236 508 l 1
 159 518 60 568 60 680 c 0
EndSplineSet
Refer: 45 3503 N 1 0 0 1 0 0 2
LCarets2: 1 0
Ligature2: "si_abvs_2 subtable" si_Da si_MatraIi
EndChar

StartChar: si_DU
Encoding: 257 -1 265
GlifName: si_D_U_
Width: 595
VWidth: 13
Flags: HMW
LayerCount: 2
Back
SplineSet
75 -241 m 0
 75 -133 233 -87 233 -87 c 1
 250 -122 l 2
 250 -121 250 -121 249 -121 c 0
 240 -121 183 -162 183 -198 c 0
 183 -245 210 -258 269 -258 c 2
 516 -258 l 1
 516 70 l 5
 563 70 l 5
 563 -339 l 1
 563 -339 407 -343 196 -343 c 0
 116 -343 75 -293 75 -241 c 0
41 193 m 0
 41 350 208 424 400 424 c 0
 458 424 499 415 499 415 c 1
 499 417 488 405 488 408 c 0
 488 495 395 529 336 529 c 0
 329 529 323 529 318 528 c 1
 262 439 l 1
 223 442 203 471 203 501 c 0
 203 507 203 512 205 518 c 0
 220 575 273 601 336 601 c 0
 408 601 506 558 520 474 c 0
 522 462 523 451 523 440 c 0
 523 402 513 375 513 375 c 1
 513 373 l 1
 480 376 449 377 421 377 c 0
 245 377 161 322 152 229 c 0
 152 224 151 219 151 214 c 0
 151 123 230 60 359 60 c 0
 414 60 478 72 549 97 c 5
 563 70 l 5
 541 70 l 2
 542 70 542 66 542 66 c 0
 542 64 521 55 493 42 c 4
 427 11 361 -6 299 -6 c 0
 155 -6 41 75 41 193 c 0
EndSplineSet
Fore
SplineSet
41 193 m 0
 41 350 208 424 400 424 c 0
 458 424 499 415 499 415 c 1
 499 417 488 405 488 408 c 0
 488 495 395 529 336 529 c 0
 329 529 323 529 318 528 c 1
 262 439 l 1
 223 442 203 471 203 501 c 0
 203 507 203 512 205 518 c 0
 220 575 273 601 336 601 c 0
 408 601 506 558 520 474 c 0
 522 462 523 451 523 440 c 0
 523 402 513 375 513 375 c 1
 513 373 l 1
 480 376 449 377 421 377 c 0
 245 377 161 322 152 229 c 0
 152 224 151 219 151 214 c 0
 151 123 230 60 359 60 c 0
 414 60 478 72 549 97 c 5
 563 70 l 5
 541 70 l 2
 542 70 542 66 542 66 c 2
 542 64 521 55 493 42 c 4
 427 11 361 -6 299 -6 c 0
 155 -6 41 75 41 193 c 0
75 -241 m 0
 75 -133 233 -87 233 -87 c 1
 250 -122 l 2
 250 -121 250 -121 249 -121 c 0
 240 -121 183 -162 183 -198 c 0
 183 -245 210 -258 269 -258 c 2
 516 -258 l 1
 516 70 l 5
 563 70 l 5
 563 -339 l 1
 563 -339 407 -343 196 -343 c 0
 116 -343 75 -293 75 -241 c 0
EndSplineSet
LCarets2: 1 0
Ligature2: "si_blws_1 subtable" si_Da si_MatraU
EndChar

StartChar: si_DhI
Encoding: 267 -1 281
GlifName: si_D_hI_
Width: 848
VWidth: 16
Flags: HMW
LayerCount: 2
Back
SplineSet
48 222 m 0
 48 394 178 481 302 481 c 0
 362 481 393 462 393 462 c 1
 394 442 390 426 380 417 c 1
 357 428 328 433 298 433 c 0
 205 433 118 365 118 250 c 0
 118 160 168 94 259 94 c 0
 339 94 383 151 383 238 c 1
 396 243 411 246 424 243 c 1
 424 144 477 90 558 90 c 0
 675 90 722 221 722 358 c 1
 785 358 l 5
 785 192 733 -10 552 -10 c 0
 451 -10 397 44 393 127 c 1
 411 127 l 1
 404 41 349 -9 255 -10 c 0
 151 -11 48 66 48 222 c 0
EndSplineSet
Refer: 560 -1 N 1 0 0 1 104 0 2
Fore
SplineSet
27 232 m 0
 27 404 165 501 299 501 c 0
 359 501 390 482 390 482 c 1
 391 462 383 433 373 424 c 1
 350 435 321 440 291 440 c 0
 198 440 146 367 146 272 c 0
 146 222 178 153 266 153 c 0
 336 153 380 186 380 253 c 1
 393 258 428 261 441 258 c 1
 441 159 524 151 575 151 c 0
 692 151 720 277 720 364 c 1
 832 358 l 1
 832 162 751 -30 570 -30 c 0
 469 -30 394 24 390 107 c 1
 408 107 l 1
 410 21 337 -29 251 -30 c 0
 127 -31 27 76 27 232 c 0
EndSplineSet
Refer: 560 -1 N 1 0 0 1 104 0 2
LCarets2: 1 0
Ligature2: "si_abvs_1 subtable" si_Dha si_MatraI
EndChar

StartChar: si_PRa
Encoding: 295 -1 313
GlifName: si_P_R_a
Width: 874
VWidth: 6
Flags: HMW
LayerCount: 2
Back
Refer: 84 -1 S 1 0 0 1 5 0 2
Refer: 1 3508 N 1 0 0 1 0 0 2
Fore
SplineSet
53 -139 m 5
 61.8918918919 -125 80.9459459459 -121 100 -118 c 5
 149.835820896 -152.101851852 249.63696853 -182.604904568 418 -176 c 4
 672.906077348 -166 761.248618785 51.8410596026 770 247 c 5
 802 240 l 5
 802 217 l 6
 802 198 801.238277633 168.056955276 799 133 c 4
 784.4 -95.6720554273 728.92 -350 434 -350 c 4
 217.981308411 -350 82.6728971963 -218.270718232 53 -139 c 5
EndSplineSet
Refer: 1 3508 N 1 0 0 1 -10 0 2
LCarets2: 3 0 0 0
Ligature2: "si_rakaar subtable" si_Pa si_Halant zwj si_Ra
EndChar

StartChar: si_PhI
Encoding: 299 -1 317
GlifName: si_P_hI_
Width: 802
VWidth: 16
Flags: HMW
LayerCount: 2
Back
SplineSet
302 757 m 1
 341 778 l 1
 429 746 411 646 443 586 c 0
 473 531 556 522 649 563 c 1
 672 526 l 1
 599 479 441 451 389 556 c 0
 356 621 364 721 302 757 c 1
50 183 m 0
 50 339 188 384 325 384 c 1
 330 334 l 1
 199 334 120 296 120 204 c 0
 120 116 218 64 390 64 c 0
 602 64 673 222 675 376 c 0
 677 622 482 728 302 756 c 1
 296 770 294 804 307 814 c 1
 568 774 747 591 747 361 c 0
 747 131 611 -29 388 -29 c 0
 151 -29 50 74 50 183 c 0
102 462 m 0
 102 528 165 550 211 550 c 0
 286 550 364 502 368 412 c 0
 369 378 357 328 357 328 c 1
 334 331 314 332 293 332 c 0
 304 384 l 0
 312 384 320 383 328 383 c 1
 331 448 287 490 222 490 c 0
 215 490 207 489 199 488 c 1
 173 407 l 1
 168 406 164 406 160 406 c 0
 126 406 102 428 102 462 c 0
214 742 m 0
 207 846 261 961 471 961 c 0
 603 961 712 899 712 778 c 0
 712 731 664 639 573 639 c 9
 558 660 l 26
 558 660 629 678 629 766 c 0
 629 843 592 876 440 889 c 0
 350 897 260 834 260 759 c 0
 260 688 324 614 400 604 c 9
 396 558 l 17
 312 559 222 630 214 742 c 0
EndSplineSet
Fore
SplineSet
50 183 m 0
 50 339 188 384 325 384 c 1
 330 334 l 1
 199 334 120 296 120 204 c 0
 120 116 218 64 390 64 c 0
 602 64 673 222 675 376 c 0
 677 622 482 728 302 756 c 1
 296 770 294 804 307 814 c 1
 568 774 747 591 747 361 c 0
 747 131 611 -29 388 -29 c 0
 151 -29 50 74 50 183 c 0
102 462 m 0
 102 528 165 550 211 550 c 0
 286 550 364 502 368 412 c 0
 369 378 357 328 357 328 c 1
 334 331 314 332 293 332 c 1
 304 384 l 1
 312 384 320 383 328 383 c 1
 331 448 287 490 222 490 c 0
 215 490 207 489 199 488 c 1
 173 407 l 1
 168 406 164 406 160 406 c 0
 126 406 102 428 102 462 c 0
214 742 m 0
 207 846 261 961 471 961 c 0
 603 961 712 899 712 778 c 0
 712 731 664 639 573 639 c 9
 558 660 l 25
 558 660 629 678 629 766 c 0
 629 843 592 876 440 889 c 0
 350 897 260 834 260 759 c 0
 260 688 324 614 400 604 c 9
 396 558 l 17
 312 559 222 630 214 742 c 0
302 757 m 1
 341 778 l 1
 429 746 411 646 443 586 c 0
 473 531 556 522 649 563 c 1
 672 526 l 1
 599 479 441 451 389 556 c 0
 356 621 364 721 302 757 c 1
EndSplineSet
Ligature2: "si_abvs_1 subtable" si_Pha si_MatraI
EndChar

StartChar: si_BI
Encoding: 305 -1 323
GlifName: si_B_I_
Width: 871
VWidth: 6
Flags: HMW
LayerCount: 2
Back
SplineSet
50 181 m 0
 50 355 172 465 310 465 c 0
 409 465 516 404 516 276 c 0
 516 272 515 268 515 264 c 1
 503 250 l 1
 476 243 437 213 437 161 c 0
 437 109 488 81 556 81 c 0
 667 81 722 204 728 348 c 1
 791 350 l 1
 791 139 713 -27 556 -27 c 0
 428 -27 377 48 377 126 c 0
 377 208 434 269 486 281 c 1
 474 266 l 1
 421 345 357 367 300 367 c 0
 195 367 103 298 103 160 c 0
 103 76 139 12 212 12 c 0
 253 12 272 45 272 72 c 0
 272 105 252 131 220 131 c 0
 194 131 171 111 171 74 c 0
 171 47 187 13 230 8 c 1
 233 -3 l 1
 174 -1 132 26 132 77 c 0
 132 134 175 182 235 182 c 0
 281 182 334 147 334 81 c 0
 334 29 295 -29 214 -29 c 0
 94 -29 50 88 50 181 c 0
EndSplineSet
Refer: 560 -1 N 1 0 0 1 109 0 2
Fore
SplineSet
50 181 m 0
 50 355 172 465 310 465 c 0
 409 465 516 404 516 276 c 0
 516 272 515 268 515 264 c 1
 503 250 l 1
 476 243 437 213 437 161 c 0
 437 109 488 81 556 81 c 0
 667 81 722 204 728 348 c 1
 791 350 l 1
 791 139 713 -27 556 -27 c 0
 428 -27 377 48 377 126 c 0
 377 208 434 269 486 281 c 1
 474 266 l 1
 421 345 357 367 300 367 c 0
 195 367 103 298 103 160 c 0
 103 76 139 12 212 12 c 0
 253 12 272 45 272 72 c 0
 272 105 252 131 220 131 c 0
 194 131 171 111 171 74 c 0
 171 47 187 13 230 8 c 1
 233 -3 l 1
 174 -1 132 26 132 77 c 0
 132 134 175 182 235 182 c 0
 281 182 334 147 334 81 c 0
 334 29 295 -29 214 -29 c 0
 94 -29 50 88 50 181 c 0
EndSplineSet
Refer: 560 -1 N 1 0 0 1 109 0 2
Ligature2: "si_abvs_1 subtable" si_Ba si_MatraI
EndChar

StartChar: si_BU
Encoding: 307 -1 325
GlifName: si_B_U_
Width: 886
VWidth: 6
Flags: HMW
LayerCount: 2
Back
SplineSet
60.5 -231 m 4
 60.5 -131.329101562 175.5 -95 175.5 -95 c 5
 184.94140625 -99.4765625 195.580078125 -111.609375 195.5 -123 c 5
 177.5 -133 143.5 -163 143.5 -202 c 4
 143.5 -243 174.5 -259 241.5 -259 c 6
 675.5 -262 l 5
 675.5 210 l 5
 723.5 210 l 5
 732.5 -330 l 5
 209.5 -334 l 6
 101.506835938 -334.919921875 60.5 -287.483398438 60.5 -231 c 4
EndSplineSet
Refer: 49 3510 N 1 0 0 1 -46 0 2
Fore
SplineSet
93.5 -221 m 4
 93.5 -92.013671875 238.5 -45 238.5 -45 c 5
 252.662109375 -52.673828125 268.620117188 -73.4736328125 268.5 -93 c 5
 257.423076923 -101.860759494 236.5 -128.443037975 236.5 -163 c 4
 236.5 -196.806749132 267.504882812 -209.134729456 334.5 -210 c 6
 738.5 -211 l 5
 728.5 210 l 5
 806.5 210 l 5
 815.5 -340 l 5
 262.5 -344 l 6
 140.012199281 -345.251317885 93.5 -288.45104862 93.5 -221 c 4
EndSplineSet
Refer: 49 3510 N 1 0 0 1 -13 0 2
Ligature2: "si_blws_1 subtable" si_Ba si_MatraU
EndChar

StartChar: si_M.halant
Encoding: 324 -1 342
GlifName: si_M_.halant
Width: 885
VWidth: 16
Flags: HMW
LayerCount: 2
Back
Refer: 576 -1 N 1 0 0 1 54 -1 2
Refer: 51 3512 N 1 0 0 1 0 0 2
Fore
SplineSet
157 393 m 4
 160.048951049 268.901345291 283.820352409 189.889025486 451 191 c 0
 625.459150936 192.159349677 717.104375776 302.361592371 720 428 c 0
 723.336488504 572.767093512 600.597598535 694 412 694 c 0
 288.377826181 694 193.224978399 624 190 624 c 1
 183 645.265822785 177 664.506329114 188 704 c 1
 188 704 282.705646257 776.341560812 440 772 c 0
 685.943589744 765.211586902 838 593.561712846 838 387 c 0
 838 128.881835938 671 -39 436 -39 c 0
 209.873417722 -39 51 114.735351562 50 313 c 5
 49.0738636363 486.984496124 148.166411956 559.232560443 213 561 c 4
 286.364418938 563 286.895228285 492.993522762 288 463 c 4
 292.264900662 347.21192053 385.025115634 321.150509761 449 322 c 4
 523 322.982608696 576.475066567 369.148258551 578 435 c 4
 580 510.351351351 530.360815725 568.071650192 454 558 c 4
 420 553.223880597 398 527.432835821 398 494 c 4
 398 475.162790698 410.659574468 449 449 449 c 4
 494 449 509.694250713 482.514593797 511 514 c 4
 512 537 507 549 500 564 c 5
 516 563 l 5
 523.153846154 566.636363636 526.652274523 580.048952455 528 579 c 4
 549.638052998 562.158818912 555.902170014 549.378589156 555.046875 528 c 4
 551.438336658 438.424567221 510.660240049 384 438 384 c 4
 386.121495327 384 329 414.115384616 329 492 c 4
 329 556.507936508 381.189781021 619 472 619 c 4
 576.172413793 619 643 534.487804878 643 439 c 4
 643 341.43902439 576.04466591 239.813348525 445 239 c 4
 299.188679245 238.095 225.546611902 321.81045241 221 420 c 4
 218.996741103 463.262783146 212.463414634 486 200 486 c 4
 175.763636364 486 156.178682702 442.744659244 157 393 c 4
197 680 m 1
 276.673684211 761.333333333 277.589473684 833.098039216 284 863 c 1
 296 835 l 1
 266.285714286 829 256.380952381 824 232 816 c 1
 224 824.372549019 222 845.901960785 228 877 c 1
 228 877 299.232768264 924.639039128 423 923 c 0
 729.449698245 918.941712204 845.410126582 659.21129326 836 366 c 1
 811 376 l 1
 803.750636133 514 763.603582425 836 404 836 c 0
 343.98989899 836 315 838 315 838 c 1
 367 877 l 1
 351 783.409326425 296 701.373056995 208 654 c 1
 197 680 l 1
EndSplineSet
LCarets2: 1 0
Ligature2: "si_halant_1 subtable" si_Ma si_Halant
EndChar

StartChar: si_MI
Encoding: 325 -1 343
GlifName: si_M_I_
Width: 885
VWidth: -14
Flags: HMW
LayerCount: 2
Fore
SplineSet
159 383 m 0
 160.048951049 258.901345291 283.878313205 176.460106221 451 181 c 0
 628.053377461 185.809690127 720.823771236 305.465397862 723 438 c 1
 723 586.925764192 617.098204354 632.404167594 525 641 c 0
 450 648 394.106445312 636.489257813 313 642 c 0
 180.995354568 650.96899828 148 709.024691358 148 764 c 0
 148 894.742857143 297.009836066 972 447 972 c 0
 644.433628319 972 790.441956956 880.858468074 792 758 c 0
 793 677 706 611 625 618 c 1
 601 662 l 1
 651 650 681 698 681 724 c 0
 681 779 585 835 435 835 c 0
 334 835 230 812 230 761 c 0
 230 737.638671875 254.214848256 726.104567354 306 723 c 0
 356.138671875 719.994140625 441.410246908 728.333364543 516 724 c 0
 630.333416796 717.357688504 828 657.309309309 828 377 c 1
 828 125.335986199 665.154228856 -39 436 -39 c 0
 209.873417722 -39 51 110.367869984 52 303 c 1
 51.0738636363 476.984496124 150.166411956 549.232560443 215 551 c 0
 288.364418938 553 288.895228285 482.993522762 290 453 c 0
 294.264900662 335.569536424 387.025115634 309.138460254 451 310 c 0
 525 310.982608696 578.252288663 357.153794499 580 423 c 0
 582 498.351351351 532.273281736 556.714420613 456 546 c 0
 422 541.223880597 400 515.432835821 400 482 c 0
 400 463.162790698 412.659574468 437 451 437 c 0
 496 437 511.63118576 470.517272473 513 502 c 0
 514 525 509 537 502 552 c 1
 518 551 l 1
 525.153846154 554.636363636 528.652274523 568.048952455 530 567 c 0
 551.638052998 550.158818912 557.908099972 537.378351092 557.046875 516 c 0
 553.438336658 426.424567221 512.660240049 372 440 372 c 0
 388.121495327 372 331 402.115384616 331 480 c 0
 331 544.507936508 383.189781021 607 474 607 c 0
 578.172413793 607 645 522.487804878 645 427 c 0
 645 329.43902439 578.04466591 227.813348525 447 227 c 0
 301.188679245 226.085 227.546611903 310.725485033 223 410 c 0
 220.996741103 453.262783146 214.463414634 476 202 476 c 0
 177.763636364 476 158.579488109 432.74966186 159 383 c 0
EndSplineSet
LCarets2: 1 0
Ligature2: "si_abvs_1 subtable" si_Ma si_MatraI
EndChar

StartChar: si_MIi
Encoding: 326 -1 344
GlifName: si_M_I_i
Width: 840
VWidth: 16
Flags: HMW
LayerCount: 2
Back
SplineSet
50 292 m 0
 49 448 124 512 191 512 c 0
 236 512 264 486 265 421 c 0
 266 294 353 280 413 281 c 0
 497 282 540 325 541 388 c 0
 543 456 494 510 418 499 c 0
 384 494 361 467 361 432 c 0
 361 414 374 388 408 388 c 0
 443 388 460 419 460 446 c 0
 460 468 454 487 443 505 c 1
 469 504 l 1
 485 489 496 464 496 440 c 0
 496 390 464 342 404 342 c 0
 362 342 314 367 314 428 c 0
 314 482 357 534 431 534 c 0
 527 534 579 467 579 390 c 0
 579 305 524 217 405 217 c 0
 357 217 307 231 271 265 c 0
 240 293 225 341 223 405 c 0
 222 454 210 474 185 474 c 0
 137 474 107 409 108 317 c 0
 110 168 244 75 410 74 c 0
 633 73 717 210 723 359 c 1
 785 364 l 1
 785 126 639 -28 415 -28 c 0
 186 -28 50 113 50 292 c 0
EndSplineSet
Refer: 561 -1 N 1 0 0 1 106 0 2
Fore
SplineSet
50 292 m 0
 49 448 124 512 191 512 c 0
 236 512 264 486 265 421 c 0
 266 294 353 280 413 281 c 0
 497 282 540 325 541 388 c 0
 543 456 494 510 418 499 c 0
 384 494 361 467 361 432 c 0
 361 414 374 388 408 388 c 0
 443 388 460 419 460 446 c 0
 460 468 454 487 443 505 c 1
 469 504 l 1
 485 489 496 464 496 440 c 0
 496 390 464 342 404 342 c 0
 362 342 314 367 314 428 c 0
 314 482 357 534 431 534 c 0
 527 534 579 467 579 390 c 0
 579 305 524 217 405 217 c 0
 357 217 307 231 271 265 c 0
 240 293 225 341 223 405 c 0
 222 454 210 474 185 474 c 0
 137 474 107 409 108 317 c 0
 110 168 244 75 410 74 c 0
 633 73 717 210 723 359 c 1
 785 364 l 1
 785 126 639 -28 415 -28 c 0
 186 -28 50 113 50 292 c 0
EndSplineSet
Refer: 561 -1 N 1 0 0 1 106 0 2
LCarets2: 1 0
Ligature2: "si_abvs_2 subtable" si_Ma si_MatraIi
EndChar

StartChar: si_MbI
Encoding: 335 -1 353
GlifName: si_M_bI_
Width: 865
VWidth: 16
Flags: HMW
LayerCount: 2
Back
SplineSet
50 272 m 1
 50 160 92 -32 249 -32 c 0
 315 -32 385 0 385 99 c 0
 385 100 349 106 349 129 c 0
 349 155 379 165 412 165 c 0
 444 165 476 155 476 129 c 0
 476 106 434 99 434 99 c 1
 431 1 489 -33 569 -33 c 0
 750 -33 803 219 803 357 c 5
 739 356 l 1
 739 225 683 65 554 65 c 0
 510 65 490 75 478 86 c 1
 497 91 527 108 527 141 c 0
 527 179 482 213 415 213 c 0
 340 213 296 177 296 137 c 0
 296 108 320 94 340 86 c 1
 325 73 311 65 275 65 c 0
 157 65 112 189 110 295 c 0
 108 381 149 484 207 484 c 0
 235 484 244 463 249 421 c 0
 256 366 269 326 298 300 c 0
 333 268 381 255 428 255 c 0
 540 255 591 332 591 406 c 0
 591 483 537 550 439 550 c 0
 367 550 326 498 326 444 c 0
 326 382 372 356 408 356 c 0
 473 356 507 405 507 456 c 0
 507 480 497 505 481 520 c 1
 455 521 l 1
 466 503 472 484 472 462 c 0
 472 435 454 404 419 404 c 0
 385 404 373 430 373 448 c 0
 373 481 396 506 430 511 c 0
 506 522 555 470 553 404 c 0
 552 345 511 305 432 304 c 0
 372 303 287 327 286 427 c 0
 285 499 258 528 213 528 c 0
 126 528 52 427 50 272 c 1
EndSplineSet
Refer: 560 -1 N 1 0 0 1 121 0 2
Fore
SplineSet
50 272 m 1
 50 160 92 -32 249 -32 c 0
 315 -32 385 0 385 99 c 0
 385 100 349 106 349 129 c 0
 349 155 379 165 412 165 c 0
 444 165 476 155 476 129 c 0
 476 106 434 99 434 99 c 1
 431 1 489 -33 569 -33 c 0
 750 -33 803 219 803 357 c 5
 739 356 l 1
 739 225 683 65 554 65 c 0
 510 65 490 75 478 86 c 1
 497 91 527 108 527 141 c 0
 527 179 482 213 415 213 c 0
 340 213 296 177 296 137 c 0
 296 108 320 94 340 86 c 1
 325 73 311 65 275 65 c 0
 157 65 112 189 110 295 c 0
 108 381 149 484 207 484 c 0
 235 484 244 463 249 421 c 0
 256 366 269 326 298 300 c 0
 333 268 381 255 428 255 c 0
 540 255 591 332 591 406 c 0
 591 483 537 550 439 550 c 0
 367 550 326 498 326 444 c 0
 326 382 372 356 408 356 c 0
 473 356 507 405 507 456 c 0
 507 480 497 505 481 520 c 1
 455 521 l 1
 466 503 472 484 472 462 c 0
 472 435 454 404 419 404 c 0
 385 404 373 430 373 448 c 0
 373 481 396 506 430 511 c 0
 506 522 555 470 553 404 c 0
 552 345 511 305 432 304 c 0
 372 303 287 327 286 427 c 0
 285 499 258 528 213 528 c 0
 126 528 52 427 50 272 c 1
EndSplineSet
Refer: 560 -1 N 1 0 0 1 121 0 2
Ligature2: "si_abvs_1 subtable" si_Mba si_MatraI
EndChar

StartChar: si_YI
Encoding: 340 -1 358
GlifName: si_Y_I_
Width: 922
VWidth: 6
Flags: HMW
LayerCount: 2
Back
SplineSet
284 688 m 0
 284 814 397 899 579 899 c 0
 748 899 852 806 852 696 c 0
 852 619 786 547 723 547 c 1
 675 571 l 1
 675 571 779 579 779 684 c 0
 779 759 684 817 548 818 c 0
 438 819 346 779 346 697 c 0
 346 607 419 553 560 554 c 5
 556 510 l 1
 382 511 284 591 284 688 c 0
EndSplineSet
Refer: 53 3514 N 1 0 0 1 0 0 2
Fore
SplineSet
273 698 m 0
 273 794 346 906 588 906 c 0
 757 906 871 816 871 706 c 0
 871 629 795 547 732 547 c 1
 657 571 l 1
 657 571 771 564 771 639 c 0
 771 714 666 760 560 761 c 0
 450 762.038085938 355 743 355 681 c 0
 355 631 458 583 619 584 c 1
 585 520 l 1
 381 521 273 601 273 698 c 0
EndSplineSet
Refer: 53 3514 N 1 0 0 1 9 0 2
LCarets2: 1 0
Ligature2: "si_abvs_1 subtable" si_Ya si_MatraI
EndChar

StartChar: si_Ya.post
Encoding: 345 -1 363
GlifName: si_Y_a.post
Width: 747
VWidth: 19
Flags: HMW
LayerCount: 2
Back
SplineSet
11 437 m 5
 26 488 67 553 148 553 c 4
 268 553 289 444 289 384 c 4
 289 209 169 85 61 -11 c 5
 46 -9 22 -2 19 25 c 5
 19 25 227 160 227 378 c 4
 227 465 199 508 146 507 c 4
 100 506 66 464 55 423 c 5
 40 423 19 424 11 437 c 5
125 99 m 5
 150 111 160 115 177 115 c 4
 242 115 285 58 395 58 c 4
 528 58 566 144 566 214 c 4
 566 294 507 388 324 363 c 5
 319 475 386 571 493 571 c 4
 545 571 607 543 607 464 c 4
 607 382 527 350 527 350 c 5
 517 371 l 5
 517 371 538 396 538 433 c 4
 538 485 505 511 466 511 c 4
 372 511 361 403 361 403 c 5
 521 429 644 350 644 204 c 4
 644 83 572 -23 420 -23 c 4
 281 -23 235 79 175 79 c 4
 166 79 151 75 139 65 c 5
 125 99 l 5
EndSplineSet
Fore
SplineSet
22 505 m 1
 37 556 89 608 160 608 c 0
 276 608 337 524 337 404 c 4
 337 229 209 79 101 -11 c 1
 81 -13 42 18 39 45 c 1
 39 45 248 209 248 397 c 0
 248 494 214 534 159 534 c 0
 128 534 96 514 85 473 c 1
 70 473 30 492 22 505 c 1
165 99 m 1
 190 121 204 129 221 129 c 0
 286 129 299 96 369 96 c 0
 462 96 500 168 500 238 c 0
 500 298 476 360 364 363 c 1
 359 475 402 608 540 608 c 0
 614 608 678 560 678 481 c 0
 678 399 567 350 567 350 c 1
 542 375 l 1
 542 375 567 399 567 436 c 0
 567 483 535 501 496 501 c 0
 402 501 412 403 412 403 c 1
 572 429 697 346 697 200 c 0
 697 79 626 -30 474 -30 c 0
 305 -30 264 64 204 64 c 0
 195 64 180 60 168 50 c 1
 165 99 l 1
EndSplineSet
LCarets2: 2 0 0
Ligature2: "si_yansaya subtable" si_Halant zwj si_Ya
EndChar

StartChar: si_R.halant
Encoding: 352 -1 370
GlifName: si_R_.halant
Width: 741
VWidth: 25
Flags: HMW
LayerCount: 2
Back
SplineSet
48.1494140625 234.995117188 m 4
 40.203125 502.370117188 320.275390625 576.115234375 497.014648438 782.920898438 c 5
 525.267578125 815.903320312 537.883789062 851.296875 544.278320312 881.994140625 c 5
 545.27734375 882.022460938 546.278320312 882.025390625 547.276367188 882.077148438 c 4
 573.514648438 883.240234375 603.791992188 870.858398438 614.643554688 834.6796875 c 5
 569.922851562 706.600585938 382.514648438 607.34375 208.80859375 492.642578125 c 4
 155.331632832 449.501111834 101.020134191 397.856172844 105.318359375 256.872070312 c 4
 109.440237565 125.88548209 231.866574853 40.249422201 380.413085938 43.927734375 c 4
 546.21150762 48.0899690963 627.713160983 174.618568989 624.427734375 293.99609375 c 4
 620.063264631 454.507286583 487.953512129 517.513671875 362.489257812 511.223632812 c 4
 186.503699652 501.670606666 102.851101273 374.901252389 105.318359375 256.872070312 c 5
 101.340502884 315.987534983 88.6212860749 351.940629391 122.619140625 426.223632812 c 5
 121.30078125 429.655273438 216.080078125 559.73046875 385.87890625 564.586914062 c 4
 519.046875 568.474609375 686.783548216 479.939543582 690.926757812 284.030273438 c 4
 694.507900717 112.483398438 580.229749982 -46.4872916655 385.080078125 -52.0908203125 c 4
 184.902231666 -58.0209725561 52.5712395976 78.1884765625 48.1494140625 234.995117188 c 4
EndSplineSet
Fore
SplineSet
78 396 m 1
 78 936 l 5
 99.921875 943 120.890625 940 139 936 c 5
 167 917 191 907 219 893 c 4
 249 878 328 845 328 755 c 4
 328 689 286 659 233 659 c 4
 183 659 147 686 136 707 c 5
 152 708 l 5
 152 703 149 697 149 691 c 6
 149 396 l 1
 125.013175589 396 131.729668289 392 78 396 c 1
154 758 m 5
 168 739 192 737 205 737 c 4
 231 737 252 749 252 777 c 4
 252 837 169 857 154 872 c 5
 154 758 l 5
EndSplineSet
Refer: 4 3515 N 1 0 0 1 0 0 2
LCarets2: 1 0
Ligature2: "si_halant_1 subtable" si_Ra si_Halant
EndChar

StartChar: si_RAe
Encoding: 353 -1 371
GlifName: si_R_A_e
Width: 1021
VWidth: 25
Flags: HMW
LayerCount: 2
Back
SplineSet
608 198 m 0
 608 422 763 676 821 746 c 1
 632 746 l 1
 637 809 l 1
 661 809 863 809 900 809 c 1
 891 753 l 1
 804 660 705 444 686 316 c 0
 684 300 682 281 682 261 c 0
 682 166 718 43 866 43 c 0
 931 43 964 70 989 89 c 1
 1010 67 l 1
 994 24 916 -33 827 -33 c 0
 658 -33 608 70 608 198 c 0
EndSplineSet
Refer: 4 3515 N 1 0 0 1 0 0 2
Fore
SplineSet
608 198 m 0
 608 422 763 676 821 746 c 1
 632 746 l 1
 637 809 l 1
 900 809 l 1
 891 753 l 1
 804 660 705 444 686 316 c 0
 684 300 682 281 682 261 c 0
 682 166 718 43 866 43 c 0
 931 43 964 70 989 89 c 1
 1010 67 l 1
 994 24 916 -33 827 -33 c 0
 658 -33 608 70 608 198 c 0
EndSplineSet
Refer: 4 3515 N 1 0 0 1 0 0 2
LCarets2: 1 0
Ligature2: "si_raer subtable" si_Ra si_MatraAe
EndChar

StartChar: si_RAae
Encoding: 354 -1 372
GlifName: si_R_A_ae
Width: 1001
VWidth: 25
Flags: HMW
LayerCount: 2
Back
SplineSet
596 673 m 1
 596 709 l 1
 770 796 l 1
 633 796 l 1
 633 846 l 1
 859 846 l 1
 850 792 l 1
 716 719 l 1
 771 719 852 719 871 719 c 1
 861 663 l 1
 762 585 675 386 675 251 c 0
 675 156 711 43 839 43 c 4
 894 43 942 72 972 99 c 5
 1000 87 l 1
 984 44 916 -33 807 -33 c 0
 650 -33 597 70 597 198 c 0
 597 218 599 239 601 260 c 0
 618 451 751 620 801 675 c 1
 759 674 648 674 596 673 c 1
EndSplineSet
Refer: 4 3515 N 1 0 0 1 0 0 2
Fore
SplineSet
596 673 m 1
 596 709 l 1
 770 796 l 1
 633 796 l 1
 633 846 l 1
 859 846 l 1
 850 792 l 1
 716 719 l 1
 871 719 l 1
 861 663 l 1
 762 585 675 386 675 251 c 0
 675 156 711 43 839 43 c 4
 894 43 942 72 972 99 c 5
 1000 87 l 1
 984 44 916 -33 807 -33 c 0
 650 -33 597 70 597 198 c 0
 597 218 599 239 601 260 c 0
 618 451 751 620 801 675 c 1
 759 674 648 674 596 673 c 1
EndSplineSet
Refer: 4 3515 N 1 0 0 1 0 0 2
LCarets2: 1 0
Ligature2: "si_raer subtable" si_Ra si_MatraAae
EndChar

StartChar: si_RI
Encoding: 355 -1 373
GlifName: si_R_I_
Width: 733
VWidth: 25
Flags: HMW
LayerCount: 2
Back
SplineSet
126 650 m 0
 126 802.015151515 246.779591837 904 359 904 c 0
 440.118421053 904 494 857 494 780 c 4
 494 736 471 694 471 694 c 5
 449 694 l 1
 462.417582418 780 426.56043956 829 338 829 c 0
 260.508196721 829 175 763.670212766 175 651 c 0
 175 599.17721519 208 562 252 562 c 0
 254 562 257 562 259 562 c 1
 259 533 l 1
 246 528 237 525 225 525 c 0
 165 525 126 578.260869565 126 650 c 0
EndSplineSet
Refer: 4 3515 N 1 0 0 1 0 0 2
Fore
SplineSet
43 674 m 0
 43 816 129 915 261 915 c 0
 352 915 424 857 424 780 c 0
 424 736 401 694 401 694 c 1
 379 694 l 1
 392 750 330 787 261 787 c 4
 194 787 115 748 115 655 c 0
 115 603 158 569 202 569 c 2
 209 569 l 1
 199 523 l 1
 186 518 176.995105038 514.657282713 165 515 c 0
 95 517 43 602 43 674 c 0
EndSplineSet
Refer: 4 3515 N 1 0 0 1 0 0 2
LCarets2: 1 0
Ligature2: "si_abvs_1 subtable" si_Ra si_MatraI
EndChar

StartChar: si_RIi
Encoding: 356 -1 374
GlifName: si_R_I_i
Width: 741
VWidth: 25
Flags: HMW
LayerCount: 2
Back
SplineSet
394.772460938 680.720703125 m 0
 431.241367611 680.720703125 452.109486582 708.886571899 452.109486582 739.940870426 c 0
 452.109486582 817.443676917 402.139870407 855.626953125 317.015625 855.626953125 c 4
 215.719124346 855.626953125 140.60546875 788.042918538 140.60546875 687.072265625 c 0
 140.60546875 615.704999271 192.514010077 570.232421875 246.700195312 570.232421875 c 0
 253.766531308 570.232421875 260.613753217 571.131015816 267 573 c 1
 279 534 l 1
 267.786744418 532.10240103 255.799713451 531.038085938 243.500976562 531.038085938 c 0
 167.888652794 531.038085938 84.470703125 579.892824909 84.470703125 698.31640625 c 0
 84.470703125 796.062869661 170.250216907 922.379882812 323.450195312 922.379882812 c 0
 419.263931383 922.379882812 492.825195312 861.512521937 492.825195312 765.940429688 c 0
 492.825195312 699.134827104 447.289381971 638.268554688 382.807617188 638.268554688 c 0
 334.335522532 638.268554688 300.813476562 672.878670663 300.813476562 719.794921875 c 0
 300.813476562 778.726602624 356.228572854 818.765111722 408 817.860351562 c 0
 427.169019302 817.546691152 443.887830959 805.19591035 461 798 c 1
 469 771 l 1
 456.324081057 767.594219436 444.61652369 788.086329903 407 787 c 0
 373.285146198 786.026346662 349.791015625 757.885167259 349.791015625 726.025390625 c 0
 349.791015625 700.365106903 369.945591383 680.720703125 394.772460938 680.720703125 c 0
EndSplineSet
Refer: 4 3515 N 1 0 0 1 0 0 2
Fore
SplineSet
84 698 m 0
 84 796 170 922 323 922 c 0
 419 922 493 862 493 766 c 0
 493 699 447 638 383 638 c 0
 335 638 301 673 301 720 c 0
 301 779 356 819 408 818 c 0
 427 818 444 805 461 798 c 1
 469 771 l 1
 456 768 445 788 407 787 c 0
 373 786 350 758 350 726 c 0
 350 700 370 681 395 681 c 0
 431 681 452 709 452 740 c 0
 452 818 402 856 317 856 c 4
 216 856 141 788 141 687 c 0
 141 616 193 570 247 570 c 0
 254 570 261 571 267 573 c 1
 279 534 l 1
 268 532 256 531 244 531 c 0
 168 531 84 580 84 698 c 0
EndSplineSet
Refer: 4 3515 N 1 0 0 1 0 0 2
LCarets2: 1 0
Ligature2: "si_abvs_2 subtable" si_Ra si_MatraIi
EndChar

StartChar: si_LI
Encoding: 360 -1 378
GlifName: si_L_I_
Width: 995
VWidth: 25
Flags: HMW
LayerCount: 2
Back
Refer: 562 -1 N 1 0 0 1 40 0 2
Refer: 54 3517 N 1 0 0 1 0 0 2
Fore
SplineSet
198 677 m 0
 198 814.475728155 344 923 534 923 c 0
 731.094726562 923 865.96875 823.900390625 867 693 c 0
 867.564453125 621.001953125 807.762711864 559.451612903 734 549 c 1
 709 601 l 1
 742 603 761 625 760 652 c 4
 759.048828125 700.96875 688.560546875 761 524 761 c 0
 345.734375 761 289 683 289 644 c 0
 289 610 316 600 340 593 c 1
 312 549 l 1
 237 557.677966102 198 620.593220339 198 677 c 0
EndSplineSet
Refer: 54 3517 N 1 0 0 1 0 0 2
LCarets2: 1 0
Ligature2: "si_abvs_1 subtable" si_La si_MatraI
EndChar

StartChar: si_LU
Encoding: 362 -1 380
GlifName: si_L_U_
Width: 982
VWidth: 25
Flags: HMW
LayerCount: 2
Back
SplineSet
351 364 m 1
 351 409 l 1
 633 409 l 1
 633 364 l 1
 351 364 l 1
65 211 m 0
 65 464 257 614 497 614 c 0
 727 614 835 477 835 356 c 0
 835 226 744 155 642 155 c 0
 533 155 483 218 483 277 c 0
 483 347 536 383 574 387 c 1
 632 365 l 1
 555 365 533 336 533 299 c 0
 533 254 599 231 649 231 c 0
 719 231 777 273 777 365 c 0
 777 467 683 559 495 559 c 0
 286 559 167 438 167 248 c 0
 167 49 290 -68 514 -68 c 0
 648 -68 716 -10 754 24 c 1
 806 -23 l 1
 765 -60 664 -127 490 -127 c 0
 224 -127 65 -4 65 211 c 0
101 -262 m 0
 101 -168 189 -113 189 -113 c 1
 224 -138 l 1
 199 -155 180 -178 180 -214 c 0
 180 -251 203 -275 251 -275 c 2
 753 -275 l 1
 754 23 l 1
 806 -24 l 1
 806 -348 l 1
 806 -348 380 -348 198 -348 c 0
 124 -348 101 -306 101 -262 c 0
EndSplineSet
Fore
SplineSet
133.5 -231 m 0
 133.5 -102.013671875 278.5 -55 278.5 -55 c 1
 292.662109375 -62.673828125 308.620117188 -83.4736328125 308.5 -103 c 1
 297.423076923 -111.860759494 276.5 -138.443037975 276.5 -173 c 0
 276.5 -221.192599826 307.502986976 -239.849782482 374.5 -240 c 2
 820.5 -241 l 1
 824.5 20 l 1
 898.5 -30 l 1
 897.5 -350 l 1
 302.5 -354 l 2
 180.00915328 -354.823467877 133.5 -298.45104862 133.5 -231 c 0
70 220 m 0
 70 458.601056889 279.922851562 636 550 636 c 0
 811.392578125 636 933.416476648 470.969728393 934 324 c 0
 934.860351562 107.306640625 795.750976562 52 670 52 c 0
 558.989257812 52 477 114.215820312 477 202 c 0
 477 322 582 362 620 366 c 1
 688 328 l 1
 618.064453125 328 579 304.999609374 579 268 c 0
 579 238.737704918 620.66015625 217 675 217 c 0
 739.48828125 217 820 249.51171875 820 356 c 0
 820 455.375477667 715.193569841 546 578 546 c 0
 404.290322581 546 278 433.690607735 278 238 c 0
 278 32.1325452024 420.789431217 -73 587 -73 c 0
 717.142972905 -73 786.229109873 -20.3003784185 824 20 c 1
 880 -45 l 1
 849.034365559 -86.1769205724 731.955438066 -169 546 -169 c 4
 256.093863486 -169 70 -34.6842912946 70 220 c 0
397 327 m 1
 397 398 l 1
 689 398 l 1
 689 327 l 1
 397 327 l 1
EndSplineSet
LCarets2: 1 0
Ligature2: "si_blws_1 subtable" si_La si_MatraU
EndChar

StartChar: si_VIi
Encoding: 366 -1 383
GlifName: si_V_I_i
Width: 890
VWidth: 16
Flags: HMW
LayerCount: 2
Back
SplineSet
46 172 m 0
 46 319 213 363 328 363 c 0
 337 363 346 363 354 362 c 1
 354 432 304 468 212 468 c 1
 186 387 l 1
 181 386 176 386 171 386 c 0
 133 386 108 408 108 442 c 0
 108 508 175 530 224 530 c 0
 302 530 394 491 394 382 c 0
 394 348 386 314 386 314 c 1
 368 316 350 317 332 317 c 0
 221 317 128 272 128 193 c 0
 128 113 219 70 370 70 c 0
 563 70 671 195 671 366 c 1
 734 366 l 1
 734 138 597 -28 360 -28 c 0
 183 -28 46 45 46 172 c 0
EndSplineSet
Refer: 561 -1 N 1 0 0 1 63 0 2
Fore
SplineSet
586 675 m 1
 586 675 484 710.573593129 484 753 c 0
 484 813 596 795 596 795 c 1
 632 836 l 25
 553 870.660888672 l 1
 553 870.660888672 423 870.660888672 423 750 c 0
 423 654.799804688 499 636 558 636 c 1
 586 675 l 1
691.375976562 387.774414062 m 1
 692.075195312 266.662109375 598.546026459 169.717430228 414 167 c 0
 277.645507812 164.9921875 195 193.961914062 195 238 c 0
 195 296.22265625 307.107421875 321.974609375 440 300 c 1
 440 300 450 339.943359375 450 379 c 0
 450 508 351.137695312 567 265 567 c 0
 206.848632812 567 127.014648438 536 128 448 c 0
 128.436523438 408.990234375 165.083984375 372 209 372 c 1
 264 472 l 1
 336 472 388 440 388 370 c 1
 380 373 362 376 323 376 c 0
 193.625 376 53 307.631835938 53 173 c 0
 53 16 230.435546875 -53.7744140625 417 -51 c 0
 684.387695312 -47.0234375 810.452148438 123.8671875 811.986328125 350.0078125 c 1
 808.650390625 593.807617188 631.041015625 672.124023438 516 687 c 0
 421 697 403.881473061 697.00846621 320 703 c 0
 278 706 198 716 198 762 c 0
 198 815 259 845 360 845 c 0
 530 845 606 779 606 724 c 0
 606 690 576 650 526 662 c 1
 550 618 l 1
 631 611 719.306640625 695.00390625 718 776 c 0
 716 900 584 974 420 974 c 0
 247 974 113 886 113 754 c 0
 113 681 164.718065004 639.851953493 286 626 c 0
 368.25109857 616.605868943 420.184570312 610.189453125 495 598 c 0
 572.541015625 585.366210938 691.375976562 528 691.375976562 387.774414062 c 1
EndSplineSet
Ligature2: "si_abvs_2 subtable" si_Va si_MatraIi
LCarets2: 1 0
Ligature2: "'abvs' Above Base Substitutions in Sinhala lookup 0-2" si_Va si_MatraIi
EndChar

StartChar: si_VRa
Encoding: 371 -1 388
GlifName: si_V_R_a
Width: 858
VWidth: 16
Flags: HMW
LayerCount: 2
Back
SplineSet
561 753 m 1049
EndSplineSet
Refer: 644 -1 S 1 0 0 1 -1 0 2
Refer: 2 3520 N 1 0 0 1 0 0 2
Fore
SplineSet
561 753 m 1049
EndSplineSet
Refer: 644 -1 S 1 0 0 1 -1 0 2
Refer: 2 3520 N 1 0 0 1 0 0 2
LCarets2: 3 0 0 0
Ligature2: "si_rakaar subtable" si_Va si_Halant zwj si_Ra
EndChar

StartChar: si_SUu
Encoding: 398 -1 414
GlifName: si_S_U_u
Width: 949
VWidth: 6
Flags: HMW
LayerCount: 2
Back
SplineSet
183.5 -221 m 4
 183.5 -92.013671875 328.5 -45 328.5 -45 c 5
 342.662109375 -52.673828125 358.620117188 -73.4736328125 358.5 -93 c 5
 347.422851562 -101.860351562 326.5 -128.443359375 326.5 -163 c 4
 326.5 -196.806640625 357.504882812 -209.134765625 424.5 -210 c 6
 828.5 -211 l 5
 818.5 210 l 5
 896.5 210 l 5
 905.5 -340 l 5
 352.5 -344 l 6
 230.01171875 -345.250976562 183.5 -288.451171875 183.5 -221 c 4
EndSplineSet
Refer: 6 3523 N 1 0 0 1 0 0 2
Fore
SplineSet
125 -214 m 0
 125 -138 192 -64 250 -47 c 1
 268.908203125 -51.09375 287.901367188 -68.3759765625 291 -85 c 1
 254 -109 247 -120 247 -144 c 0
 247 -173 268 -191 314 -191 c 0
 391.373046875 -191 460.596679688 -133 586 -133 c 0
 672 -133 721 -150 798 -189 c 5
 796 157 l 1
 869 157 l 1
 871 -319 l 1
 836 -334 l 1
 761.559570312 -290.563476562 673.797851562 -258 570 -258 c 0
 430.219726562 -258 387.047851562 -330 273 -330 c 0
 175 -330 125 -270 125 -214 c 0
EndSplineSet
Refer: 6 3523 N 1 0 0 1 0 0 2
LCarets2: 1 0
Ligature2: "si_blws_3 subtable" si_Sa si_MatraUu
EndChar

StartChar: si_LlI
Encoding: 415 -1 431
GlifName: si_L_lI_
Width: 949
VWidth: 25
Flags: HMW
LayerCount: 2
Back
SplineSet
208 662 m 0
 208 786 345 866 510 866 c 0
 677 866 801 792 802 670 c 0
 803 603 752 547 694 537 c 9
 686 571 l 17
 713 578 741 607 740 652 c 0
 739 703 672 776 504 776 c 4
 344 776 264 718 264 657 c 0
 264 615 296 585 322 576 c 9
 314 542 l 17
 249 551 208 606 208 662 c 0
EndSplineSet
Refer: 58 3525 N 1 0 0 1 0 0 2
Fore
SplineSet
252 662 m 0
 252 786 389 866 554 866 c 0
 721 866 845 792 846 670 c 0
 847 603 796 547 738 537 c 9
 730 571 l 17
 757 578 785 607 784 652 c 0
 783 703 716 776 548 776 c 4
 388 776 308 718 308 657 c 0
 308 615 340 585 366 576 c 9
 358 542 l 17
 293 551 252 606 252 662 c 0
EndSplineSet
Refer: 58 3525 N 1 0 0 1 0 0 2
LCarets2: 1 0
Ligature2: "si_abvs_1 subtable" si_Lla si_MatraI
EndChar

StartChar: si_KSsa
Encoding: 429 -1 445
GlifName: si_K_S_sa
Width: 1368
VWidth: 6
Flags: HMW
AnchorPoint: "si_hal" 1263 544 basechar 0
LayerCount: 2
Back
SplineSet
26 135 m 0
 26 136 27 136 27 137 c 0
 127 281 217 352 315 443 c 0
 322 449 331 450 338 455 c 0
 430 525 547 584 666 601 c 0
 692 605 729 606 758 606 c 0
 777 606 793 606 801 605 c 1
 801 544 l 1
 792 546 773 546 749 546 c 0
 563 546 481 483 355 404 c 0
 337 393 349 397 335 385 c 0
 238 306 156 241 56 109 c 1
 56 109 26 126 26 135 c 0
67 445 m 0
 67 523 131 589 223 589 c 0
 296 589 343 538 343 482 c 0
 343 470 341 458 336 446 c 0
 330 431 329 426 329 425 c 0
 329 423 331 427 323 417 c 1
 288 407 l 1
 299 428 303 447 303 464 c 0
 303 506 272 532 227 532 c 0
 188 532 146 506 146 463 c 1
 191 401 l 1
 178 378 155 366 134 366 c 0
 87 366 67 399 67 445 c 0
95 160 m 1
 107 195 l 1
 115 199 124 202 132 202 c 0
 179 202 188 102 271 102 c 0
 320 102 370 131 371 227 c 1
 406 227 l 1
 407 126 465 102 524 102 c 0
 586 102 638 147 638 224 c 0
 638 306 560 375 440 375 c 0
 381 375 312 358 281 341 c 1
 335 394 l 1
 347 398 385 421 462 421 c 0
 576 421 696 361 696 212 c 0
 696 77 621 -6 514 -6 c 0
 430 -6 398 39 379 79 c 1
 397 79 l 1
 380 38 337 -6 272 -6 c 0
 128 -6 154 165 110 165 c 0
 106 165 101 163 95 160 c 1
EndSplineSet
Refer: 56 3522 N 1 0 0 1 598 8 2
Fore
SplineSet
26 135 m 0
 26 136 27 136 27 137 c 0
 127 281 217 352 315 443 c 0
 322 449 331 450 338 455 c 0
 430 525 547 584 666 601 c 0
 692 605 729 606 758 606 c 0
 777 606 793 606 801 605 c 1
 801 544 l 1
 792 546 773 546 749 546 c 0
 563 546 481 483 355 404 c 0
 337 393 349 397 335 385 c 0
 238 306 156 241 56 109 c 1
 56 109 26 126 26 135 c 0
67 445 m 0
 67 523 131 589 223 589 c 0
 296 589 343 538 343 482 c 0
 343 470 341 458 336 446 c 0
 330 431 329 426 329 425 c 0
 329 423 331 427 323 417 c 1
 288 407 l 1
 299 428 303 447 303 464 c 0
 303 506 272 532 227 532 c 0
 188 532 146 506 146 463 c 1
 191 401 l 1
 178 378 155 366 134 366 c 0
 87 366 67 399 67 445 c 0
95 160 m 1
 107 195 l 1
 115 199 124 202 132 202 c 0
 179 202 188 102 271 102 c 0
 320 102 370 131 371 227 c 1
 406 227 l 1
 407 126 465 102 524 102 c 0
 586 102 638 147 638 224 c 0
 638 306 560 375 440 375 c 0
 381 375 312 358 281 341 c 1
 335 394 l 1
 347 398 385 421 462 421 c 0
 576 421 696 361 696 212 c 0
 696 77 621 -6 514 -6 c 0
 430 -6 398 39 379 79 c 1
 397 79 l 1
 380 38 337 -6 272 -6 c 0
 128 -6 154 165 110 165 c 0
 106 165 101 163 95 160 c 1
EndSplineSet
Refer: 56 3522 N 1 0 0 1 598 8 2
LCarets2: 1 0
Ligature2: "si_akhands subtable" si_Ka si_Halantfzwjnsi_SsaC2
EndChar

StartChar: I_comp
Encoding: 569 -1 560
GlifName: I__comp
Width: 794
VWidth: 16
Flags: HMW
LayerCount: 2
Back
SplineSet
71 724 m 4
 71 836 199 897 352 897 c 4
 546 897 615 805 615 718 c 4
 615 637 535 593 454 600 c 5
 430 644 l 5
 480 632 533 646 533 702 c 4
 533 767 472 823 322 823 c 4
 221 823 143 795 143 732 c 4
 143 686 186 662 238 659 c 4
 322 655 314 657 409 647 c 4
 525 632 681 540 681 351 c 5
 618 351 l 5
 618 499 509 570 418 586 c 4
 343 597 308 595 226 602 c 4
 128 611 71 651 71 724 c 4
EndSplineSet
Fore
SplineSet
41 764 m 0
 41 896 193 974 346 974 c 0
 540 974 683 882 685 758 c 0
 686 677 599 611 518 618 c 1
 494 662 l 1
 544 650 574 698 574 724 c 0
 574 779 478 835 328 835 c 0
 227 835 123 805 123 752 c 4
 123 696 186 692 238 689 c 0
 322 685 314 694 409 684 c 0
 525 669 728 620 728 351 c 1
 616 362 l 1
 616 530 509 575 418 591 c 0
 343 602 288 595 206 602 c 0
 74 614 41 691 41 764 c 0
EndSplineSet
EndChar

StartChar: Ii_comp
Encoding: 570 -1 561
GlifName: I_i_comp
Width: 726
VWidth: 16
Flags: HMW
LayerCount: 2
Back
SplineSet
73 727 m 0
 73 831 203 897 366 897 c 0
 530 897 617 822 617 713 c 0
 617 650 551 598 481 598 c 0
 454 598 361 601 361 695 c 0
 361 748 414 793 469 793 c 0
 479 793 490 792 501 788 c 9
 520 754 l 1
 510 757 500 758 491 758 c 0
 447 758 423 727 423 699 c 0
 423 665 441 644 478 644 c 0
 503 644 532 659 532 697 c 0
 532 759 479 821 332 821 c 0
 225 821 143 800 143 732 c 0
 143 651 267 654 349 654 c 0
 546 654 682 515 682 351 c 1
 617 351 l 1
 617 495 518 584 367 592 c 0
 234 599 73 597 73 727 c 0
EndSplineSet
Fore
SplineSet
73 727 m 0
 73 831 203 897 366 897 c 0
 530 897 617 822 617 713 c 0
 617 650 551 598 481 598 c 0
 454 598 361 601 361 695 c 0
 361 748 414 793 469 793 c 0
 479 793 490 792 501 788 c 9
 520 754 l 1
 510 757 500 758 491 758 c 0
 447 758 423 727 423 699 c 0
 423 665 441 644 478 644 c 0
 503 644 532 659 532 697 c 0
 532 759 479 821 332 821 c 0
 225 821 143 800 143 732 c 0
 143 651 267 654 349 654 c 0
 546 654 682 515 682 351 c 1
 617 351 l 1
 617 495 518 584 367 592 c 0
 234 599 73 597 73 727 c 0
EndSplineSet
EndChar

StartChar: si_MatraI.alt
Encoding: 571 -1 562
GlifName: si_M_atraI_.alt
Width: 865
VWidth: 6
Flags: HMW
LayerCount: 2
Back
SplineSet
170 682 m 0
 170 796 322 866 467 866 c 0
 614 866 763 804 764 682 c 0
 765 615 714 568 656 558 c 13
 648 592 l 21
 684 599 703 630 702 666 c 0
 701 717 631 774 463 774 c 0
 303 774 226 728 226 667 c 0
 226 625 256 601 282 592 c 13
 274 558 l 21
 209 567 170 626 170 682 c 0
EndSplineSet
Fore
SplineSet
148 686 m 0
 148 806 294 892 484 892 c 0
 646 892 801 811 802 692 c 0
 802.520991956 630.001957192 752 577 684 568 c 1
 671 618 l 5
 707 623 721 636 720 663 c 4
 719 713 647 760 474 760 c 0
 309 760 229 702 229 663 c 0
 229 629 256 619 280 612 c 1
 262 568 l 1
 187 576 148 634 148 686 c 0
EndSplineSet
EndChar

StartChar: si_MatraIi.alt
Encoding: 572 -1 563
GlifName: si_M_atraI_i.alt
Width: 776
VWidth: 6
Flags: HMW
LayerCount: 2
Back
SplineSet
136 666 m 0
 136 803 277 873 416 873 c 0
 562 873 702 805 702 676 c 0
 702 599 653 556 587 556 c 0
 536 556 481 592 481 664 c 0
 481 733 552 776 564 776 c 0
 565 776 565 776 565 776 c 2
 621 766 l 1
 602 752 544 713 544 667 c 0
 544 636 562 600 593 600 c 16
 616 600 641 619 641 654 c 0
 641 743 490 781 391 781 c 0
 290 781 211 755 199 686 c 0
 198 680 197 674 197 669 c 0
 197 620 238 596 261 584 c 9
 244 549 l 17
 180 560 136 603 136 666 c 0
EndSplineSet
Fore
SplineSet
136 666 m 0
 136 803 277 873 416 873 c 0
 562 873 702 805 702 676 c 0
 702 599 653 556 587 556 c 0
 536 556 481 592 481 664 c 0
 481 733 552 776 564 776 c 2
 565 776 l 1
 621 766 l 1
 602 752 544 713 544 667 c 0
 544 636 562 600 593 600 c 16
 616 600 641 619 641 654 c 0
 641 743 490 781 391 781 c 0
 290 781 211 755 199 686 c 0
 198 680 197 674 197 669 c 0
 197 620 238 596 261 584 c 9
 244 549 l 17
 180 560 136 603 136 666 c 0
EndSplineSet
EndChar

StartChar: si_Rakar
Encoding: 82 -1 568
GlifName: zwj
Width: 959
VWidth: 6
Flags: HMW
LayerCount: 2
Back
SplineSet
118 -139 m 1
 121 -128 137 -118 155 -118 c 1
 155 -118 252.33105802 -221 449 -221 c 0
 755.804668953 -221 884.527169612 28.9146163482 894 284 c 1
 921 277 l 1
 921 277 920.448098058 212.901338348 916 163 c 0
 899.07593261 -41.0703296703 764.363636364 -309 448 -309 c 0
 218.833333333 -309 123.5 -165 118 -139 c 1
EndSplineSet
Fore
SplineSet
43 -139 m 1
 51.8916015625 -125 70.9462890625 -121 90 -118 c 1
 139.8359375 -152.1015625 282.63671875 -192.604492188 451 -186 c 4
 705.90625 -176 862.249023438 91.8408203125 871 287 c 1
 922 280 l 1
 922 217 l 2
 922 198 921.23828125 168.056640625 919 133 c 0
 904.400390625 -95.671875 772.919921875 -360 458 -360 c 0
 241.981445312 -360 72.6728515625 -218.270507812 43 -139 c 1
EndSplineSet
EndChar

StartChar: si_MatraI.alt1
Encoding: 574 -1 573
GlifName: si_M_atraI_.alt1
Width: 0
VWidth: 6
Flags: HMW
LayerCount: 2
Back
SplineSet
-325 412 m 21
 -300.75 673.432989691 -137.326086957 840 63 840 c 0
 183 840 284 770.470588235 284 643 c 4
 284 581 253 509 174 487 c 13
 155 512 l 21
 174 528 204 578 204 612 c 4
 204 702.363636364 124 754 27 754 c 0
 -122.824561404 754 -254.456140351 637.357615894 -278 412 c 9
 -325 412 l 21
EndSplineSet
Fore
SplineSet
-325 412 m 1
 -297.369158879 704.348214286 -113.163551402 890 113 890 c 0
 258.021645022 890 381 809.096774194 381 662 c 0
 381 596.423076923 345.209090909 520.269230769 254 497 c 1
 195 522 l 1
 210.12244898 537.2 234 572.2 234 617 c 0
 234 697.492957746 154 744 57 744 c 0
 -117.636363636 744 -233.945454545 630.583850932 -258 412 c 1
 -325 412 l 1
EndSplineSet
EndChar

StartChar: si_MatraIi.alt1
Encoding: 575 -1 574
GlifName: si_M_atraI_i.alt2
Width: 632
VWidth: 6
Flags: HMW
LayerCount: 2
Back
SplineSet
25 452 m 1
 28.0958809161 654.4921875 204.258013481 839 402 839 c 4
 513.013824885 839 621 768 621 654 c 0
 621 557 558 506 488 506 c 0
 434.084745763 506 387 538.20754717 387 597 c 0
 387 665.835747664 466.597765363 717.803921569 549 698 c 1
 547 674 l 1
 512.323869828 678.878153048 437.670471222 667.949427986 437 601 c 0
 436.727394727 574.228419013 457.906666667 544 493 544 c 0
 530.215384615 544 552 580.423529412 552 630 c 0
 552 706 503.229508197 755 377 755 c 0
 243.17739899 755 84.43956492 637.540039062 72 452 c 1
 25 452 l 1
EndSplineSet
Fore
SplineSet
25 452 m 1
 28 654 204 839 402 839 c 4
 513 839 621 768 621 654 c 0
 621 557 558 506 488 506 c 0
 434 506 387 538 387 597 c 0
 387 666 467 718 549 698 c 1
 547 674 l 1
 512 679 438 668 437 601 c 0
 437 574 458 544 493 544 c 0
 530 544 552 580 552 630 c 0
 552 706 503 755 377 755 c 0
 243 755 84 638 72 452 c 1
 25 452 l 1
EndSplineSet
EndChar

StartChar: U_comp
Encoding: 576 -1 575
GlifName: U__comp
Width: 0
VWidth: 6
Flags: HMW
LayerCount: 2
Back
SplineSet
-131 -104 m 0
 -131 -6 -55 37 1 38 c 9
 1 -12 l 17
 -41 -13 -78 -41 -78 -88 c 0
 -78 -142.133333333 -26.4732824427 -172 57 -172 c 0
 169.566137566 -172 225.35978836 -73.4460431655 242 -39 c 1
 266 -42 276 -51 277 -68 c 1
 266 -116 209 -264 46 -264 c 0
 -31 -264 -131 -223 -131 -104 c 0
EndSplineSet
Fore
SplineSet
-156 -105 m 4
 -156 -7 -75 65 1 66 c 1
 1 -19 l 17
 -41 -20 -68 -45 -68 -78 c 0
 -68 -132 -29 -170 54 -170 c 0
 167 -170 225 -73 242 -39 c 1
 266 -42 276 -51 277 -68 c 1
 266 -116 219 -294 46 -294 c 0
 -61 -294 -156 -224 -156 -105 c 4
EndSplineSet
EndChar

StartChar: al_comp
Encoding: 577 -1 576
GlifName: al_comp
Width: 812
VWidth: 16
Flags: HMW
LayerCount: 2
Back
SplineSet
116 834 m 4
 116 834 192 894 325 892 c 0
 704 888 731 511 731 363 c 9
 716 373 l 1
 716 373 706 822 322 832 c 0
 284 833 263 832 263 832 c 17
 275 854 l 1
 262 790 248 742 146 701 c 9
 137 707 l 17
 224 775 225 835 232 860 c 1
 244 830 l 1
 187 815 167 804 120 783 c 1
 112 790 110 808 116 834 c 4
EndSplineSet
Fore
SplineSet
137 707 m 1
 224 775 225 835 232 860 c 1
 244 822 l 1
 205 816 192 811 160 803 c 1
 152 810 150 828 156 854 c 1
 156 854 236 914 375 912 c 0
 668 908 779 652 770 363 c 1
 755 373 l 1
 748 511 649 833 362 833 c 0
 273 833 263 825 263 825 c 1
 315 874 l 1
 299 793 244 722 156 681 c 1
 137 707 l 1
EndSplineSet
EndChar

StartChar: uni002F
Encoding: 578 47 577
GlifName: uni002F_
Width: 629
VWidth: 0
Flags: HMW
LayerCount: 2
Back
SplineSet
13 -80 m 17
 435 842 l 9
 516 846 l 17
 487 787 431 670 381 560 c 2
 93 -80 l 9
 13 -80 l 17
EndSplineSet
Fore
SplineSet
13 -80 m 21
 435 842 l 13
 516 846 l 21
 487 787 431 670 381 560 c 6
 93 -80 l 13
 13 -80 l 21
EndSplineSet
EndChar

StartChar: uni0021
Encoding: 581 33 580
GlifName: uni0021
Width: 330
VWidth: 153
Flags: HMW
LayerCount: 2
Back
SplineSet
89 772 m 1
 112 792 178 802 218 802 c 0
 225 802 232 802 237 801 c 1
 216 608 201 435 193 208 c 1
 112 206 l 1
 105 399 97 610 89 772 c 1
EndSplineSet
Refer: 593 46 N 1 0 0 1 29 -10 2
Fore
SplineSet
89 772 m 1
 112 792 178 802 218 802 c 0
 225 802 232 802 237 801 c 1
 216 608 201 435 193 208 c 1
 112 206 l 1
 105 399 97 610 89 772 c 1
EndSplineSet
Refer: 593 46 N 1 0 0 1 29 -10 2
EndChar

StartChar: uni0027
Encoding: 587 39 586
GlifName: uni0027
Width: 206
VWidth: 79
Flags: HMW
LayerCount: 2
Back
SplineSet
26 551 m 1
 67 532 l 1
 104 593 158 709 171 780 c 1
 156 792 137 797 118 797 c 0
 90 797 64 787 53 778 c 1
 50 714 37 624 26 551 c 1
EndSplineSet
Fore
SplineSet
26 551 m 1
 67 532 l 1
 104 593 158 709 171 780 c 1
 156 792 137 797 118 797 c 0
 90 797 64 787 53 778 c 1
 50 714 37 624 26 551 c 1
EndSplineSet
EndChar

StartChar: uni0028
Encoding: 588 40 587
GlifName: uni0028
Width: 371
VWidth: 153
Flags: HMW
LayerCount: 2
Back
SplineSet
79 298 m 0
 79 505 156 713 265 883 c 1
 316 849 l 5
 236 719 181 491 181 330 c 4
 181 194 193 20 299 -110 c 5
 257 -164 l 1
 199 -118 96 41 81 235 c 0
 79 256 79 277 79 298 c 0
EndSplineSet
Fore
SplineSet
79 298 m 0
 79 505 156 713 265 883 c 1
 316 849 l 5
 236 719 181 491 181 330 c 4
 181 194 193 20 299 -110 c 5
 257 -164 l 1
 199 -118 96 41 81 235 c 0
 79 256 79 277 79 298 c 0
EndSplineSet
EndChar

StartChar: uni0029
Encoding: 589 41 588
GlifName: uni0029
Width: 371
VWidth: 153
Flags: HMW
LayerCount: 2
Back
SplineSet
52 -95 m 5
 135 41 192 246 192 415 c 0
 192 552 160 700 69 814 c 5
 131 865 l 5
 184 817 292 683 307 489 c 4
 309 469 309 450 309 430 c 0
 309 226 226 38 117 -133 c 5
 52 -95 l 5
EndSplineSet
Fore
SplineSet
52 -95 m 5
 135 41 192 246 192 415 c 0
 192 552 160 700 69 814 c 5
 131 865 l 5
 184 817 292 683 307 489 c 4
 309 469 309 450 309 430 c 0
 309 226 226 38 117 -133 c 5
 52 -95 l 5
EndSplineSet
EndChar

StartChar: uni002B
Encoding: 591 43 590
GlifName: uni002B_
Width: 618
VWidth: 153
Flags: HMW
LayerCount: 2
Back
SplineSet
272 141 m 1
 272 632 l 1
 354 618 l 1
 349 522 346 443 346 367 c 0
 346 291 349 217 354 131 c 1
 327 133 306 139 272 141 c 1
47 343 m 5
 61 432 l 5
 157 427 241 424 322 424 c 0
 403 424 482 427 568 432 c 5
 566 405 560 377 558 343 c 5
 47 343 l 5
EndSplineSet
Fore
SplineSet
47 343 m 5
 61 432 l 5
 157 427 241 424 322 424 c 0
 403 424 482 427 568 432 c 5
 566 405 560 377 558 343 c 5
 47 343 l 5
272 141 m 1
 272 632 l 1
 354 618 l 1
 349 522 346 443 346 367 c 0
 346 291 349 217 354 131 c 1
 327 133 306 139 272 141 c 1
EndSplineSet
EndChar

StartChar: uni002C
Encoding: 592 44 591
GlifName: uni002C_
Width: 198
VWidth: 79
Flags: HMW
LayerCount: 2
Back
SplineSet
38 -153 m 1
 82 -178 l 1
 121 -138 181 -28 181 55 c 0
 181 63 180 72 179 80 c 1
 162 95 148 100 125 100 c 0
 97 100 93 92 83 85 c 5
 93 48 87 13 87 -20 c 4
 87 -77 53 -125 38 -153 c 1
EndSplineSet
Fore
SplineSet
38 -153 m 1
 82 -178 l 1
 121 -138 181 -28 181 55 c 0
 181 63 180 72 179 80 c 1
 162 95 148 100 125 100 c 0
 97 100 93 92 83 85 c 5
 93 48 87 13 87 -20 c 4
 87 -77 53 -125 38 -153 c 1
EndSplineSet
EndChar

StartChar: uni002D
Encoding: 593 45 592
GlifName: uni002D_
Width: 589
VWidth: 153
Flags: HMW
LayerCount: 2
Back
SplineSet
47 343 m 1
 61 432 l 1
 157 427 231 424 302 424 c 0
 373 424 442 427 528 432 c 1
 526 405 520 377 518 343 c 1
 47 343 l 1
EndSplineSet
Fore
SplineSet
47 343 m 1
 61 432 l 1
 157 427 231 424 302 424 c 0
 373 424 442 427 528 432 c 1
 526 405 520 377 518 343 c 1
 47 343 l 1
EndSplineSet
EndChar

StartChar: uni002E
Encoding: 594 46 593
GlifName: uni002E_
Width: 247
VWidth: 79
Flags: HMW
LayerCount: 2
Back
SplineSet
50 49 m 0
 50 88 78 122 124 122 c 0
 165 122 198 100 198 53 c 0
 198 4 171 -21 124 -21 c 4
 84 -21 50 0 50 49 c 0
EndSplineSet
Fore
SplineSet
50 49 m 0
 50 88 78 122 124 122 c 0
 165 122 198 100 198 53 c 0
 198 4 171 -21 124 -21 c 4
 84 -21 50 0 50 49 c 0
EndSplineSet
EndChar

StartChar: uni0030
Encoding: 595 48 594
GlifName: uni0030
Width: 696
VWidth: 153
Flags: HMW
LayerCount: 2
Back
SplineSet
58 311 m 0
 58 557 175 678 341 688 c 0
 345 688 349 688 353 688 c 0
 483 688 629 592 629 358 c 0
 629 173 553 -5 348 -5 c 0
 169 -5 58 121 58 311 c 0
184 367 m 0
 184 189 246 68 362 68 c 0
 456 68 505 176 505 339 c 0
 505 513 446 626 346 626 c 0
 275 626 184 549 184 367 c 0
EndSplineSet
Fore
SplineSet
58 311 m 0
 58 557 175 678 341 688 c 0
 345 688 349 688 353 688 c 0
 483 688 629 592 629 358 c 0
 629 173 553 -5 348 -5 c 0
 169 -5 58 121 58 311 c 0
184 367 m 0
 184 189 246 68 362 68 c 0
 456 68 505 176 505 339 c 0
 505 513 446 626 346 626 c 0
 275 626 184 549 184 367 c 0
EndSplineSet
EndChar

StartChar: uni0031
Encoding: 596 49 595
GlifName: uni0031
Width: 422
VWidth: 79
Flags: HMW
LayerCount: 2
Back
SplineSet
60 583 m 1
 60 644 l 1
 160 644 298 695 298 695 c 1
 288 591 287 86 278 0 c 1
 174 0 l 1
 183 121 187 263 187 368 c 0
 187 433 186 485 183 508 c 0
 178 553 132 583 60 583 c 1
72 0 m 1
 72 61 l 1
 130 61 179 83 183 137 c 1
 284 151 l 1
 282 71 333 63 366 63 c 0
 372 63 378 63 382 63 c 1
 392 0 l 1
 72 0 l 1
EndSplineSet
Fore
SplineSet
60 583 m 1
 60 644 l 1
 160 644 298 695 298 695 c 1
 288 591 287 86 278 0 c 1
 174 0 l 1
 183 121 187 263 187 368 c 0
 187 433 186 485 183 508 c 0
 178 553 132 583 60 583 c 1
72 0 m 1
 72 61 l 1
 130 61 179 83 183 137 c 1
 284 151 l 1
 282 71 333 63 366 63 c 2
 382 63 l 1
 392 0 l 1
 72 0 l 1
EndSplineSet
EndChar

StartChar: uni0032
Encoding: 597 50 596
GlifName: uni0032
Width: 650
VWidth: 153
Flags: HMW
LayerCount: 2
Back
SplineSet
63 62 m 1
 126 96 282 220 342 287 c 0
 410 363 435 435 435 504 c 0
 435 578 397 634 317 634 c 0
 258 634 186 615 163 513 c 1
 96 504 l 1
 93 538 92 570 92 593 c 0
 92 616 93 631 93 631 c 1
 150 662 269 696 349 696 c 0
 470 696 570 645 570 529 c 0
 570 306 220 92 152 60 c 5
 184 95 l 1
 431 98 l 2
 509 98 518 150 525 179 c 1
 597 188 l 1
 588 0 l 1
 78 0 l 1
 63 62 l 1
EndSplineSet
Fore
SplineSet
63 62 m 1
 126 96 282 220 342 287 c 0
 410 363 435 435 435 504 c 0
 435 578 397 634 317 634 c 0
 258 634 186 615 163 513 c 1
 96 504 l 1
 93 538 92 570 92 593 c 0
 92 616 93 631 93 631 c 1
 150 662 269 696 349 696 c 0
 470 696 570 645 570 529 c 0
 570 306 220 92 152 60 c 5
 184 95 l 1
 431 98 l 2
 509 98 518 150 525 179 c 1
 597 188 l 1
 588 0 l 1
 78 0 l 1
 63 62 l 1
EndSplineSet
EndChar

StartChar: uni0033
Encoding: 598 51 597
GlifName: uni0033
Width: 601
VWidth: 153
Flags: HMW
LayerCount: 2
Back
SplineSet
54 -80 m 0
 54 -45 66 -3 87 27 c 1
 111 -18 169 -58 251 -58 c 0
 367 -58 408 18 408 110 c 0
 408 216 309 275 207 275 c 0
 203 275 198 275 194 275 c 5
 187 340 l 1
 323 358 389 426 389 509 c 0
 389 592 333 626 272 626 c 0
 189 626 142 572 129 502 c 1
 68 491 l 1
 65 522 64 555 64 580 c 0
 64 605 65 622 65 622 c 1
 117 646 205 683 301 683 c 0
 452 683 513 614 513 527 c 0
 513 419 414 327 285 308 c 1
 275 332 l 1
 277 332 279 332 281 332 c 0
 430 332 533 251 533 126 c 0
 533 -34 386 -94 284 -113 c 0
 244 -121 202 -124 165 -124 c 0
 114 -124 73 -118 57 -109 c 1
 55 -100 54 -91 54 -80 c 0
EndSplineSet
Fore
SplineSet
54 -80 m 0
 54 -45 66 -3 87 27 c 1
 111 -18 169 -58 251 -58 c 0
 367 -58 408 18 408 110 c 0
 408 216 309 275 207 275 c 2
 194 275 l 5
 187 340 l 1
 323 358 389 426 389 509 c 0
 389 592 333 626 272 626 c 0
 189 626 142 572 129 502 c 1
 68 491 l 1
 65 522 64 555 64 580 c 0
 64 605 65 622 65 622 c 1
 117 646 205 683 301 683 c 0
 452 683 513 614 513 527 c 0
 513 419 414 327 285 308 c 1
 275 332 l 1
 277 332 279 332 281 332 c 0
 430 332 533 251 533 126 c 0
 533 -34 386 -94 284 -113 c 0
 244 -121 202 -124 165 -124 c 0
 114 -124 73 -118 57 -109 c 1
 55 -100 54 -91 54 -80 c 0
EndSplineSet
EndChar

StartChar: uni0034
Encoding: 599 52 598
GlifName: uni0034
Width: 717
VWidth: 79
Flags: HMW
LayerCount: 2
Back
SplineSet
400 -112 m 1
 410 41 419 180 419 319 c 0
 419 344 419 369 418 394 c 9
 418 394 468 431 525 450 c 1
 509 256 502 148 502 45 c 0
 502 -5 504 -54 507 -112 c 1
 400 -112 l 1
41 139 m 1
 160 295 271 517 306 653 c 1
 326 667 347 683 375 683 c 0
 391 683 410 677 432 664 c 1
 399 547 234 244 101 149 c 1
 101 188 l 1
 120 188 150 188 177 188 c 0
 333 188 599 192 680 198 c 13
 693 103 l 21
 71 103 l 1
 41 139 l 1
EndSplineSet
Fore
SplineSet
41 139 m 1
 160 295 271 517 306 653 c 1
 326 667 347 683 375 683 c 0
 391 683 410 677 432 664 c 1
 399 547 234 244 101 149 c 1
 101 188 l 1
 177 188 l 2
 333 188 599 192 680 198 c 13
 693 103 l 21
 71 103 l 1
 41 139 l 1
400 -112 m 1
 410 41 419 180 419 319 c 0
 419 344 419 369 418 394 c 9
 418 394 468 431 525 450 c 1
 509 256 502 148 502 45 c 0
 502 -5 504 -54 507 -112 c 1
 400 -112 l 1
EndSplineSet
EndChar

StartChar: uni0035
Encoding: 600 53 599
GlifName: uni0035
Width: 594
VWidth: 153
Flags: HMW
LayerCount: 2
Back
SplineSet
45 -77 m 0
 45 -42 55 -1 75 35 c 1
 98 -10 154 -60 239 -60 c 0
 344 -60 401 4 401 115 c 0
 401 248 305 331 123 331 c 0
 110 331 98 331 84 330 c 1
 96 449 105 540 112 670 c 1
 145 668 183 667 221 667 c 0
 312 667 409 672 477 676 c 1
 473 556 l 1
 345 564 314 564 174 564 c 1
 166 402 l 6
 168 402 l 0
 366 402 533 322 533 138 c 0
 533 -25 383 -105 279 -122 c 0
 250 -127 216 -129 184 -129 c 0
 123 -129 67 -122 49 -112 c 1
 46 -102 45 -90 45 -77 c 0
EndSplineSet
Fore
SplineSet
45 -77 m 0
 45 -42 55 -1 75 35 c 1
 98 -10 154 -60 239 -60 c 0
 344 -60 401 4 401 115 c 0
 401 248 305 331 123 331 c 0
 110 331 98 331 84 330 c 1
 96 449 105 540 112 670 c 1
 145 668 183 667 221 667 c 0
 312 667 409 672 477 676 c 1
 473 556 l 1
 345 564 314 564 174 564 c 1
 166 402 l 5
 168 402 l 2
 366 402 533 322 533 138 c 0
 533 -25 383 -105 279 -122 c 0
 250 -127 216 -129 184 -129 c 0
 123 -129 67 -122 49 -112 c 1
 46 -102 45 -90 45 -77 c 0
EndSplineSet
EndChar

StartChar: uni0036
Encoding: 601 54 600
GlifName: uni0036
Width: 658
VWidth: 153
Flags: HMW
LayerCount: 2
Back
SplineSet
74 283 m 0
 74 290 74 296 74 303 c 0
 74 593 245 744 426 787 c 0
 451 793 478 797 504 797 c 0
 513 797 523 797 532 796 c 1
 540 741 l 17
 539 741 537 741 536 741 c 0
 299 741 191 522 191 319 c 0
 191 305 192 292 193 278 c 0
 203 135 259 46 350 46 c 0
 441 46 489 133 489 250 c 0
 489 377 419 424 344 424 c 0
 233 424 175 346 163 335 c 1
 165 335 140 371 142 372 c 1
 223 486 316 508 380 508 c 0
 480 508 608 438 608 262 c 0
 608 119 510 -14 330 -14 c 0
 136 -14 77 168 74 283 c 0
EndSplineSet
Fore
SplineSet
74 283 m 1
 74 303 l 2
 74 593 245 744 426 787 c 0
 451 793 478 797 504 797 c 0
 513 797 523 797 532 796 c 1
 540 741 l 17
 536 741 l 2
 299 741 191 522 191 319 c 0
 191 305 192 292 193 278 c 0
 203 135 259 46 350 46 c 0
 441 46 489 133 489 250 c 0
 489 377 419 424 344 424 c 0
 233 424 175 346 163 335 c 1
 165 335 140 371 142 372 c 1
 223 486 316 508 380 508 c 0
 480 508 608 438 608 262 c 0
 608 119 510 -14 330 -14 c 0
 136 -14 77 168 74 283 c 1
EndSplineSet
EndChar

StartChar: uni0037
Encoding: 602 55 601
GlifName: uni0037
Width: 662
VWidth: 0
Flags: HMW
LayerCount: 2
Back
SplineSet
72 465 m 1
 80 665 l 1
 128 664 179 663 228 663 c 0
 369 663 503 668 573 672 c 1
 619 618 l 5
 475 456 301 127 241 -128 c 5
 192 -128 144 -108 130 -75 c 5
 175 87 364 452 540 601 c 1
 542 573 l 1
 253 573 l 1
 170 569 135 512 119 470 c 1
 72 465 l 1
EndSplineSet
Fore
SplineSet
72 465 m 1
 80 665 l 1
 128 664 179 663 228 663 c 0
 369 663 503 668 573 672 c 1
 619 618 l 5
 475 456 301 127 241 -128 c 5
 192 -128 144 -108 130 -75 c 5
 175 87 364 452 540 601 c 1
 542 573 l 1
 253 573 l 1
 170 569 135 512 119 470 c 1
 72 465 l 1
EndSplineSet
EndChar

StartChar: uni0038
Encoding: 603 56 602
GlifName: uni0038
Width: 626
VWidth: 153
Flags: HMW
LayerCount: 2
Back
SplineSet
48 174 m 0
 48 75 114 -25 304 -25 c 0
 443 -25 565 55 565 194 c 0
 565 446 198 414 185 597 c 0
 185 601 185 605 185 609 c 0
 185 687 243 731 307 731 c 0
 389 731 435 672 435 595 c 0
 435 523 381 443 320 420 c 1
 348 390 l 1
 421 397 539 466 539 601 c 0
 539 716 440 791 316 791 c 0
 191 791 77 714 77 580 c 0
 77 326 437 388 437 188 c 0
 437 110 402 38 306 38 c 0
 210 38 167 112 167 184 c 0
 167 249 201 315 288 350 c 0
 289 350 289 352 289 353 c 0
 289 361 281 383 281 390 c 0
 281 391 281 392 282 392 c 1
 133 383 48 280 48 174 c 0
EndSplineSet
Fore
SplineSet
48 174 m 0
 48 75 114 -25 304 -25 c 0
 443 -25 565 55 565 194 c 0
 565 446 198 414 185 597 c 0
 185 601 185 605 185 609 c 0
 185 687 243 731 307 731 c 0
 389 731 435 672 435 595 c 0
 435 523 381 443 320 420 c 1
 348 390 l 1
 421 397 539 466 539 601 c 0
 539 716 440 791 316 791 c 0
 191 791 77 714 77 580 c 0
 77 326 437 388 437 188 c 0
 437 110 402 38 306 38 c 0
 210 38 167 112 167 184 c 0
 167 249 201 315 288 350 c 0
 289 350 289 352 289 353 c 0
 289 361 281 383 281 390 c 0
 281 391 281 392 282 392 c 1
 133 383 48 280 48 174 c 0
EndSplineSet
EndChar

StartChar: uni0039
Encoding: 604 57 603
GlifName: uni0039
Width: 633
VWidth: 153
Flags: HMW
LayerCount: 2
Back
SplineSet
54 410 m 0
 54 553 152 686 332 686 c 0
 526 686 585 504 588 389 c 0
 588 382 588 376 588 369 c 0
 588 79 417 -72 236 -115 c 0
 211 -121 184 -125 158 -125 c 0
 149 -125 139 -125 130 -124 c 1
 122 -64 l 21
 123 -64 125 -64 126 -64 c 0
 364 -64 465 151 465 351 c 0
 465 365 464 380 463 394 c 0
 453 537 403 626 312 626 c 0
 221 626 173 539 173 422 c 0
 173 295 243 248 318 248 c 0
 429 248 487 326 499 337 c 1
 497 337 522 301 520 300 c 1
 439 186 346 164 282 164 c 0
 182 164 54 234 54 410 c 0
EndSplineSet
Fore
SplineSet
54 410 m 0
 54 553 152 686 332 686 c 0
 526 686 585 504 588 389 c 1
 588 369 l 2
 588 79 417 -72 236 -115 c 0
 211 -121 184 -125 158 -125 c 0
 149 -125 139 -125 130 -124 c 1
 122 -64 l 21
 126 -64 l 2
 364 -64 465 151 465 351 c 0
 465 365 464 380 463 394 c 0
 453 537 403 626 312 626 c 0
 221 626 173 539 173 422 c 0
 173 295 243 248 318 248 c 0
 429 248 487 326 499 337 c 1
 497 337 522 301 520 300 c 1
 439 186 346 164 282 164 c 0
 182 164 54 234 54 410 c 0
EndSplineSet
EndChar

StartChar: uni003D
Encoding: 608 61 607
GlifName: uni003D_
Width: 580
VWidth: 153
Flags: HMW
LayerCount: 2
Back
SplineSet
35 228 m 5
 49 328 l 5
 145 323 226 320 305 320 c 0
 384 320 460 323 546 328 c 1
 544 301 538 262 536 228 c 1
 35 228 l 5
39 403 m 1
 53 494 l 1
 149 489 230 486 309 486 c 0
 388 486 464 489 550 494 c 1
 548 467 542 437 540 403 c 1
 39 403 l 1
EndSplineSet
Fore
SplineSet
35 228 m 5
 49 328 l 5
 145 323 226 320 305 320 c 0
 384 320 460 323 546 328 c 1
 544 301 538 262 536 228 c 1
 35 228 l 5
39 403 m 1
 53 494 l 1
 149 489 230 486 309 486 c 0
 388 486 464 489 550 494 c 1
 548 467 542 437 540 403 c 1
 39 403 l 1
EndSplineSet
EndChar

StartChar: uni003F
Encoding: 610 63 609
GlifName: uni003F_
Width: 542
VWidth: 153
Flags: HMW
LayerCount: 2
Back
SplineSet
78 689 m 0
 78 706 78 721 80 732 c 1
 192 732 l 1
 182 697 175 627 172 592 c 1
 87 580 l 1
 81 602 78 650 78 689 c 0
80 732 m 1
 133 765 220 801 307 801 c 0
 412 801 501 748 501 630 c 0
 501 614 499 598 496 580 c 0
 461 393 298 345 213 318 c 1
 218 324 253 366 260 366 c 0
 261 366 261 365 261 364 c 0
 261 299 266 219 270 198 c 5
 167 198 l 1
 168 235 167 340 168 364 c 1
 220 369 386 410 407 542 c 0
 409 555 410 568 410 581 c 0
 410 667 340 723 232 732 c 0
 228 732 225 732 221 732 c 0
 172 732 133 709 105 693 c 1
 80 732 l 1
EndSplineSet
Refer: 593 46 N 1 0 0 1 98 10 2
Fore
SplineSet
48 689 m 0
 48 706 48 721 50 732 c 1
 182 732 l 1
 172 697 165 627 162 592 c 1
 57 580 l 1
 51 602 48 650 48 689 c 0
50 732 m 1
 110.004405286 765 208.502202643 801 307 801 c 0
 428.237113402 801 531 748 531 630 c 0
 531 419.909656435 309.889848953 345.826924858 213 318 c 1
 218 324 253 366 260 366 c 0
 261 366 261 365 261 364 c 0
 261 299 266 219 270 198 c 1
 117 198 l 1
 118 235 117 340 118 364 c 1
 180.457052303 370.264342945 350 420.843152167 350 581 c 0
 350 667 299 724 232 732 c 0
 208.734512891 734.77796861 171 732 171 732 c 2
 130.448275862 732 98.1724137931 709 75 693 c 1
 50 732 l 1
EndSplineSet
Refer: 593 46 S 1.30425 0 0 1.30425 21.5742 -15.7755 2
EndChar

StartChar: si_MatraI.alt2
Encoding: 644 -1 641
GlifName: si_M_atraI_.alt2
Width: 660
VWidth: 6
Flags: HMW
LayerCount: 2
Back
SplineSet
23 695 m 0
 23 811 136 899 318 899 c 0
 497 899 611 792 611 682 c 4
 611 605 575 547 482 527 c 1
 464 561 l 1
 464 561 538 572 538 654 c 0
 538 729 450 817 294 818 c 0
 174 819 81 776 81 704 c 0
 81 614 159 566 320 557 c 1
 315 518 l 1
 141 519 23 598 23 695 c 0
EndSplineSet
Fore
SplineSet
23 695 m 0
 23 811 136 899 318 899 c 0
 497 899 611 792 611 682 c 4
 611 605 575 547 482 527 c 1
 464 561 l 1
 464 561 538 572 538 654 c 0
 538 729 450 817 294 818 c 0
 174 819 81 776 81 704 c 0
 81 614 159 566 320 557 c 1
 315 518 l 1
 141 519 23 598 23 695 c 0
EndSplineSet
EndChar

StartChar: si_MatraIi.alt2
Encoding: 649 -1 642
GlifName: si_M_atraI_i.alt2000000000000001
Width: 632
VWidth: 6
Flags: HMW
LayerCount: 2
Back
SplineSet
24 704 m 4
 24 805 133 904 324 900 c 4
 545 895 612 767 612 671 c 4
 612 578 543 528 463 528 c 4
 405 528 359 565 358 618 c 4
 357 675 397 713 442 720 c 4
 504 730 552 683 552 683 c 5
 543 650 l 5
 543 650 503 678 466 670 c 4
 430 663 411 641 412 609 c 4
 413 579 436 562 462 562 c 4
 501 562 536 591 536 651 c 4
 536 661 536 671 534 682 c 4
 526 728 473 813 317 819 c 4
 205 823 81 797 80 695 c 4
 79 593 240 556 320 556 c 5
 316 518 l 5
 170 518 24 571 24 704 c 4
EndSplineSet
Fore
SplineSet
24 704 m 4
 24 805 133 904 324 900 c 4
 545 895 612 767 612 671 c 4
 612 578 543 528 463 528 c 4
 405 528 359 565 358 618 c 4
 357 675 397 713 442 720 c 4
 504 730 552 683 552 683 c 5
 543 650 l 5
 543 650 503 678 466 670 c 4
 430 663 411 641 412 609 c 4
 413 579 436 562 462 562 c 4
 501 562 536 591 536 651 c 4
 536 661 536 671 534 682 c 4
 526 728 473 813 317 819 c 4
 205 823 81 797 80 695 c 4
 79 593 240 556 320 556 c 5
 316 518 l 5
 170 518 24 571 24 704 c 4
EndSplineSet
EndChar

StartChar: si_Rakar.alt1
Encoding: 645 -1 644
GlifName: si_R_akar.alt1
Width: 780
VWidth: 16
Flags: HMW
LayerCount: 2
Back
SplineSet
30 -148 m 1
 30 -138 35 -125 46 -122 c 1
 95.9107806691 -169.85 171.286245353 -209 320 -209 c 4
 619.002638522 -209 681.171503958 68.5584415584 694 337 c 1
 728 330 l 1
 728 330 728 327 728 321 c 0
 728 305 728 268 725 223 c 0
 708 -62 630 -299 337 -299 c 0
 131 -299 36 -171 30 -148 c 1
EndSplineSet
Fore
SplineSet
30 -148 m 1
 30 -138 35 -125 46 -122 c 1
 96 -170 171 -209 320 -209 c 4
 619 -209 681 69 694 337 c 1
 728 330 l 1
 728 321 l 2
 728 305 728 268 725 223 c 0
 708 -62 630 -299 337 -299 c 0
 131 -299 36 -171 30 -148 c 1
EndSplineSet
EndChar

StartChar: si_MatraU.alt1
Encoding: 646 -1 645
GlifName: si_M_atraU_.alt1
Width: 602
VWidth: 6
Flags: HMW
LayerCount: 2
Back
SplineSet
62 -150 m 0
 62 -75.8846445737 117.731707317 -30.8795851252 179 -31 c 1
 179 -72 l 1
 137 -72.7922077922 109 -100.519480519 109 -133 c 0
 109 -185.024390244 165.227642276 -212 242 -212 c 0
 363.117021277 -212 422.095744681 -112.718309859 440 -79 c 1
 464 -82 474 -91 475 -108 c 1
 463.51754386 -152.081632653 407.149122807 -288 237 -288 c 0
 152.058479532 -288 62 -241.691275168 62 -150 c 0
163 -72 m 1
 179 -31 l 1
 266 -64 l 1
 209 29 l 1
 277 29 l 1
 324 -85 l 1
 312.891577392 -96.0157020911 297.386062811 -101.101593907 281 -105 c 1
 163 -72 l 1
EndSplineSet
Fore
SplineSet
45 -181 m 0
 45 -87 118 -23 179 -23 c 1
 186 -92 l 1
 157 -93 140 -123 140 -148 c 0
 140 -200 226 -234 308 -234 c 0
 399 -234 465 -183 503 -139 c 1
 527 -142 544 -151 545 -168 c 1
 534 -212 461 -360 300 -360 c 0
 133 -360 45 -273 45 -181 c 0
170 -92 m 1
 179 -23 l 1
 266 -44 l 5
 189 46 l 1
 297 46 l 1
 364 -85 l 1
 360 -106 324 -131 308 -135 c 1
 170 -92 l 1
EndSplineSet
EndChar

StartChar: i_MatraU.alt2
Encoding: 651 -1 646
GlifName: i_M_atraU_.alt2
Width: 1040
VWidth: 6
Flags: HMW
LayerCount: 2
Back
SplineSet
267 -207 m 4
 267 -100 382 -61 382 -61 c 5
 402 -89 l 5
 384 -99 350 -129 350 -168 c 4
 350 -209 381 -225 448 -225 c 6
 910 -225 l 5
 910 190 l 5
 958 190 l 5
 964 -296 l 5
 416 -300 l 6
 308 -300 267 -258 267 -207 c 4
EndSplineSet
Fore
SplineSet
267 -207 m 4
 267 -100 382 -61 382 -61 c 5
 402 -89 l 5
 384 -99 350 -129 350 -168 c 4
 350 -209 381 -225 448 -225 c 6
 910 -225 l 5
 910 190 l 5
 958 190 l 5
 964 -296 l 5
 416 -300 l 6
 308 -300 267 -258 267 -207 c 4
EndSplineSet
EndChar

StartChar: si_MatraU.alt3
Encoding: 653 -1 648
GlifName: si_M_atraU_.alt3
Width: 1040
VWidth: 6
Flags: HMW
LayerCount: 2
Back
SplineSet
177 -200 m 4
 177 -93 292 -54 292 -54 c 5
 312 -82 l 5
 294 -92 260 -122 260 -161 c 4
 260 -202 291 -218 358 -218 c 6
 925 -218 l 1
 925 197 l 1
 972 197 l 1
 978 -289 l 1
 978 -289 583 -293 375 -293 c 4
 357 -293 341 -293 326 -293 c 4
 218 -293 177 -251 177 -200 c 4
EndSplineSet
Fore
SplineSet
155 -207 m 0
 155 -100 290 -61 290 -61 c 1
 310 -89 l 1
 292 -99 258 -129 258 -168 c 0
 258 -209 289 -225 356 -225 c 2
 918 -225 l 1
 918 190 l 1
 1006 190 l 1
 1012 -332 l 1
 284 -336 l 2
 190 -336 155 -278 155 -207 c 0
EndSplineSet
EndChar

StartChar: i_MatraU.alt3
Encoding: 654 -1 649
GlifName: i_M_atraU_.alt3
Width: 0
VWidth: 30
Flags: HMW
LayerCount: 2
Back
SplineSet
-683 -208 m 4
 -683 -79.013671875 -538 -32 -538 -32 c 5
 -523.837890625 -39.673828125 -507.879882812 -60.4736328125 -508 -80 c 5
 -519.077148438 -88.8603515625 -540 -115.443359375 -540 -150 c 4
 -540 -183.806640625 -508.995117188 -196.134765625 -442 -197 c 6
 -38 -198 l 5
 -48 223 l 5
 30 223 l 5
 39 -327 l 5
 -514 -331 l 6
 -636.48828125 -332.250976562 -683 -275.451171875 -683 -208 c 4
EndSplineSet
Fore
SplineSet
-745 -221 m 4
 -745 -145 -669 -83 -611 -66 c 5
 -592.091796875 -70.09375 -573.098632812 -87.3759765625 -570 -104 c 5
 -607 -128 -627 -150 -627 -174 c 4
 -627 -203 -606 -221 -560 -221 c 4
 -462.626953125 -221 -384.403710138 -129 -259 -129 c 4
 -173 -129 -119 -156 -42 -195 c 5
 -44 157 l 5
 29 157 l 5
 31 -329 l 5
 24.3359375 -326.36328125 10.671875 -336.641601562 4 -334 c 5
 -80.4404296875 -300.563476562 -153.201744914 -255 -257 -255 c 4
 -396.780655605 -255 -482.952148438 -334 -597 -334 c 4
 -695 -334 -745 -277 -745 -221 c 4
EndSplineSet
EndChar
